<svg xmlns="http://www.w3.org/2000/svg" xmlns:xlink="http://www.w3.org/1999/xlink" version="1.1" x="0px" y="0px" viewBox="0 0 65 81.25" enable-background="new 0 0 65 65" xml:space="preserve"><g><path d="M34.8,61.1c-0.5,0-0.9-0.3-0.9-0.8l-1.4-7.8l-0.4-2h1c0.4,0,0.7-0.3,0.7-0.7v-5.7c0-0.4-0.3-0.7-0.7-0.7h-2.2L30.3,40h-9.7   l4.2,23.8c0.1,0.4,0.4,0.7,0.9,0.7h2.9h6.1h0.2c0.9,0,1.7-0.8,1.7-1.7C36.5,61.9,35.7,61.1,34.8,61.1z"/><path d="M30.3,38h3.4V15.1H16.9l-4.3,1.5v1.9h-4c-0.8,0-1.5,0.7-1.5,1.5v0.9H4.9c-0.8,0-1.5,0.7-1.5,1.5v8.5c0,0.8,0.7,1.5,1.5,1.5   h2.2v0.9c0,0.8,0.7,1.5,1.5,1.5h4v1.9l4.3,1.5h3.6H30.3z"/><path d="M59.2,0.5c-1.3,0-2.4,1.1-2.4,2.4V3L35.7,15.1V38l21.1,12.1v0.1c0,1.3,1.1,2.4,2.4,2.4c1.3,0,2.4-1.1,2.4-2.4V2.9   C61.6,1.6,60.5,0.5,59.2,0.5z"/></g><text x="0" y="80" fill="#000000" font-size="5px" font-weight="bold" font-family="'Helvetica Neue', Helvetica, Arial-Unicode, Arial, Sans-serif">Created by Dinosoft Labs</text><text x="0" y="85" fill="#000000" font-size="5px" font-weight="bold" font-family="'Helvetica Neue', Helvetica, Arial-Unicode, Arial, Sans-serif">from the Noun Project</text></svg>