<svg xmlns="http://www.w3.org/2000/svg" xmlns:xlink="http://www.w3.org/1999/xlink" version="1.1" x="0px" y="0px" viewBox="0 0 100 125" enable-background="new 0 0 100 100" xml:space="preserve"><path d="M35.9,27.8c-9.6,0-17.4,7.8-17.4,17.4c0,9.6,7.8,17.4,17.4,17.4c9.6,0,17.4-7.8,17.4-17.4C53.3,35.6,45.5,27.8,35.9,27.8z"/><path d="M90.9,12.5c-2.3-4.6-6.3-8-11.3-9.6C74.7,1.2,69.5,1.6,64.9,4c-9.5,4.9-13.3,16.5-8.5,26c2,3.9,5.2,7,9.1,8.8l-3.9,10.3  l20.9-10.6C91.9,33.6,95.7,22,90.9,12.5z M67.7,22.4h-3.4v-3.5h3.4V22.4z M75.4,22.4H72v-3.5h3.4V22.4z M83.4,22.4H80v-3.5h3.4V22.4  z"/><path d="M39.2,68.4l0.6,1.4c0,0.1,0,0.2,0,0.3l-2.3,2.6l0.7,3l-5.4,3.8l1.7-6.9l-2.3-2.5c-0.1-0.1-0.1-0.2-0.1-0.3l0.6-1.4  C17.2,70,5.2,83.1,5.2,99h61.5C66.7,83.1,54.6,70,39.2,68.4z M32.1,82.4l6.5-4.6l0.9,3.8l-8.7,6.2L32.1,82.4z M41,88.1l-4.6,4.6  c-0.1,0.1-0.1,0.1-0.2,0.1c-0.1,0-0.1,0-0.2-0.1l-4-3.5l8-5.7l1,4.3C41.1,87.9,41,88,41,88.1z"/><text x="0" y="115" fill="#000000" font-size="5px" font-weight="bold" font-family="'Helvetica Neue', Helvetica, Arial-Unicode, Arial, Sans-serif">Created by Aneeque Ahmed</text><text x="0" y="120" fill="#000000" font-size="5px" font-weight="bold" font-family="'Helvetica Neue', Helvetica, Arial-Unicode, Arial, Sans-serif">from the Noun Project</text></svg>