<svg xmlns="http://www.w3.org/2000/svg" data-name="Layer 1" viewBox="0 0 100 125" x="0px" y="0px"><title>Artboard 22</title><path d="M88.2,65.55H86.62a5.89,5.89,0,0,1,2.94,5.72,6,6,0,0,1-6.06,5.29H82.11a5.89,5.89,0,0,1,2.94,5.72A6,6,0,0,1,79,87.56H77.6a5.89,5.89,0,0,1,2.94,5.72,6,6,0,0,1-6.06,5.29H71.54L36.27,99a1.85,1.85,0,0,1-1.87-1.85V61.45h0a1.9,1.9,0,0,1,1.24-1.83l4.1-1.44L53.5,28.9a4.6,4.6,0,0,1,9.07.89l-3.23,24H88a6.06,6.06,0,0,1,6.14,5.71A5.89,5.89,0,0,1,88.2,65.55Zm-62.1-7.38a3,3,0,0,1,3,3V96a3,3,0,0,1-3,3H8.92a3,3,0,0,1-3-3V61.18a3,3,0,0,1,3-3Zm-6.2,33a2.69,2.69,0,1,0-2.69,2.69A2.69,2.69,0,0,0,19.91,91.17ZM80.64,1a2.92,2.92,0,0,0-2.92,2.93V6.67C71.33,7.92,67.63,12,67.63,17.3c0,5.79,4.36,8.77,10.74,10.92,4.42,1.49,6.33,2.92,6.33,5.19s-2.33,3.7-5.73,3.7A20.07,20.07,0,0,1,72.51,36a3.55,3.55,0,0,0-1.15-.19,3.37,3.37,0,0,0-3.3,2.53l-.07.28a3.46,3.46,0,0,0,2.29,4.15A27.6,27.6,0,0,0,77.42,44v2.75a2.92,2.92,0,1,0,5.85,0V43.62c6.86-1.19,10.62-5.73,10.62-11s-2.86-8.65-10-11.16c-5.07-1.91-7.16-3.16-7.16-5.13,0-1.67,1.25-3.34,5.13-3.34a18.33,18.33,0,0,1,5.28.76,3.36,3.36,0,0,0,1,.14A3.46,3.46,0,0,0,89,7a25.51,25.51,0,0,0-5.45-.79V3.93A2.92,2.92,0,0,0,80.64,1Z"/><text x="0" y="115" fill="#000000" font-size="5px" font-weight="bold" font-family="'Helvetica Neue', Helvetica, Arial-Unicode, Arial, Sans-serif">Created by Gregor Črešnar</text><text x="0" y="120" fill="#000000" font-size="5px" font-weight="bold" font-family="'Helvetica Neue', Helvetica, Arial-Unicode, Arial, Sans-serif">from the Noun Project</text></svg>