<?xml version="1.0" encoding="utf-8"?>
<!-- Generator: Adobe Illustrator 19.0.0, SVG Export Plug-In . SVG Version: 6.00 Build 0)  -->
<svg version="1.1" xmlns="http://www.w3.org/2000/svg" xmlns:xlink="http://www.w3.org/1999/xlink" x="0px" y="0px"
	 viewBox="0 0 624.7 394.1" style="enable-background:new 0 0 624.7 394.1;" xml:space="preserve">
<style type="text/css">
	.st0{fill:#F5F7FA;}
	.st1{fill:none;stroke:#999999;stroke-miterlimit:10;}
	.st2{fill:#4D4D4D;stroke:#4D4D4D;stroke-miterlimit:10;}
	.st3{fill:#7ABCDF;}
	.st4{fill:#152E47;stroke:#3FA9F5;stroke-miterlimit:10;}
	.st5{fill:none;stroke:#152E47;stroke-miterlimit:10;}
	.st6{fill:#999999;}
	.st7{fill:#E6E6E6;}
	.st8{display:none;}
	.st9{display:inline;fill:none;stroke:#4D4D4D;stroke-miterlimit:10;}
</style>
<g id="fondo">
	<path id="XMLID_229_" class="st0" d="M612.7,394.1H12c-6.6,0-12-5.4-12-12V12C0,5.4,5.4,0,12,0h600.7c6.6,0,12,5.4,12,12v370.1
		C624.7,388.7,619.3,394.1,612.7,394.1z"/>
</g>
<g id="Capa_1">
	<circle id="XMLID_82_" class="st1" cx="99.3" cy="125.4" r="16.1"/>
	<g id="XMLID_560_">
		<path id="XMLID_561_" d="M84.1,100l-1.9,3.8h-0.9l-1.9-3.8v4.4h-1.6v-7h2.1l1.8,3.9l1.8-3.9h2.1v7h-1.6V100z"/>
		<path id="XMLID_563_" d="M91.8,104.4h-1.4v-0.7c-0.4,0.5-0.9,0.7-1.4,0.7c-0.6,0-1.1-0.2-1.4-0.5s-0.6-0.8-0.6-1.3
			c0-0.6,0.2-1,0.6-1.2c0.4-0.3,1-0.4,1.6-0.4h1.1v0c0-0.6-0.3-0.9-0.9-0.9c-0.3,0-0.5,0.1-0.8,0.2c-0.3,0.1-0.5,0.2-0.7,0.4l-0.7-1
			c0.7-0.5,1.5-0.8,2.4-0.8c0.7,0,1.2,0.2,1.6,0.5c0.4,0.3,0.6,0.8,0.6,1.6V104.4z M90.3,102.3v-0.3h-0.9c-0.6,0-0.9,0.2-0.9,0.6
			c0,0.2,0.1,0.3,0.2,0.4c0.1,0.1,0.3,0.2,0.6,0.2c0.3,0,0.5-0.1,0.7-0.2C90.2,102.8,90.3,102.6,90.3,102.3z"/>
		<path id="XMLID_566_" d="M96.1,100.3c-0.4,0-0.8,0.2-1,0.5c-0.2,0.3-0.3,0.7-0.3,1.3v2.3h-1.5V99h1.5v0.7c0.2-0.2,0.4-0.4,0.7-0.6
			c0.3-0.2,0.6-0.2,0.9-0.2l0,1.4H96.1z"/>
		<path id="XMLID_568_" d="M98.8,104.4h-1.5V97h1.5v3.8l1.7-1.8h1.9l-2.1,2.2l2.1,3.2h-1.8l-1.4-2.1l-0.5,0.5V104.4z"/>
		<path id="XMLID_570_" d="M108,103.6c-0.6,0.6-1.3,0.9-2.1,0.9s-1.5-0.3-2-0.8c-0.5-0.5-0.8-1.2-0.8-2s0.3-1.5,0.8-2
			c0.5-0.5,1.2-0.8,1.9-0.8s1.4,0.2,1.9,0.7c0.5,0.4,0.8,1.1,0.8,1.8v0.8h-3.9c0,0.3,0.2,0.5,0.5,0.7s0.6,0.3,0.9,0.3
			c0.5,0,1-0.2,1.3-0.5L108,103.6z M106.5,100.4c-0.2-0.2-0.5-0.3-0.8-0.3s-0.6,0.1-0.8,0.3c-0.2,0.2-0.4,0.4-0.4,0.7h2.4
			C106.9,100.8,106.8,100.6,106.5,100.4z"/>
		<path id="XMLID_573_" d="M111.3,100.1v2.4c0,0.2,0.1,0.4,0.2,0.5c0.1,0.1,0.2,0.2,0.4,0.2c0.3,0,0.5-0.1,0.7-0.4l0.6,1.1
			c-0.5,0.4-1,0.6-1.5,0.6s-1-0.2-1.3-0.5c-0.4-0.3-0.5-0.8-0.5-1.4v-2.5h-0.6V99h0.6v-1.6h1.5V99h1.3v1.1H111.3z"/>
		<path id="XMLID_575_" d="M114,98.3c-0.2-0.2-0.3-0.4-0.3-0.6s0.1-0.5,0.3-0.6c0.2-0.2,0.4-0.3,0.6-0.3c0.2,0,0.5,0.1,0.6,0.3
			s0.3,0.4,0.3,0.6s-0.1,0.5-0.3,0.6c-0.2,0.2-0.4,0.3-0.6,0.3C114.4,98.6,114.2,98.5,114,98.3z M115.4,104.4h-1.5V99h1.5V104.4z"/>
		<path id="XMLID_578_" d="M118.3,101.4v3h-1.5V99h1.5v0.6c0.5-0.5,1-0.7,1.5-0.7c0.6,0,1,0.2,1.4,0.6s0.6,0.9,0.6,1.6v3.3h-1.5
			v-3.1c0-0.8-0.3-1.2-0.9-1.2c-0.3,0-0.6,0.1-0.8,0.3C118.4,100.7,118.3,101,118.3,101.4z"/>
		<path id="XMLID_580_" d="M127.2,103.5c-0.5,0.5-1.1,0.8-1.8,0.8s-1.3-0.2-1.8-0.7c-0.5-0.5-0.7-1.1-0.7-1.9c0-0.8,0.2-1.5,0.7-2
			c0.5-0.5,1.1-0.8,1.7-0.8s1.2,0.3,1.6,0.8V99h1.5v4.7c0,0.5-0.1,0.9-0.3,1.3s-0.4,0.7-0.7,0.9c-0.6,0.4-1.2,0.7-2,0.7
			c-0.4,0-0.8-0.1-1.2-0.2s-0.8-0.3-1.1-0.6l0.6-1.1c0.5,0.4,1,0.6,1.6,0.6s1-0.1,1.3-0.4C127.1,104.5,127.2,104.1,127.2,103.5z
			 M127,101.6c0-0.4-0.1-0.8-0.4-1c-0.2-0.2-0.5-0.4-0.9-0.4c-0.4,0-0.7,0.1-0.9,0.4s-0.4,0.6-0.4,1c0,0.4,0.1,0.8,0.4,1
			c0.3,0.3,0.6,0.4,0.9,0.4s0.7-0.1,0.9-0.4C126.9,102.4,127,102,127,101.6z"/>
	</g>
	<g id="XMLID_542_">
		<path id="XMLID_543_" d="M84.6,153.6v1.4h-3.3v1.5h3.1v1.4h-3.1v2.8h-1.6v-7H84.6z"/>
		<path id="XMLID_545_" d="M85.9,154.5c-0.2-0.2-0.3-0.4-0.3-0.6s0.1-0.5,0.3-0.6c0.2-0.2,0.4-0.3,0.6-0.3c0.2,0,0.5,0.1,0.6,0.3
			s0.3,0.4,0.3,0.6s-0.1,0.5-0.3,0.6c-0.2,0.2-0.4,0.3-0.6,0.3C86.3,154.8,86.1,154.7,85.9,154.5z M87.3,160.6h-1.5v-5.4h1.5V160.6z
			"/>
		<path id="XMLID_548_" d="M90.2,157.6v3h-1.5v-5.4h1.5v0.6c0.5-0.5,1-0.7,1.5-0.7c0.6,0,1,0.2,1.4,0.6s0.6,0.9,0.6,1.6v3.3h-1.5
			v-3.1c0-0.8-0.3-1.2-0.9-1.2c-0.3,0-0.6,0.1-0.8,0.3C90.3,156.9,90.2,157.2,90.2,157.6z"/>
		<path id="XMLID_550_" d="M99.7,160.6h-1.4V160c-0.4,0.5-0.9,0.7-1.4,0.7c-0.6,0-1.1-0.2-1.4-0.5s-0.6-0.8-0.6-1.3
			c0-0.6,0.2-1,0.6-1.2c0.4-0.3,1-0.4,1.6-0.4h1.1v0c0-0.6-0.3-0.9-0.9-0.9c-0.3,0-0.5,0.1-0.8,0.2c-0.3,0.1-0.5,0.2-0.7,0.4l-0.7-1
			c0.7-0.5,1.5-0.8,2.4-0.8c0.7,0,1.2,0.2,1.6,0.5c0.4,0.3,0.6,0.8,0.6,1.6V160.6z M98.2,158.6v-0.3h-0.9c-0.6,0-0.9,0.2-0.9,0.6
			c0,0.2,0.1,0.3,0.2,0.4c0.1,0.1,0.3,0.2,0.6,0.2c0.3,0,0.5-0.1,0.7-0.2C98.1,159,98.2,158.8,98.2,158.6z"/>
		<path id="XMLID_553_" d="M102.6,157.6v3h-1.5v-5.4h1.5v0.6c0.5-0.5,1-0.7,1.5-0.7c0.6,0,1,0.2,1.4,0.6s0.6,0.9,0.6,1.6v3.3h-1.5
			v-3.1c0-0.8-0.3-1.2-0.9-1.2c-0.3,0-0.6,0.1-0.8,0.3C102.7,156.9,102.6,157.2,102.6,157.6z"/>
		<path id="XMLID_555_" d="M110.1,159.4c0.5,0,1-0.3,1.4-0.8l0.9,1c-0.7,0.7-1.4,1.1-2.3,1.1c-0.8,0-1.5-0.3-2.1-0.8
			c-0.6-0.5-0.8-1.2-0.8-2s0.3-1.5,0.8-2s1.2-0.8,2-0.8c0.4,0,0.8,0.1,1.2,0.2s0.7,0.4,1,0.7l-0.8,1c-0.2-0.2-0.4-0.4-0.6-0.5
			c-0.3-0.1-0.5-0.2-0.7-0.2c-0.4,0-0.7,0.1-1,0.4s-0.4,0.6-0.4,1.1c0,0.5,0.1,0.8,0.4,1.1S109.7,159.4,110.1,159.4z"/>
		<path id="XMLID_557_" d="M118,159.8c-0.6,0.6-1.3,0.9-2.1,0.9s-1.5-0.3-2-0.8c-0.5-0.5-0.8-1.2-0.8-2s0.3-1.5,0.8-2
			c0.5-0.5,1.2-0.8,1.9-0.8s1.4,0.2,1.9,0.7c0.5,0.4,0.8,1.1,0.8,1.8v0.8h-3.9c0,0.3,0.2,0.5,0.5,0.7s0.6,0.3,0.9,0.3
			c0.5,0,1-0.2,1.3-0.5L118,159.8z M116.6,156.6c-0.2-0.2-0.5-0.3-0.8-0.3s-0.6,0.1-0.8,0.3c-0.2,0.2-0.4,0.4-0.4,0.7h2.4
			C116.9,157,116.8,156.8,116.6,156.6z"/>
	</g>
	<g id="XMLID_515_">
		<path id="XMLID_516_" d="M82.1,216.4c-0.7,0.7-1.6,1-2.6,1s-1.9-0.3-2.6-1c-0.7-0.7-1.1-1.6-1.1-2.6s0.4-1.9,1.1-2.6
			c0.7-0.7,1.6-1,2.6-1s1.9,0.3,2.6,1c0.7,0.7,1.1,1.6,1.1,2.6S82.8,215.7,82.1,216.4z M81.6,213.8c0-0.6-0.2-1.2-0.6-1.6
			c-0.4-0.4-0.9-0.7-1.5-0.7s-1.1,0.2-1.5,0.7s-0.6,1-0.6,1.6c0,0.6,0.2,1.2,0.6,1.6s0.9,0.7,1.5,0.7s1.1-0.2,1.5-0.7
			C81.4,215,81.6,214.4,81.6,213.8z"/>
		<path id="XMLID_519_" d="M87.5,211.9c0.6,0,1.2,0.3,1.7,0.8c0.5,0.5,0.7,1.2,0.7,2s-0.2,1.5-0.7,2s-1.1,0.8-1.7,0.8
			c-0.7,0-1.2-0.3-1.6-0.8v2.7h-1.5V212h1.5v0.6C86.3,212.1,86.8,211.9,87.5,211.9z M85.8,214.7c0,0.4,0.1,0.8,0.4,1.1
			c0.2,0.3,0.5,0.4,0.9,0.4c0.3,0,0.7-0.1,0.9-0.4c0.3-0.3,0.4-0.6,0.4-1.1c0-0.4-0.1-0.8-0.4-1.1c-0.3-0.3-0.6-0.4-0.9-0.4
			s-0.7,0.1-0.9,0.4C85.9,213.9,85.8,214.2,85.8,214.7z"/>
		<path id="XMLID_522_" d="M95.7,216.6c-0.6,0.6-1.3,0.9-2.1,0.9s-1.5-0.3-2-0.8c-0.5-0.5-0.8-1.2-0.8-2s0.3-1.5,0.8-2
			c0.5-0.5,1.2-0.8,1.9-0.8s1.4,0.2,1.9,0.7c0.5,0.4,0.8,1.1,0.8,1.8v0.8h-3.9c0,0.3,0.2,0.5,0.5,0.7s0.6,0.3,0.9,0.3
			c0.5,0,1-0.2,1.3-0.5L95.7,216.6z M94.3,213.4c-0.2-0.2-0.5-0.3-0.8-0.3s-0.6,0.1-0.8,0.3c-0.2,0.2-0.4,0.4-0.4,0.7h2.4
			C94.6,213.8,94.5,213.6,94.3,213.4z"/>
		<path id="XMLID_525_" d="M100.1,213.3c-0.4,0-0.8,0.2-1,0.5c-0.2,0.3-0.3,0.7-0.3,1.3v2.3h-1.5V212h1.5v0.7
			c0.2-0.2,0.4-0.4,0.7-0.6c0.3-0.2,0.6-0.2,0.9-0.2l0,1.4H100.1z"/>
		<path id="XMLID_527_" d="M105.9,217.4h-1.4v-0.7c-0.4,0.5-0.9,0.7-1.4,0.7c-0.6,0-1.1-0.2-1.4-0.5s-0.6-0.8-0.6-1.3
			c0-0.6,0.2-1,0.6-1.2c0.4-0.3,1-0.4,1.6-0.4h1.1v0c0-0.6-0.3-0.9-0.9-0.9c-0.3,0-0.5,0.1-0.8,0.2c-0.3,0.1-0.5,0.2-0.7,0.4l-0.7-1
			c0.7-0.5,1.5-0.8,2.4-0.8c0.7,0,1.2,0.2,1.6,0.5c0.4,0.3,0.6,0.8,0.6,1.6V217.4z M104.4,215.3v-0.3h-0.9c-0.6,0-0.9,0.2-0.9,0.6
			c0,0.2,0.1,0.3,0.2,0.4c0.1,0.1,0.3,0.2,0.6,0.2c0.3,0,0.5-0.1,0.7-0.2C104.3,215.8,104.4,215.6,104.4,215.3z"/>
		<path id="XMLID_530_" d="M109,213.1v2.4c0,0.2,0.1,0.4,0.2,0.5c0.1,0.1,0.2,0.2,0.4,0.2c0.3,0,0.5-0.1,0.7-0.4l0.6,1.1
			c-0.5,0.4-1,0.6-1.5,0.6s-1-0.2-1.3-0.5c-0.4-0.3-0.5-0.8-0.5-1.4v-2.5h-0.6V212h0.6v-1.6h1.5v1.6h1.3v1.1H109z"/>
		<path id="XMLID_532_" d="M111.8,211.3c-0.2-0.2-0.3-0.4-0.3-0.6s0.1-0.5,0.3-0.6c0.2-0.2,0.4-0.3,0.6-0.3c0.2,0,0.5,0.1,0.6,0.3
			s0.3,0.4,0.3,0.6s-0.1,0.5-0.3,0.6c-0.2,0.2-0.4,0.3-0.6,0.3C112.1,211.5,111.9,211.5,111.8,211.3z M113.1,217.4h-1.5V212h1.5
			V217.4z"/>
		<path id="XMLID_535_" d="M120,214.7c0,0.8-0.3,1.4-0.8,2s-1.2,0.8-2,0.8s-1.5-0.3-2-0.8s-0.8-1.2-0.8-2c0-0.8,0.3-1.4,0.8-2
			c0.5-0.5,1.2-0.8,2-0.8s1.5,0.3,2,0.8C119.7,213.2,120,213.9,120,214.7z M115.8,214.7c0,0.4,0.1,0.8,0.4,1.1
			c0.3,0.3,0.6,0.4,1,0.4c0.4,0,0.7-0.1,1-0.4c0.3-0.3,0.4-0.6,0.4-1.1s-0.1-0.8-0.4-1.1c-0.3-0.3-0.6-0.4-1-0.4
			c-0.4,0-0.7,0.1-1,0.4C115.9,213.9,115.8,214.2,115.8,214.7z"/>
		<path id="XMLID_538_" d="M122.6,214.4v3h-1.5V212h1.5v0.6c0.5-0.5,1-0.7,1.5-0.7c0.6,0,1,0.2,1.4,0.6s0.6,0.9,0.6,1.6v3.3h-1.5
			v-3.1c0-0.8-0.3-1.2-0.9-1.2c-0.3,0-0.6,0.1-0.8,0.3C122.7,213.6,122.6,213.9,122.6,214.4z"/>
		<path id="XMLID_540_" d="M131.6,215.7c0,0.5-0.2,1-0.6,1.3c-0.4,0.3-0.9,0.5-1.5,0.5c-0.4,0-0.8-0.1-1.3-0.2
			c-0.4-0.1-0.8-0.4-1.2-0.6l0.7-0.9c0.6,0.4,1.2,0.7,1.8,0.7c0.2,0,0.3,0,0.5-0.1c0.1-0.1,0.2-0.2,0.2-0.3c0-0.1-0.1-0.2-0.2-0.4
			c-0.2-0.1-0.4-0.2-0.7-0.3c-0.3-0.1-0.5-0.2-0.7-0.2s-0.3-0.2-0.5-0.3c-0.4-0.3-0.6-0.6-0.6-1.1s0.2-0.9,0.6-1.2
			c0.4-0.3,0.9-0.5,1.6-0.5c0.6,0,1.3,0.2,1.9,0.6l-0.6,1c-0.5-0.3-0.9-0.5-1.4-0.5c-0.5,0-0.7,0.1-0.7,0.4c0,0.1,0.1,0.3,0.2,0.3
			c0.1,0.1,0.4,0.2,0.7,0.3c0.3,0.1,0.6,0.2,0.7,0.2c0.1,0.1,0.3,0.1,0.5,0.3C131.4,214.8,131.6,215.2,131.6,215.7z"/>
	</g>
	<path id="XMLID_91_" class="st1" d="M384.1,261H225.5c-6.6,0-12-5.4-12-12V100.8c0-6.6,5.4-12,12-12h158.6c6.6,0,12,5.4,12,12V249
		C396.1,255.6,390.7,261,384.1,261z"/>
	<polygon id="XMLID_115_" class="st2" points="210.2,125.8 210.2,124.2 211.2,125 212.2,125.8 211.2,126.6 210.2,127.3 	"/>
	<circle id="XMLID_68_" class="st1" cx="98.7" cy="181.4" r="15.6"/>
	<circle id="XMLID_1_" class="st1" cx="99.2" cy="237.5" r="15.5"/>
	<circle id="XMLID_135_" class="st3" cx="99.8" cy="125" r="11.3"/>
	<g id="XMLID_15_">
		<path id="XMLID_29_" class="st4" d="M107.2,119.1L107.2,119.1c-0.2-1.4-3.5-2.5-7.4-2.5c-4,0-7.2,1.1-7.4,2.5l0,0h0v0.2v3.6v0.2
			v0.2v3.4v0.2v0.2v3.7h0c0.2,1.4,3.5,2.5,7.4,2.5c4,0,7.2-1.1,7.4-2.5h0v-3.7v-0.2v-0.2v-3.4V123v-0.2v-3.6L107.2,119.1
			L107.2,119.1z"/>
		<g id="XMLID_25_">
			<path id="XMLID_28_" class="st4" d="M99.8,129.4c-4.1,0-7.4-1.2-7.4-2.6v3.9h0c0.2,1.4,3.5,2.5,7.4,2.5c4,0,7.2-1.1,7.4-2.5h0
				v-3.9C107.2,128.2,103.9,129.4,99.8,129.4z"/>
			<path id="XMLID_27_" class="st4" d="M92.3,126.6v0.2C92.3,126.7,92.3,126.6,92.3,126.6L92.3,126.6z"/>
			<path id="XMLID_26_" class="st4" d="M107.2,126.6c0,0.1,0,0.1,0,0.2L107.2,126.6L107.2,126.6z"/>
		</g>
		<g id="XMLID_21_">
			<path id="XMLID_24_" class="st4" d="M99.8,125.6c-4.1,0-7.4-1.2-7.4-2.6v3.9h0c0.2,1.4,3.5,2.5,7.4,2.5c4,0,7.2-1.1,7.4-2.5h0
				V123C107.2,124.5,103.9,125.6,99.8,125.6z"/>
			<path id="XMLID_23_" class="st4" d="M92.3,122.8v0.2C92.3,123,92.3,122.9,92.3,122.8L92.3,122.8z"/>
			<path id="XMLID_22_" class="st4" d="M107.2,122.8c0,0.1,0,0.1,0,0.2L107.2,122.8L107.2,122.8z"/>
		</g>
		<ellipse id="XMLID_20_" class="st4" cx="99.8" cy="119.3" rx="7.4" ry="2.6"/>
		<g id="XMLID_16_">
			<path id="XMLID_19_" class="st4" d="M99.8,121.9c-4.1,0-7.4-1.2-7.4-2.6v3.9h0c0.2,1.4,3.5,2.5,7.4,2.5c4,0,7.2-1.1,7.4-2.5h0
				v-3.9C107.2,120.7,103.9,121.9,99.8,121.9z"/>
			<path id="XMLID_18_" class="st4" d="M92.3,119.1v0.2C92.3,119.2,92.3,119.2,92.3,119.1L92.3,119.1z"/>
			<path id="XMLID_17_" class="st4" d="M107.2,119.1c0,0.1,0,0.1,0,0.2L107.2,119.1L107.2,119.1z"/>
		</g>
	</g>
	<circle id="XMLID_69_" class="st3" cx="99" cy="181.4" r="11.3"/>
	<g id="XMLID_7_">
		<path id="XMLID_66_" class="st4" d="M106.5,175.5L106.5,175.5c-0.2-1.4-3.5-2.5-7.4-2.5s-7.2,1.1-7.4,2.5l0,0h0v0.2v3.6v0.2v0.2
			v3.4v0.2v0.2v3.7h0c0.2,1.4,3.5,2.5,7.4,2.5s7.2-1.1,7.4-2.5h0v-3.7v-0.2V183v-3.4v-0.2v-0.2v-3.6L106.5,175.5L106.5,175.5z"/>
		<g id="XMLID_62_">
			<path id="XMLID_65_" class="st4" d="M99,185.8c-4.1,0-7.4-1.2-7.4-2.6v3.9h0c0.2,1.4,3.5,2.5,7.4,2.5s7.2-1.1,7.4-2.5h0v-3.9
				C106.5,184.6,103.1,185.8,99,185.8z"/>
			<path id="XMLID_64_" class="st4" d="M91.6,183v0.2C91.6,183.1,91.6,183,91.6,183L91.6,183z"/>
			<path id="XMLID_63_" class="st4" d="M106.5,183c0,0.1,0,0.1,0,0.2L106.5,183L106.5,183z"/>
		</g>
		<g id="XMLID_58_">
			<path id="XMLID_61_" class="st4" d="M99,182c-4.1,0-7.4-1.2-7.4-2.6v3.9h0c0.2,1.4,3.5,2.5,7.4,2.5s7.2-1.1,7.4-2.5h0v-3.9
				C106.5,180.9,103.1,182,99,182z"/>
			<path id="XMLID_60_" class="st4" d="M91.6,179.2v0.2C91.6,179.3,91.6,179.3,91.6,179.2L91.6,179.2z"/>
			<path id="XMLID_59_" class="st4" d="M106.5,179.2c0,0.1,0,0.1,0,0.2L106.5,179.2L106.5,179.2z"/>
		</g>
		<ellipse id="XMLID_57_" class="st4" cx="99" cy="175.7" rx="7.4" ry="2.6"/>
		<g id="XMLID_53_">
			<path id="XMLID_56_" class="st4" d="M99,178.3c-4.1,0-7.4-1.2-7.4-2.6v3.9h0c0.2,1.4,3.5,2.5,7.4,2.5s7.2-1.1,7.4-2.5h0v-3.9
				C106.5,177.1,103.1,178.3,99,178.3z"/>
			<path id="XMLID_55_" class="st4" d="M91.6,175.5v0.2C91.6,175.6,91.6,175.6,91.6,175.5L91.6,175.5z"/>
			<path id="XMLID_54_" class="st4" d="M106.5,175.5c0,0.1,0,0.1,0,0.2L106.5,175.5L106.5,175.5z"/>
		</g>
	</g>
	<circle id="XMLID_137_" class="st3" cx="99.8" cy="237.3" r="11.3"/>
	<g id="XMLID_70_">
		<path id="XMLID_136_" class="st4" d="M107.2,231.4L107.2,231.4c-0.2-1.4-3.5-2.5-7.4-2.5c-4,0-7.2,1.1-7.4,2.5l0,0h0v0.2v3.6v0.2
			v0.2v3.4v0.2v0.2v3.7h0c0.2,1.4,3.5,2.5,7.4,2.5c4,0,7.2-1.1,7.4-2.5h0v-3.7V239v-0.2v-3.4v-0.2v-0.2v-3.6L107.2,231.4
			L107.2,231.4z"/>
		<g id="XMLID_80_">
			<path id="XMLID_84_" class="st4" d="M99.8,241.6c-4.1,0-7.4-1.2-7.4-2.6v3.9h0c0.2,1.4,3.5,2.5,7.4,2.5c4,0,7.2-1.1,7.4-2.5h0
				V239C107.2,240.5,103.9,241.6,99.8,241.6z"/>
			<path id="XMLID_83_" class="st4" d="M92.3,238.8v0.2C92.3,239,92.3,238.9,92.3,238.8L92.3,238.8z"/>
			<path id="XMLID_81_" class="st4" d="M107.2,238.8c0,0.1,0,0.1,0,0.2L107.2,238.8L107.2,238.8z"/>
		</g>
		<g id="XMLID_76_">
			<path id="XMLID_79_" class="st4" d="M99.8,237.9c-4.1,0-7.4-1.2-7.4-2.6v3.9h0c0.2,1.4,3.5,2.5,7.4,2.5c4,0,7.2-1.1,7.4-2.5h0
				v-3.9C107.2,236.7,103.9,237.9,99.8,237.9z"/>
			<path id="XMLID_78_" class="st4" d="M92.3,235.1v0.2C92.3,235.2,92.3,235.2,92.3,235.1L92.3,235.1z"/>
			<path id="XMLID_77_" class="st4" d="M107.2,235.1c0,0.1,0,0.1,0,0.2L107.2,235.1L107.2,235.1z"/>
		</g>
		<ellipse id="XMLID_75_" class="st4" cx="99.8" cy="231.6" rx="7.4" ry="2.6"/>
		<g id="XMLID_71_">
			<path id="XMLID_74_" class="st4" d="M99.8,234.2c-4.1,0-7.4-1.2-7.4-2.6v3.9h0c0.2,1.4,3.5,2.5,7.4,2.5c4,0,7.2-1.1,7.4-2.5h0
				v-3.9C107.2,233,103.9,234.2,99.8,234.2z"/>
			<path id="XMLID_73_" class="st4" d="M92.3,231.4v0.2C92.3,231.5,92.3,231.4,92.3,231.4L92.3,231.4z"/>
			<path id="XMLID_72_" class="st4" d="M107.2,231.4c0,0.1,0,0.1,0,0.2L107.2,231.4L107.2,231.4z"/>
		</g>
	</g>
	<circle id="XMLID_268_" class="st1" cx="258.2" cy="303.5" r="15.5"/>
	<ellipse id="XMLID_267_" class="st3" cx="257.7" cy="303.6" rx="11.3" ry="11"/>
	<g id="XMLID_494_">
		<path id="XMLID_495_" d="M484.5,103.5c0.8,0,1.4-0.3,1.9-0.9l1,1.1c-0.8,0.9-1.8,1.4-2.9,1.4c-1.1,0-2-0.3-2.7-1
			c-0.7-0.7-1.1-1.6-1.1-2.6c0-1.1,0.4-1.9,1.1-2.7c0.7-0.7,1.6-1.1,2.7-1.1c1.2,0,2.2,0.4,2.9,1.3l-1,1.1c-0.5-0.6-1.1-0.9-1.9-0.9
			c-0.6,0-1.1,0.2-1.5,0.6c-0.4,0.4-0.6,0.9-0.6,1.6c0,0.7,0.2,1.2,0.6,1.6S484,103.5,484.5,103.5z"/>
		<path id="XMLID_497_" d="M492.1,102.4v-3h1.5v5.5h-1.5v-0.7c-0.4,0.5-0.9,0.8-1.5,0.8s-1.1-0.2-1.5-0.6s-0.6-0.9-0.6-1.7v-3.3h1.5
			v3c0,0.8,0.3,1.3,0.9,1.3c0.3,0,0.6-0.1,0.8-0.3C492,103.2,492.1,102.8,492.1,102.4z"/>
		<path id="XMLID_499_" d="M499.2,103.2c0,0.5-0.2,1-0.6,1.3c-0.4,0.3-0.9,0.5-1.5,0.5c-0.4,0-0.8-0.1-1.3-0.2s-0.8-0.4-1.2-0.6
			l0.7-1c0.6,0.4,1.2,0.7,1.8,0.7c0.2,0,0.4,0,0.5-0.1c0.1-0.1,0.2-0.2,0.2-0.3s-0.1-0.2-0.2-0.4c-0.2-0.1-0.4-0.2-0.7-0.3
			c-0.3-0.1-0.5-0.2-0.7-0.2c-0.2-0.1-0.3-0.2-0.5-0.3c-0.4-0.3-0.6-0.6-0.6-1.2s0.2-0.9,0.6-1.2c0.4-0.3,0.9-0.5,1.6-0.5
			c0.6,0,1.3,0.2,1.9,0.7l-0.6,1c-0.5-0.3-1-0.5-1.4-0.5s-0.7,0.1-0.7,0.4c0,0.1,0.1,0.3,0.2,0.3c0.1,0.1,0.4,0.2,0.7,0.3
			s0.6,0.2,0.7,0.3c0.1,0.1,0.3,0.1,0.5,0.3C499,102.3,499.2,102.7,499.2,103.2z"/>
		<path id="XMLID_501_" d="M502.2,100.6v2.5c0,0.2,0.1,0.4,0.2,0.5c0.1,0.1,0.2,0.2,0.4,0.2c0.3,0,0.5-0.1,0.7-0.4l0.6,1.1
			c-0.5,0.4-1,0.7-1.5,0.7s-1-0.2-1.3-0.5c-0.4-0.3-0.5-0.8-0.5-1.4v-2.5H500v-1.1h0.6v-1.6h1.5v1.6h1.3v1.1H502.2z"/>
		<path id="XMLID_503_" d="M510.3,102.2c0,0.8-0.3,1.5-0.8,2c-0.6,0.5-1.2,0.8-2.1,0.8c-0.8,0-1.5-0.3-2.1-0.8
			c-0.6-0.5-0.8-1.2-0.8-2c0-0.8,0.3-1.5,0.8-2c0.6-0.5,1.2-0.8,2.1-0.8c0.8,0,1.5,0.3,2.1,0.8C510,100.7,510.3,101.4,510.3,102.2z
			 M506,102.2c0,0.5,0.1,0.8,0.4,1.1c0.3,0.3,0.6,0.4,1,0.4c0.4,0,0.7-0.1,1-0.4c0.3-0.3,0.4-0.6,0.4-1.1c0-0.4-0.1-0.8-0.4-1.1
			c-0.3-0.3-0.6-0.4-1-0.4c-0.4,0-0.7,0.1-1,0.4C506.1,101.4,506,101.8,506,102.2z"/>
		<path id="XMLID_506_" d="M516.5,102v3h-1.5v-3c0-0.4-0.1-0.8-0.2-1s-0.3-0.3-0.6-0.3s-0.6,0.1-0.8,0.3c-0.2,0.2-0.3,0.5-0.3,1v3
			h-1.5v-5.5h1.5v0.6c0.4-0.5,0.9-0.7,1.5-0.7c0.3,0,0.7,0.1,0.9,0.3c0.3,0.2,0.5,0.5,0.6,0.7c0.2-0.3,0.5-0.6,0.9-0.8
			c0.4-0.2,0.7-0.3,1.1-0.3c0.6,0,1.2,0.2,1.6,0.6s0.6,0.9,0.6,1.7v3.3h-1.5v-3c0-0.8-0.3-1.3-0.9-1.3c-0.3,0-0.6,0.1-0.8,0.3
			C516.6,101.2,516.5,101.6,516.5,102z"/>
		<path id="XMLID_508_" d="M526.2,104.2c-0.6,0.6-1.3,0.9-2.2,0.9s-1.5-0.3-2.1-0.8c-0.5-0.5-0.8-1.2-0.8-2.1c0-0.9,0.3-1.6,0.8-2.1
			c0.6-0.5,1.2-0.8,2-0.8s1.4,0.2,1.9,0.7s0.8,1.1,0.8,1.9v0.8h-4c0,0.3,0.2,0.5,0.5,0.7c0.3,0.2,0.6,0.3,0.9,0.3
			c0.5,0,1-0.2,1.3-0.5L526.2,104.2z M524.8,100.9c-0.2-0.2-0.5-0.3-0.8-0.3c-0.3,0-0.6,0.1-0.8,0.3s-0.4,0.4-0.4,0.7h2.4
			C525.1,101.3,525,101.1,524.8,100.9z"/>
		<path id="XMLID_511_" d="M530.7,100.8c-0.5,0-0.8,0.2-1,0.5s-0.3,0.8-0.3,1.3v2.4h-1.5v-5.5h1.5v0.7c0.2-0.2,0.4-0.4,0.7-0.6
			c0.3-0.2,0.6-0.2,0.9-0.2l0,1.4H530.7z"/>
		<path id="XMLID_513_" d="M536.1,103.2c0,0.5-0.2,1-0.6,1.3c-0.4,0.3-0.9,0.5-1.5,0.5c-0.4,0-0.8-0.1-1.3-0.2s-0.8-0.4-1.2-0.6
			l0.7-1c0.6,0.4,1.2,0.7,1.8,0.7c0.2,0,0.4,0,0.5-0.1s0.2-0.2,0.2-0.3s-0.1-0.2-0.2-0.4s-0.4-0.2-0.7-0.3c-0.3-0.1-0.5-0.2-0.7-0.2
			c-0.2-0.1-0.3-0.2-0.5-0.3c-0.4-0.3-0.6-0.6-0.6-1.2s0.2-0.9,0.6-1.2s0.9-0.5,1.6-0.5c0.6,0,1.3,0.2,1.9,0.7l-0.6,1
			c-0.5-0.3-1-0.5-1.4-0.5c-0.5,0-0.7,0.1-0.7,0.4c0,0.1,0.1,0.3,0.2,0.3c0.2,0.1,0.4,0.2,0.7,0.3s0.6,0.2,0.7,0.3
			c0.1,0.1,0.3,0.1,0.5,0.3C535.9,102.3,536.1,102.7,536.1,103.2z"/>
	</g>
	<g id="XMLID_474_">
		<path id="XMLID_475_" d="M493.4,154.2c0.5,0.4,0.8,1.1,0.8,2c0,0.9-0.3,1.5-0.8,1.9s-1.3,0.6-2.4,0.6h-1v2h-1.6v-7.1h2.5
			C492.1,153.6,492.9,153.8,493.4,154.2z M492.2,157c0.2-0.2,0.3-0.5,0.3-0.9s-0.1-0.7-0.4-0.9c-0.2-0.2-0.6-0.3-1.2-0.3H490v2.4
			h1.1C491.6,157.4,492,157.3,492.2,157z"/>
		<path id="XMLID_478_" d="M499.8,160.7h-1.4v-0.7c-0.4,0.5-0.9,0.7-1.5,0.7s-1.1-0.2-1.5-0.5s-0.6-0.8-0.6-1.4s0.2-1,0.6-1.3
			c0.4-0.3,1-0.4,1.7-0.4h1.1v0c0-0.6-0.3-0.9-0.9-0.9c-0.3,0-0.5,0.1-0.8,0.2c-0.3,0.1-0.5,0.2-0.8,0.4l-0.7-1
			c0.7-0.5,1.5-0.8,2.5-0.8c0.7,0,1.2,0.2,1.6,0.5s0.6,0.9,0.6,1.6V160.7z M498.2,158.7v-0.3h-1c-0.6,0-0.9,0.2-0.9,0.6
			c0,0.2,0.1,0.3,0.2,0.5c0.1,0.1,0.4,0.2,0.6,0.2c0.3,0,0.5-0.1,0.7-0.3S498.2,158.9,498.2,158.7z"/>
		<path id="XMLID_481_" d="M504.1,156.6c-0.5,0-0.8,0.2-1,0.5s-0.3,0.8-0.3,1.3v2.4h-1.5v-5.5h1.5v0.7c0.2-0.2,0.4-0.4,0.7-0.6
			c0.3-0.2,0.6-0.2,0.9-0.2l0,1.4H504.1z"/>
		<path id="XMLID_483_" d="M507.2,156.3v2.5c0,0.2,0.1,0.4,0.2,0.5c0.1,0.1,0.2,0.2,0.4,0.2c0.3,0,0.5-0.1,0.7-0.4l0.6,1.1
			c-0.5,0.4-1,0.7-1.5,0.7s-1-0.2-1.3-0.5c-0.4-0.3-0.5-0.8-0.5-1.4v-2.5H505v-1.1h0.6v-1.6h1.5v1.6h1.3v1.1H507.2z"/>
		<path id="XMLID_485_" d="M511.4,157.7v3.1h-1.5v-5.5h1.5v0.6c0.5-0.5,1-0.7,1.6-0.7c0.6,0,1.1,0.2,1.5,0.6c0.4,0.4,0.6,1,0.6,1.6
			v3.3h-1.5v-3.1c0-0.8-0.3-1.3-0.9-1.3c-0.3,0-0.6,0.1-0.8,0.3S511.4,157.2,511.4,157.7z"/>
		<path id="XMLID_487_" d="M521.2,159.9c-0.6,0.6-1.3,0.9-2.2,0.9s-1.5-0.3-2.1-0.8c-0.5-0.5-0.8-1.2-0.8-2.1c0-0.9,0.3-1.6,0.8-2.1
			c0.6-0.5,1.2-0.8,2-0.8s1.4,0.2,1.9,0.7s0.8,1.1,0.8,1.9v0.8h-4c0,0.3,0.2,0.5,0.5,0.7c0.3,0.2,0.6,0.3,0.9,0.3
			c0.5,0,1-0.2,1.3-0.5L521.2,159.9z M519.7,156.7c-0.2-0.2-0.5-0.3-0.8-0.3c-0.3,0-0.6,0.1-0.8,0.3s-0.4,0.4-0.4,0.7h2.4
			C520.1,157.1,519.9,156.9,519.7,156.7z"/>
		<path id="XMLID_490_" d="M525.6,156.6c-0.5,0-0.8,0.2-1,0.5s-0.3,0.8-0.3,1.3v2.4h-1.5v-5.5h1.5v0.7c0.2-0.2,0.4-0.4,0.7-0.6
			c0.3-0.2,0.6-0.2,0.9-0.2l0,1.4H525.6z"/>
		<path id="XMLID_492_" d="M531,159c0,0.5-0.2,1-0.6,1.3c-0.4,0.3-0.9,0.5-1.5,0.5c-0.4,0-0.8-0.1-1.3-0.2s-0.8-0.4-1.2-0.6l0.7-1
			c0.6,0.4,1.2,0.7,1.8,0.7c0.2,0,0.4,0,0.5-0.1c0.1-0.1,0.2-0.2,0.2-0.3s-0.1-0.2-0.2-0.4c-0.2-0.1-0.4-0.2-0.7-0.3
			c-0.3-0.1-0.5-0.2-0.7-0.2c-0.2-0.1-0.3-0.2-0.5-0.3c-0.4-0.3-0.6-0.6-0.6-1.2s0.2-0.9,0.6-1.2c0.4-0.3,0.9-0.5,1.6-0.5
			c0.6,0,1.3,0.2,1.9,0.7l-0.6,1c-0.5-0.3-1-0.5-1.4-0.5s-0.7,0.1-0.7,0.4c0,0.1,0.1,0.3,0.2,0.3c0.1,0.1,0.4,0.2,0.7,0.3
			s0.6,0.2,0.7,0.3c0.1,0.1,0.3,0.1,0.5,0.3C530.9,158.1,531,158.5,531,159z"/>
	</g>
	<g id="XMLID_450_">
		<path id="XMLID_451_" d="M491.7,211.2c0.5,0.4,0.8,1.1,0.8,2c0,0.9-0.3,1.5-0.8,1.9s-1.3,0.6-2.4,0.6h-1v2h-1.6v-7.1h2.5
			C490.4,210.6,491.2,210.8,491.7,211.2z M490.5,214c0.2-0.2,0.3-0.5,0.3-0.9s-0.1-0.7-0.4-0.9c-0.2-0.2-0.6-0.3-1.2-0.3h-0.9v2.4
			h1.1C490,214.4,490.3,214.2,490.5,214z"/>
		<path id="XMLID_454_" d="M496.4,213.6c-0.5,0-0.8,0.2-1,0.5s-0.3,0.8-0.3,1.3v2.4h-1.5v-5.5h1.5v0.7c0.2-0.2,0.4-0.4,0.7-0.6
			c0.3-0.2,0.6-0.2,0.9-0.2l0,1.4H496.4z"/>
		<path id="XMLID_456_" d="M503.2,215c0,0.8-0.3,1.5-0.8,2c-0.6,0.5-1.2,0.8-2.1,0.8s-1.5-0.3-2.1-0.8s-0.8-1.2-0.8-2
			c0-0.8,0.3-1.5,0.8-2s1.2-0.8,2.1-0.8s1.5,0.3,2.1,0.8C502.9,213.5,503.2,214.2,503.2,215z M498.9,215c0,0.5,0.1,0.8,0.4,1.1
			c0.3,0.3,0.6,0.4,1,0.4c0.4,0,0.7-0.1,1-0.4c0.3-0.3,0.4-0.6,0.4-1.1c0-0.4-0.1-0.8-0.4-1.1c-0.3-0.3-0.6-0.4-1-0.4
			c-0.4,0-0.7,0.1-1,0.4C499,214.2,498.9,214.5,498.9,215z"/>
		<path id="XMLID_459_" d="M505.7,217.7l-2.2-5.5h1.6l1.4,3.5l1.4-3.5h1.6l-2.2,5.5H505.7z"/>
		<path id="XMLID_461_" d="M510.3,211.5c-0.2-0.2-0.3-0.4-0.3-0.6c0-0.3,0.1-0.5,0.3-0.6s0.4-0.3,0.6-0.3c0.3,0,0.5,0.1,0.6,0.3
			s0.3,0.4,0.3,0.6c0,0.3-0.1,0.5-0.3,0.6s-0.4,0.3-0.6,0.3C510.7,211.8,510.5,211.7,510.3,211.5z M511.7,217.7h-1.5v-5.5h1.5V217.7
			z"/>
		<path id="XMLID_464_" d="M515.4,217.8c-0.7,0-1.2-0.3-1.7-0.8c-0.5-0.6-0.8-1.2-0.8-2.1c0-0.8,0.2-1.5,0.7-2
			c0.5-0.5,1.1-0.8,1.7-0.8c0.7,0,1.2,0.2,1.6,0.7v-2.7h1.5v7.6H517V217C516.5,217.5,516,217.8,515.4,217.8z M514.4,215
			c0,0.4,0.1,0.8,0.4,1.1c0.3,0.3,0.6,0.4,0.9,0.4s0.7-0.1,0.9-0.4c0.2-0.3,0.4-0.6,0.4-1.1c0-0.4-0.1-0.8-0.4-1.1
			c-0.2-0.3-0.6-0.4-0.9-0.4c-0.4,0-0.7,0.1-0.9,0.4C514.5,214.2,514.4,214.5,514.4,215z"/>
		<path id="XMLID_467_" d="M524.7,216.9c-0.6,0.6-1.3,0.9-2.2,0.9c-0.8,0-1.5-0.3-2.1-0.8c-0.5-0.5-0.8-1.2-0.8-2.1
			c0-0.9,0.3-1.6,0.8-2.1c0.6-0.5,1.2-0.8,2-0.8s1.4,0.2,1.9,0.7s0.8,1.1,0.8,1.9v0.8h-4c0,0.3,0.2,0.5,0.5,0.7s0.6,0.3,0.9,0.3
			c0.5,0,1-0.2,1.3-0.5L524.7,216.9z M523.3,213.7c-0.2-0.2-0.5-0.3-0.8-0.3s-0.6,0.1-0.8,0.3c-0.3,0.2-0.4,0.4-0.4,0.7h2.4
			C523.6,214.1,523.5,213.8,523.3,213.7z"/>
		<path id="XMLID_470_" d="M529.2,213.6c-0.5,0-0.8,0.2-1,0.5c-0.2,0.3-0.3,0.8-0.3,1.3v2.4h-1.5v-5.5h1.5v0.7
			c0.2-0.2,0.4-0.4,0.7-0.6c0.3-0.2,0.6-0.2,0.9-0.2l0,1.4H529.2z"/>
		<path id="XMLID_472_" d="M534.6,216c0,0.5-0.2,1-0.6,1.3c-0.4,0.3-0.9,0.5-1.5,0.5c-0.4,0-0.8-0.1-1.3-0.2s-0.8-0.4-1.2-0.6l0.7-1
			c0.6,0.4,1.2,0.7,1.8,0.7c0.2,0,0.4,0,0.5-0.1c0.1-0.1,0.2-0.2,0.2-0.3s-0.1-0.2-0.2-0.4c-0.2-0.1-0.4-0.2-0.7-0.3
			c-0.3-0.1-0.5-0.2-0.7-0.2c-0.2-0.1-0.3-0.2-0.5-0.3c-0.4-0.3-0.6-0.6-0.6-1.2s0.2-0.9,0.6-1.2c0.4-0.3,0.9-0.5,1.6-0.5
			c0.6,0,1.3,0.2,1.9,0.7l-0.6,1c-0.5-0.3-1-0.5-1.4-0.5s-0.7,0.1-0.7,0.4c0,0.1,0.1,0.3,0.2,0.3c0.1,0.1,0.4,0.2,0.7,0.3
			s0.6,0.2,0.7,0.3c0.1,0.1,0.3,0.1,0.5,0.3C534.4,215.1,534.6,215.5,534.6,216z"/>
	</g>
	<circle id="XMLID_186_" class="st1" cx="507.8" cy="125.6" r="16.4"/>
	<circle id="XMLID_142_" class="st1" cx="507.4" cy="181.1" r="15.9"/>
	<circle id="XMLID_125_" class="st1" cx="507" cy="238.5" r="15.8"/>
	<circle id="XMLID_138_" class="st3" cx="508.1" cy="126" r="11.5"/>
	<g id="XMLID_2_">
		<path id="XMLID_6_" class="st4" d="M508.1,125.8c1.8,0,3.2-1.7,3.2-3.9c0-2.1-0.5-3.9-3.2-3.9s-3.2,1.7-3.2,3.9
			C504.9,124.1,506.4,125.8,508.1,125.8z"/>
		<path id="XMLID_5_" class="st4" d="M502.1,131.7C502.1,131.6,502.1,131.7,502.1,131.7L502.1,131.7z"/>
		<path id="XMLID_4_" class="st4" d="M514.2,131.8C514.2,131.8,514.2,131.6,514.2,131.8L514.2,131.8z"/>
		<path id="XMLID_3_" class="st4" d="M514.2,131.6c-0.1-3.7-0.5-4.8-4.3-5.5c0,0-0.5,0.7-1.8,0.7c-1.2,0-1.8-0.7-1.8-0.7
			c-3.7,0.7-4.2,1.7-4.3,5.4c0,0.3,0,0.3,0,0.3c0,0.1,0,0.2,0,0.4c0,0,0.9,1.8,6,1.8c5.1,0,6-1.8,6-1.8c0-0.1,0-0.2,0-0.3
			C514.2,131.9,514.2,131.8,514.2,131.6z"/>
	</g>
	<circle id="XMLID_130_" class="st3" cx="507.9" cy="181.1" r="11.5"/>
	<g id="XMLID_122_">
		<path id="XMLID_129_" class="st4" d="M507.9,180.9c1.8,0,3.2-1.7,3.2-3.9c0-2.1-0.5-3.9-3.2-3.9s-3.2,1.7-3.2,3.9
			C504.7,179.2,506.1,180.9,507.9,180.9z"/>
		<path id="XMLID_128_" class="st4" d="M501.9,186.8C501.9,186.7,501.9,186.8,501.9,186.8L501.9,186.8z"/>
		<path id="XMLID_127_" class="st4" d="M513.9,186.9C513.9,186.9,513.9,186.7,513.9,186.9L513.9,186.9z"/>
		<path id="XMLID_126_" class="st4" d="M513.9,186.7c-0.1-3.7-0.5-4.8-4.3-5.5c0,0-0.5,0.7-1.8,0.7c-1.2,0-1.8-0.7-1.8-0.7
			c-3.7,0.7-4.2,1.7-4.3,5.4c0,0.3,0,0.3,0,0.3c0,0.1,0,0.2,0,0.4c0,0,0.9,1.8,6,1.8c5.1,0,6-1.8,6-1.8c0-0.1,0-0.2,0-0.3
			C513.9,187,513.9,186.9,513.9,186.7z"/>
	</g>
	<circle id="XMLID_140_" class="st3" cx="507.1" cy="239.1" r="11.5"/>
	<g id="XMLID_131_">
		<path id="XMLID_139_" class="st4" d="M507.1,238.9c1.8,0,3.2-1.7,3.2-3.9c0-2.1-0.5-3.9-3.2-3.9s-3.2,1.7-3.2,3.9
			C503.9,237.1,505.4,238.9,507.1,238.9z"/>
		<path id="XMLID_134_" class="st4" d="M501.1,244.8C501.1,244.7,501.1,244.8,501.1,244.8L501.1,244.8z"/>
		<path id="XMLID_133_" class="st4" d="M513.2,244.9C513.2,244.9,513.2,244.7,513.2,244.9L513.2,244.9z"/>
		<path id="XMLID_132_" class="st4" d="M513.2,244.7c-0.1-3.7-0.5-4.8-4.3-5.5c0,0-0.5,0.7-1.8,0.7c-1.2,0-1.8-0.7-1.8-0.7
			c-3.7,0.7-4.2,1.7-4.3,5.4c0,0.3,0,0.3,0,0.3c0,0.1,0,0.2,0,0.4c0,0,0.9,1.8,6,1.8c5.1,0,6-1.8,6-1.8c0-0.1,0-0.2,0-0.3
			C513.2,244.9,513.2,244.9,513.2,244.7z"/>
	</g>
	<g id="XMLID_149_">
		<g id="XMLID_150_">
			<g id="XMLID_151_">
				<path id="XMLID_157_" class="st5" d="M257.3,306.2L257,308c0,0.1,0,0.2,0.1,0.2c0.1,0.1,0.2,0.1,0.3,0.1h1.4
					c0.1,0,0.2,0,0.3-0.1s0.1-0.2,0.1-0.2l-0.2-1.8c0.3-0.2,0.6-0.6,0.6-1c0-0.7-0.6-1.3-1.4-1.3s-1.4,0.6-1.4,1.3
					C256.7,305.6,256.9,305.9,257.3,306.2z M258.1,304.5c0.4,0,0.7,0.3,0.7,0.6c0,0.2-0.1,0.5-0.4,0.6c-0.1,0.1-0.2,0.2-0.2,0.3
					l0.2,1.7h-0.6l0.2-1.7c0-0.1-0.1-0.3-0.2-0.3c-0.2-0.1-0.4-0.3-0.4-0.6C257.4,304.8,257.7,304.5,258.1,304.5z"/>
				<path id="XMLID_152_" class="st5" d="M263.8,301.3h-1V300c0-2.5-2.1-4.5-4.8-4.5s-4.8,2-4.8,4.5v1.3h-1c-0.2,0-0.3,0.1-0.3,0.3
					v8c0,0.7,0.6,1.3,1.4,1.3h9.5c0.8,0,1.4-0.6,1.4-1.3v-8C264.2,301.4,264,301.3,263.8,301.3z M254,300c0-2.1,1.8-3.9,4.1-3.9
					c2.2,0,4.1,1.7,4.1,3.9v1.3h-0.7V300c0-1.8-1.5-3.2-3.4-3.2s-3.4,1.4-3.4,3.2v1.3H254V300z M260.8,300v1.3h-5.4V300
					c0-1.4,1.2-2.6,2.7-2.6S260.8,298.6,260.8,300z M263.5,309.7c0,0.4-0.3,0.6-0.7,0.6h-9.5c-0.4,0-0.7-0.3-0.7-0.6v-7.7h10.9
					V309.7z"/>
			</g>
		</g>
	</g>
	<line id="XMLID_148_" class="st1" x1="305.2" y1="277.8" x2="305.2" y2="260.8"/>
	<g id="XMLID_378_">
		<path id="XMLID_379_" d="M211.9,344.3c-0.2,0.2-0.3,0.4-0.3,0.7c0,0.3,0.1,0.5,0.4,0.7c0.3,0.2,0.8,0.4,1.8,0.6s1.6,0.6,2.2,1
			s0.8,1.1,0.8,2s-0.3,1.6-1,2.1s-1.5,0.8-2.6,0.8c-1.5,0-2.9-0.6-4.2-1.7l1.3-1.6c1.1,0.9,2,1.4,2.9,1.4c0.4,0,0.7-0.1,0.9-0.3
			s0.3-0.4,0.3-0.7s-0.1-0.5-0.4-0.7c-0.2-0.2-0.7-0.3-1.4-0.5c-1.1-0.3-2-0.6-2.5-1.1c-0.5-0.4-0.8-1.1-0.8-2c0-0.9,0.3-1.6,1-2.1
			s1.5-0.8,2.5-0.8c0.7,0,1.3,0.1,2,0.3c0.7,0.2,1.2,0.5,1.7,1l-1.1,1.6c-0.8-0.6-1.7-1-2.6-1C212.4,344,212.1,344.1,211.9,344.3z"
			/>
		<path id="XMLID_381_" d="M224.9,351c-0.8,0.8-1.8,1.2-3,1.2c-1.1,0-2.1-0.4-2.8-1.1c-0.7-0.7-1.1-1.6-1.1-2.8
			c0-1.2,0.4-2.1,1.1-2.8c0.8-0.7,1.7-1,2.7-1s1.9,0.3,2.6,0.9s1.1,1.5,1.1,2.6v1.1H220c0.1,0.4,0.3,0.7,0.6,1
			c0.4,0.3,0.8,0.4,1.2,0.4c0.7,0,1.3-0.2,1.8-0.7L224.9,351z M222.9,346.6c-0.3-0.2-0.6-0.4-1.1-0.4c-0.4,0-0.8,0.1-1.1,0.4
			c-0.3,0.3-0.5,0.6-0.6,1h3.3C223.3,347.2,223.2,346.8,222.9,346.6z"/>
		<path id="XMLID_384_" d="M230.6,350.4c0.7,0,1.3-0.3,1.9-1l1.2,1.4c-1,1-2,1.5-3.2,1.5s-2.1-0.4-2.9-1.1s-1.2-1.6-1.2-2.8
			s0.4-2.1,1.2-2.8c0.8-0.7,1.7-1.1,2.8-1.1c0.5,0,1.1,0.1,1.6,0.3c0.6,0.2,1,0.6,1.5,1l-1.1,1.4c-0.2-0.3-0.5-0.5-0.9-0.7
			c-0.3-0.2-0.7-0.2-1-0.2c-0.6,0-1,0.2-1.4,0.5c-0.4,0.4-0.6,0.9-0.6,1.5c0,0.6,0.2,1.1,0.6,1.5
			C229.6,350.2,230.1,350.4,230.6,350.4z"/>
		<path id="XMLID_403_" d="M240,348.7v-4.1h2.1v7.5H240v-1c-0.5,0.7-1.2,1.1-2,1.1s-1.5-0.3-2.1-0.8s-0.8-1.3-0.8-2.3v-4.6h2.1v4.1
			c0,1.2,0.4,1.7,1.3,1.7c0.4,0,0.8-0.2,1.1-0.5C239.9,349.7,240,349.2,240,348.7z"/>
		<path id="XMLID_405_" d="M248.1,346.5c-0.6,0-1.1,0.2-1.4,0.7c-0.3,0.4-0.5,1-0.5,1.8v3.3h-2.1v-7.5h2.1v1c0.3-0.3,0.6-0.6,1-0.8
			c0.4-0.2,0.8-0.3,1.2-0.3l0,2H248.1z"/>
		<path id="XMLID_407_" d="M250,343.6c-0.2-0.2-0.4-0.5-0.4-0.9c0-0.3,0.1-0.6,0.4-0.9c0.2-0.2,0.5-0.4,0.9-0.4s0.6,0.1,0.9,0.4
			c0.2,0.2,0.4,0.5,0.4,0.9c0,0.3-0.1,0.6-0.4,0.9c-0.2,0.2-0.5,0.4-0.9,0.4S250.3,343.9,250,343.6z M252,352.1h-2.1v-7.5h2.1V352.1
			z"/>
		<path id="XMLID_410_" d="M256.5,346.1v3.4c0,0.3,0.1,0.5,0.2,0.7s0.3,0.2,0.5,0.2c0.4,0,0.7-0.2,1-0.5l0.8,1.5
			c-0.7,0.6-1.3,0.9-2.1,0.9s-1.3-0.2-1.8-0.7c-0.5-0.5-0.7-1.1-0.7-1.9v-3.5h-0.9v-1.5h0.9v-2.3h2.1v2.3h1.8v1.5H256.5z"/>
		<path id="XMLID_412_" d="M261.4,355.1c-0.7,0-1.4-0.3-2.1-0.9l1-1.6c0.4,0.3,0.7,0.5,1.1,0.5c0.2,0,0.4-0.1,0.5-0.3
			c0.1-0.2,0.2-0.4,0.2-0.6c0-0.2-1-2.8-2.9-7.7h2.2l1.8,4.7l1.8-4.7h2.2l-3.5,8.9c-0.2,0.5-0.5,0.9-1,1.2
			C262.4,355,261.9,355.1,261.4,355.1z"/>
		<path id="XMLID_414_" d="M281.7,351.3c-0.8,0.6-1.7,1-2.7,1c-1,0-1.9-0.3-2.5-0.8c-0.7-0.5-1-1.2-1-2.2c0-1,0.7-1.9,2.1-2.7
			c-0.3-0.4-0.5-0.7-0.7-1c-0.1-0.3-0.2-0.6-0.2-1c0-0.8,0.3-1.4,0.9-1.8c0.6-0.4,1.3-0.6,2-0.6c0.8,0,1.5,0.2,2,0.6
			c0.6,0.4,0.8,1,0.8,1.7c0,0.9-0.7,1.8-2,2.5c0.5,0.7,0.9,1.1,1.2,1.4c0.2-0.4,0.4-0.9,0.5-1.4l1.6,1.2c-0.2,0.6-0.5,1.1-0.8,1.6
			l1.4,1.4l-1.4,1.3L281.7,351.3z M277.9,350.2c0.3,0.2,0.6,0.3,1,0.3c0.4,0,0.9-0.2,1.4-0.6c-0.7-0.7-1.3-1.4-1.8-2
			c-0.7,0.4-1.1,0.9-1.1,1.4C277.5,349.7,277.7,350,277.9,350.2z M279.5,343.8c-0.2,0-0.4,0.1-0.6,0.2s-0.2,0.3-0.2,0.6
			s0.2,0.6,0.6,1.1c0.7-0.4,1-0.7,1-1c0-0.3-0.1-0.5-0.3-0.6C279.9,343.8,279.7,343.8,279.5,343.8z"/>
		<path id="XMLID_418_" d="M296.4,352.1l-0.9-2.1h-4.1l-0.9,2.1h-2.3l4.2-9.8h2.1l4.2,9.8H296.4z M293.5,345.3l-1.2,2.8h2.5
			L293.5,345.3z"/>
		<path id="XMLID_421_" d="M303.3,350.4c0.7,0,1.3-0.3,1.9-1l1.2,1.4c-1,1-2,1.5-3.2,1.5s-2.1-0.4-2.9-1.1s-1.2-1.6-1.2-2.8
			s0.4-2.1,1.2-2.8c0.8-0.7,1.7-1.1,2.8-1.1c0.5,0,1.1,0.1,1.6,0.3c0.6,0.2,1,0.6,1.5,1l-1.1,1.4c-0.2-0.3-0.5-0.5-0.9-0.7
			c-0.3-0.2-0.7-0.2-1-0.2c-0.6,0-1,0.2-1.4,0.5c-0.4,0.4-0.6,0.9-0.6,1.5c0,0.6,0.2,1.1,0.6,1.5
			C302.3,350.2,302.8,350.4,303.3,350.4z"/>
		<path id="XMLID_423_" d="M311.5,350.4c0.7,0,1.3-0.3,1.9-1l1.2,1.4c-1,1-2,1.5-3.2,1.5s-2.1-0.4-2.9-1.1s-1.2-1.6-1.2-2.8
			s0.4-2.1,1.2-2.8c0.8-0.7,1.7-1.1,2.8-1.1c0.5,0,1.1,0.1,1.6,0.3c0.6,0.2,1,0.6,1.5,1l-1.1,1.4c-0.2-0.3-0.5-0.5-0.9-0.7
			c-0.3-0.2-0.7-0.2-1-0.2c-0.6,0-1,0.2-1.4,0.5c-0.4,0.4-0.6,0.9-0.6,1.5c0,0.6,0.2,1.1,0.6,1.5
			C310.5,350.2,310.9,350.4,311.5,350.4z"/>
		<path id="XMLID_425_" d="M322.5,351c-0.8,0.8-1.8,1.2-3,1.2c-1.1,0-2.1-0.4-2.8-1.1c-0.7-0.7-1.1-1.6-1.1-2.8
			c0-1.2,0.4-2.1,1.1-2.8c0.8-0.7,1.7-1,2.7-1s1.9,0.3,2.6,0.9s1.1,1.5,1.1,2.6v1.1h-5.5c0.1,0.4,0.3,0.7,0.6,1
			c0.4,0.3,0.8,0.4,1.2,0.4c0.7,0,1.3-0.2,1.8-0.7L322.5,351z M320.5,346.6c-0.3-0.2-0.6-0.4-1.1-0.4c-0.4,0-0.8,0.1-1.1,0.4
			c-0.3,0.3-0.5,0.6-0.6,1h3.3C321,347.2,320.8,346.8,320.5,346.6z"/>
		<path id="XMLID_428_" d="M330.3,349.8c0,0.7-0.3,1.3-0.8,1.8c-0.5,0.4-1.2,0.7-2.1,0.7c-0.6,0-1.1-0.1-1.8-0.3
			c-0.6-0.2-1.2-0.5-1.6-0.9l0.9-1.3c0.8,0.6,1.6,0.9,2.5,0.9c0.3,0,0.5-0.1,0.6-0.2c0.2-0.1,0.2-0.3,0.2-0.4c0-0.2-0.1-0.3-0.3-0.5
			c-0.2-0.1-0.5-0.3-1-0.4c-0.4-0.1-0.7-0.2-1-0.3c-0.2-0.1-0.5-0.2-0.7-0.4c-0.6-0.4-0.9-0.9-0.9-1.6s0.3-1.3,0.8-1.7
			c0.6-0.4,1.3-0.7,2.2-0.7s1.8,0.3,2.7,0.9l-0.8,1.4c-0.7-0.4-1.3-0.7-2-0.7s-1,0.2-1,0.5c0,0.2,0.1,0.3,0.3,0.5s0.5,0.2,1,0.4
			c0.5,0.1,0.8,0.3,1,0.3c0.2,0.1,0.4,0.2,0.7,0.4C330,348.5,330.3,349,330.3,349.8z"/>
		<path id="XMLID_430_" d="M337.6,349.8c0,0.7-0.3,1.3-0.8,1.8c-0.5,0.4-1.2,0.7-2.1,0.7c-0.6,0-1.1-0.1-1.8-0.3
			c-0.6-0.2-1.2-0.5-1.6-0.9l0.9-1.3c0.8,0.6,1.6,0.9,2.5,0.9c0.3,0,0.5-0.1,0.6-0.2c0.2-0.1,0.2-0.3,0.2-0.4c0-0.2-0.1-0.3-0.3-0.5
			c-0.2-0.1-0.5-0.3-1-0.4c-0.4-0.1-0.7-0.2-1-0.3c-0.2-0.1-0.5-0.2-0.7-0.4c-0.6-0.4-0.9-0.9-0.9-1.6s0.3-1.3,0.8-1.7
			c0.6-0.4,1.3-0.7,2.2-0.7s1.8,0.3,2.7,0.9l-0.8,1.4c-0.7-0.4-1.3-0.7-2-0.7s-1,0.2-1,0.5c0,0.2,0.1,0.3,0.3,0.5s0.5,0.2,1,0.4
			c0.5,0.1,0.8,0.3,1,0.3c0.2,0.1,0.4,0.2,0.7,0.4C337.3,348.5,337.6,349,337.6,349.8z"/>
		<path id="XMLID_432_" d="M347.6,350.2c1.1,0,2-0.4,2.6-1.3l1.4,1.4c-1.1,1.3-2.4,1.9-3.9,1.9c-1.5,0-2.7-0.5-3.7-1.4
			c-1-1-1.5-2.2-1.5-3.6s0.5-2.7,1.5-3.6c1-1,2.2-1.5,3.6-1.5c1.6,0,2.9,0.6,4,1.8l-1.4,1.5c-0.7-0.9-1.5-1.3-2.6-1.3
			c-0.8,0-1.5,0.3-2.1,0.8c-0.6,0.5-0.9,1.3-0.9,2.2s0.3,1.6,0.8,2.2S346.8,350.2,347.6,350.2z"/>
		<path id="XMLID_434_" d="M360.4,348.4c0,1.1-0.4,2-1.1,2.8c-0.8,0.7-1.7,1.1-2.8,1.1s-2.1-0.4-2.8-1.1s-1.1-1.7-1.1-2.8
			c0-1.1,0.4-2,1.1-2.8c0.8-0.8,1.7-1.1,2.8-1.1s2.1,0.4,2.8,1.1C360,346.4,360.4,347.3,360.4,348.4z M354.5,348.4
			c0,0.6,0.2,1.1,0.5,1.5c0.3,0.4,0.8,0.6,1.3,0.6s1-0.2,1.3-0.6c0.4-0.4,0.5-0.9,0.5-1.5c0-0.6-0.2-1.1-0.5-1.5
			c-0.3-0.4-0.8-0.6-1.3-0.6s-1,0.2-1.3,0.6C354.7,347.3,354.5,347.8,354.5,348.4z"/>
		<path id="XMLID_437_" d="M364,347.9v4.2h-2.1v-7.5h2.1v0.8c0.6-0.6,1.3-1,2.1-1c0.8,0,1.5,0.3,2,0.8c0.5,0.6,0.8,1.3,0.8,2.2v4.6
			h-2.1v-4.3c0-1.2-0.4-1.7-1.3-1.7c-0.4,0-0.8,0.2-1.1,0.5C364.2,346.9,364,347.3,364,347.9z"/>
		<path id="XMLID_439_" d="M373.3,346.1v3.4c0,0.3,0.1,0.5,0.2,0.7s0.3,0.2,0.5,0.2c0.4,0,0.7-0.2,1-0.5l0.8,1.5
			c-0.7,0.6-1.3,0.9-2.1,0.9s-1.3-0.2-1.8-0.7c-0.5-0.5-0.7-1.1-0.7-1.9v-3.5h-0.9v-1.5h0.9v-2.3h2.1v2.3h1.8v1.5H373.3z"/>
		<path id="XMLID_441_" d="M380.9,346.5c-0.6,0-1.1,0.2-1.4,0.7c-0.3,0.4-0.5,1-0.5,1.8v3.3h-2.1v-7.5h2.1v1c0.3-0.3,0.6-0.6,1-0.8
			c0.4-0.2,0.8-0.3,1.2-0.3l0,2H380.9z"/>
		<path id="XMLID_443_" d="M390.1,348.4c0,1.1-0.4,2-1.1,2.8c-0.8,0.7-1.7,1.1-2.8,1.1s-2.1-0.4-2.8-1.1s-1.1-1.7-1.1-2.8
			c0-1.1,0.4-2,1.1-2.8c0.8-0.8,1.7-1.1,2.8-1.1s2.1,0.4,2.8,1.1C389.7,346.4,390.1,347.3,390.1,348.4z M384.3,348.4
			c0,0.6,0.2,1.1,0.5,1.5c0.3,0.4,0.8,0.6,1.3,0.6s1-0.2,1.3-0.6c0.4-0.4,0.5-0.9,0.5-1.5c0-0.6-0.2-1.1-0.5-1.5
			c-0.3-0.4-0.8-0.6-1.3-0.6s-1,0.2-1.3,0.6C384.4,347.3,384.3,347.8,384.3,348.4z"/>
		<path id="XMLID_446_" d="M393.8,352.1h-2.1v-10.4h2.1V352.1z"/>
		<path id="XMLID_448_" d="M401.4,349.8c0,0.7-0.3,1.3-0.8,1.8c-0.5,0.4-1.2,0.7-2.1,0.7c-0.6,0-1.1-0.1-1.8-0.3
			c-0.6-0.2-1.2-0.5-1.6-0.9l0.9-1.3c0.8,0.6,1.6,0.9,2.5,0.9c0.3,0,0.5-0.1,0.6-0.2c0.2-0.1,0.2-0.3,0.2-0.4c0-0.2-0.1-0.3-0.3-0.5
			c-0.2-0.1-0.5-0.3-1-0.4c-0.4-0.1-0.7-0.2-1-0.3c-0.2-0.1-0.5-0.2-0.7-0.4c-0.6-0.4-0.9-0.9-0.9-1.6s0.3-1.3,0.8-1.7
			c0.6-0.4,1.3-0.7,2.2-0.7s1.8,0.3,2.7,0.9l-0.8,1.4c-0.7-0.4-1.3-0.7-2-0.7s-1,0.2-1,0.5c0,0.2,0.1,0.3,0.3,0.5s0.5,0.2,1,0.4
			c0.5,0.1,0.8,0.3,1,0.3c0.2,0.1,0.4,0.2,0.7,0.4C401.2,348.5,401.4,349,401.4,349.8z"/>
	</g>
	<path id="XMLID_143_" class="st6" d="M384.4,115.4H224.6c-6.3,0-11.4-5.1-11.4-11.4v-4.5c0-6.3,5.1-11.4,11.4-11.4h159.8
		c6.3,0,11.4,5.1,11.4,11.4v4.5C395.8,110.3,390.7,115.4,384.4,115.4z"/>
	<rect id="XMLID_144_" x="213.5" y="103.1" class="st6" width="182.6" height="12.3"/>
	<g id="XMLID_345_">
		<path id="XMLID_346_" d="M270.4,165.6v1.9h-4.9v2h4.4v1.9h-4.4v2h5v1.9h-7.2v-9.8H270.4z"/>
		<path id="XMLID_348_" d="M274.2,167.8l1.3,2l1.3-2h2.5l-2.6,3.7l2.7,3.9h-2.5l-1.5-2.1l-1.4,2.1h-2.4l2.6-3.8l-2.5-3.7H274.2z"/>
		<path id="XMLID_350_" d="M284.9,167.7c0.9,0,1.7,0.4,2.3,1.1c0.7,0.7,1,1.7,1,2.8s-0.3,2-1,2.8c-0.7,0.7-1.5,1.1-2.4,1.1
			c-0.9,0-1.7-0.4-2.2-1.1v3.7h-2.1v-10.2h2.1v0.8C283.3,168,284,167.7,284.9,167.7z M282.6,171.6c0,0.6,0.2,1.1,0.5,1.5
			c0.3,0.4,0.8,0.6,1.2,0.6c0.5,0,0.9-0.2,1.3-0.6c0.4-0.4,0.5-0.9,0.5-1.5c0-0.6-0.2-1.1-0.5-1.5c-0.4-0.4-0.8-0.6-1.3-0.6
			c-0.5,0-0.9,0.2-1.3,0.6C282.8,170.5,282.6,171,282.6,171.6z"/>
		<path id="XMLID_353_" d="M291.9,175.4h-2.1V165h2.1V175.4z"/>
		<path id="XMLID_355_" d="M301.5,171.6c0,1.1-0.4,2-1.1,2.8c-0.8,0.7-1.7,1.1-2.8,1.1s-2.1-0.4-2.8-1.1s-1.1-1.7-1.1-2.8
			c0-1.1,0.4-2,1.1-2.8c0.8-0.8,1.7-1.1,2.8-1.1s2.1,0.4,2.8,1.1C301.1,169.6,301.5,170.5,301.5,171.6z M295.6,171.6
			c0,0.6,0.2,1.1,0.5,1.5c0.3,0.4,0.8,0.6,1.3,0.6s1-0.2,1.3-0.6c0.4-0.4,0.5-0.9,0.5-1.5c0-0.6-0.2-1.1-0.5-1.5
			c-0.3-0.4-0.8-0.6-1.3-0.6s-1,0.2-1.3,0.6C295.8,170.5,295.6,171,295.6,171.6z"/>
		<path id="XMLID_358_" d="M307,169.7c-0.6,0-1.1,0.2-1.4,0.7c-0.3,0.4-0.5,1-0.5,1.8v3.3H303v-7.5h2.1v1c0.3-0.3,0.6-0.6,1-0.8
			c0.4-0.2,0.8-0.3,1.2-0.3l0,2H307z"/>
		<path id="XMLID_360_" d="M315.3,174.3c-0.8,0.8-1.8,1.2-3,1.2c-1.1,0-2.1-0.4-2.8-1.1c-0.7-0.7-1.1-1.6-1.1-2.8
			c0-1.2,0.4-2.1,1.1-2.8c0.8-0.7,1.7-1.1,2.7-1.1s1.9,0.3,2.6,0.9c0.7,0.6,1.1,1.5,1.1,2.6v1.1h-5.5c0.1,0.4,0.3,0.7,0.6,1
			c0.4,0.3,0.8,0.4,1.2,0.4c0.7,0,1.3-0.2,1.8-0.7L315.3,174.3z M313.3,169.8c-0.3-0.2-0.6-0.4-1.1-0.4c-0.4,0-0.8,0.1-1.1,0.4
			c-0.3,0.3-0.5,0.6-0.6,1h3.3C313.7,170.4,313.6,170,313.3,169.8z"/>
		<path id="XMLID_364_" d="M328.8,166.9c0.9,0.9,1.4,2,1.4,3.6s-0.5,2.7-1.4,3.6s-2.3,1.3-4.2,1.3h-3.3v-9.8h3.5
			C326.5,165.6,327.9,166,328.8,166.9z M327.2,172.7c0.5-0.5,0.8-1.2,0.8-2.2c0-1-0.3-1.7-0.8-2.2c-0.5-0.5-1.4-0.8-2.5-0.8h-1.2
			v5.9h1.4C325.9,173.4,326.7,173.2,327.2,172.7z"/>
		<path id="XMLID_370_" d="M338.2,175.4h-2v-0.9c-0.5,0.7-1.2,1-2,1s-1.5-0.2-2-0.7c-0.5-0.5-0.8-1.1-0.8-1.8s0.3-1.3,0.8-1.7
			c0.6-0.4,1.3-0.6,2.3-0.6h1.6v0c0-0.8-0.4-1.2-1.3-1.2c-0.4,0-0.7,0.1-1.2,0.2c-0.4,0.1-0.7,0.3-1,0.5l-0.9-1.4
			c1-0.7,2.1-1.1,3.4-1.1c0.9,0,1.7,0.2,2.2,0.7c0.6,0.5,0.9,1.2,0.9,2.2V175.4z M336.1,172.5v-0.4h-1.3c-0.8,0-1.3,0.3-1.3,0.8
			c0,0.3,0.1,0.5,0.3,0.6c0.2,0.1,0.5,0.2,0.9,0.2c0.4,0,0.7-0.1,1-0.3C335.9,173.2,336.1,172.9,336.1,172.5z"/>
		<path id="XMLID_373_" d="M342.5,169.3v3.4c0,0.3,0.1,0.5,0.2,0.7c0.1,0.2,0.3,0.2,0.5,0.2c0.4,0,0.7-0.2,1-0.5l0.8,1.5
			c-0.7,0.6-1.3,0.9-2.1,0.9s-1.3-0.2-1.8-0.7s-0.7-1.1-0.7-1.9v-3.5h-0.9v-1.5h0.9v-2.3h2.1v2.3h1.8v1.5H342.5z"/>
		<path id="XMLID_375_" d="M352.6,175.4h-2v-0.9c-0.5,0.7-1.2,1-2,1s-1.5-0.2-2-0.7c-0.5-0.5-0.8-1.1-0.8-1.8s0.3-1.3,0.8-1.7
			c0.6-0.4,1.3-0.6,2.3-0.6h1.6v0c0-0.8-0.4-1.2-1.3-1.2c-0.4,0-0.7,0.1-1.2,0.2c-0.4,0.1-0.7,0.3-1,0.5l-0.9-1.4
			c1-0.7,2.1-1.1,3.4-1.1c0.9,0,1.7,0.2,2.2,0.7c0.6,0.5,0.9,1.2,0.9,2.2V175.4z M350.5,172.5v-0.4h-1.3c-0.8,0-1.3,0.3-1.3,0.8
			c0,0.3,0.1,0.5,0.3,0.6c0.2,0.1,0.5,0.2,0.9,0.2c0.4,0,0.7-0.1,1-0.3C350.3,173.2,350.5,172.9,350.5,172.5z"/>
	</g>
	<g id="XMLID_308_">
		<path id="XMLID_309_" d="M50.2,75.4H48v-3.9l-3.4-5.9H47l2.1,3.6l2.1-3.6h2.4l-3.4,5.9V75.4z"/>
		<path id="XMLID_311_" d="M61.2,71.6c0,1.1-0.4,2-1.1,2.8s-1.7,1.1-2.8,1.1c-1.1,0-2.1-0.4-2.8-1.1c-0.8-0.7-1.1-1.7-1.1-2.8
			c0-1.1,0.4-2,1.1-2.8c0.8-0.8,1.7-1.1,2.8-1.1c1.1,0,2.1,0.4,2.8,1.1C60.8,69.6,61.2,70.6,61.2,71.6z M55.4,71.6
			c0,0.6,0.2,1.1,0.5,1.5c0.3,0.4,0.8,0.6,1.3,0.6s1-0.2,1.3-0.6c0.3-0.4,0.5-0.9,0.5-1.5c0-0.6-0.2-1.1-0.5-1.5
			c-0.4-0.4-0.8-0.6-1.3-0.6s-1,0.2-1.3,0.6C55.5,70.5,55.4,71,55.4,71.6z"/>
		<path id="XMLID_314_" d="M67.6,71.9v-4.1h2.1v7.5h-2.1v-1c-0.5,0.7-1.2,1.1-2,1.1c-0.8,0-1.5-0.3-2.1-0.8
			c-0.6-0.5-0.8-1.3-0.8-2.3v-4.6h2.1V72c0,1.2,0.4,1.7,1.3,1.7c0.4,0,0.8-0.2,1.1-0.5S67.6,72.5,67.6,71.9z"/>
		<path id="XMLID_316_" d="M75.7,69.7c-0.6,0-1.1,0.2-1.4,0.7c-0.3,0.4-0.5,1-0.5,1.8v3.3h-2.1v-7.5h2.1v1c0.3-0.3,0.6-0.6,1-0.8
			c0.4-0.2,0.8-0.3,1.2-0.3l0,2H75.7z"/>
		<path id="XMLID_318_" d="M84.2,75.5c-0.9,0-1.7-0.4-2.4-1.1s-1-1.7-1-2.8s0.3-2,1-2.8c0.7-0.7,1.5-1.1,2.4-1.1
			c0.9,0,1.7,0.3,2.2,1V65h2.1v10.4h-2.1v-1C85.8,75.2,85.1,75.5,84.2,75.5z M82.9,71.7c0,0.6,0.2,1.1,0.5,1.5
			c0.4,0.4,0.8,0.6,1.3,0.6s0.9-0.2,1.2-0.6c0.3-0.4,0.5-0.9,0.5-1.5s-0.2-1.1-0.5-1.5c-0.3-0.4-0.8-0.6-1.3-0.6
			c-0.5,0-0.9,0.2-1.3,0.6C83,70.5,82.9,71.1,82.9,71.7z"/>
		<path id="XMLID_321_" d="M96.9,75.4h-2v-0.9c-0.5,0.7-1.2,1-2,1c-0.8,0-1.5-0.2-2-0.7s-0.8-1.1-0.8-1.8s0.3-1.3,0.8-1.7
			c0.6-0.4,1.3-0.6,2.3-0.6h1.6v0c0-0.8-0.4-1.2-1.3-1.2c-0.4,0-0.7,0.1-1.2,0.2c-0.4,0.1-0.7,0.3-1,0.5l-0.9-1.4
			c1-0.7,2.1-1.1,3.4-1.1c0.9,0,1.7,0.2,2.2,0.7c0.6,0.5,0.9,1.2,0.9,2.2V75.4z M94.8,72.5v-0.4h-1.3c-0.8,0-1.3,0.3-1.3,0.8
			c0,0.3,0.1,0.5,0.3,0.6c0.2,0.1,0.5,0.2,0.9,0.2c0.4,0,0.7-0.1,1-0.3C94.6,73.2,94.8,72.9,94.8,72.5z"/>
		<path id="XMLID_324_" d="M101.2,69.4v3.4c0,0.3,0.1,0.5,0.2,0.7c0.1,0.2,0.3,0.2,0.5,0.2c0.4,0,0.7-0.2,1-0.5l0.8,1.5
			c-0.7,0.6-1.3,0.9-2.1,0.9c-0.7,0-1.3-0.2-1.8-0.7c-0.5-0.5-0.7-1.1-0.7-1.9v-3.5h-0.9v-1.5h0.9v-2.3h2.1v2.3h1.8v1.5H101.2z"/>
		<path id="XMLID_326_" d="M111.3,75.4h-2v-0.9c-0.5,0.7-1.2,1-2,1c-0.8,0-1.5-0.2-2-0.7s-0.8-1.1-0.8-1.8s0.3-1.3,0.8-1.7
			c0.6-0.4,1.3-0.6,2.3-0.6h1.6v0c0-0.8-0.4-1.2-1.3-1.2c-0.4,0-0.7,0.1-1.2,0.2c-0.4,0.1-0.7,0.3-1,0.5l-0.9-1.4
			c1-0.7,2.1-1.1,3.4-1.1c0.9,0,1.7,0.2,2.2,0.7c0.6,0.5,0.9,1.2,0.9,2.2V75.4z M109.2,72.5v-0.4h-1.3c-0.8,0-1.3,0.3-1.3,0.8
			c0,0.3,0.1,0.5,0.3,0.6c0.2,0.1,0.5,0.2,0.9,0.2c0.4,0,0.7-0.1,1-0.3C109,73.2,109.2,72.9,109.2,72.5z"/>
		<path id="XMLID_329_" d="M122.6,73.1c0,0.7-0.3,1.3-0.8,1.8c-0.5,0.4-1.2,0.7-2.1,0.7c-0.6,0-1.1-0.1-1.8-0.3
			c-0.6-0.2-1.2-0.5-1.6-0.9l0.9-1.3c0.8,0.6,1.6,0.9,2.5,0.9c0.3,0,0.5-0.1,0.6-0.2c0.2-0.1,0.2-0.2,0.2-0.4s-0.1-0.3-0.3-0.5
			s-0.5-0.3-1-0.4c-0.4-0.1-0.7-0.2-1-0.3s-0.5-0.2-0.7-0.4c-0.6-0.4-0.9-0.9-0.9-1.6s0.3-1.3,0.8-1.7c0.6-0.4,1.3-0.7,2.2-0.7
			s1.8,0.3,2.7,0.9l-0.8,1.4c-0.7-0.4-1.3-0.7-2-0.7c-0.6,0-1,0.2-1,0.5c0,0.2,0.1,0.4,0.3,0.5c0.2,0.1,0.5,0.2,1,0.4s0.8,0.3,1,0.3
			c0.2,0.1,0.4,0.2,0.7,0.4C122.3,71.8,122.6,72.3,122.6,73.1z"/>
		<path id="XMLID_331_" d="M131.7,71.6c0,1.1-0.4,2-1.1,2.8s-1.7,1.1-2.8,1.1c-1.1,0-2.1-0.4-2.8-1.1c-0.8-0.7-1.1-1.7-1.1-2.8
			c0-1.1,0.4-2,1.1-2.8c0.8-0.8,1.7-1.1,2.8-1.1c1.1,0,2.1,0.4,2.8,1.1C131.3,69.6,131.7,70.6,131.7,71.6z M125.9,71.6
			c0,0.6,0.2,1.1,0.5,1.5c0.3,0.4,0.8,0.6,1.3,0.6c0.5,0,1-0.2,1.3-0.6c0.3-0.4,0.5-0.9,0.5-1.5c0-0.6-0.2-1.1-0.5-1.5
			c-0.4-0.4-0.8-0.6-1.3-0.6c-0.5,0-1,0.2-1.3,0.6C126,70.5,125.9,71,125.9,71.6z"/>
		<path id="XMLID_334_" d="M138.1,71.9v-4.1h2.1v7.5h-2.1v-1c-0.5,0.7-1.2,1.1-2,1.1c-0.8,0-1.5-0.3-2.1-0.8s-0.8-1.3-0.8-2.3v-4.6
			h2.1V72c0,1.2,0.4,1.7,1.3,1.7c0.4,0,0.8-0.2,1.1-0.5S138.1,72.5,138.1,71.9z"/>
		<path id="XMLID_336_" d="M146.2,69.7c-0.6,0-1.1,0.2-1.4,0.7c-0.3,0.4-0.5,1-0.5,1.8v3.3h-2.1v-7.5h2.1v1c0.3-0.3,0.6-0.6,1-0.8
			c0.4-0.2,0.8-0.3,1.2-0.3l0,2H146.2z"/>
		<path id="XMLID_338_" d="M151.6,73.7c0.7,0,1.3-0.4,1.9-1l1.2,1.4c-1,1-2,1.5-3.2,1.5s-2.1-0.4-2.9-1.1s-1.2-1.6-1.2-2.8
			s0.4-2.1,1.2-2.8c0.8-0.7,1.7-1.1,2.8-1.1c0.5,0,1.1,0.1,1.6,0.3c0.6,0.2,1,0.6,1.5,1l-1.1,1.4c-0.2-0.3-0.5-0.5-0.9-0.7
			c-0.3-0.2-0.7-0.2-1-0.2c-0.6,0-1,0.2-1.4,0.5s-0.6,0.9-0.6,1.5s0.2,1.1,0.6,1.5C150.6,73.5,151.1,73.7,151.6,73.7z"/>
		<path id="XMLID_340_" d="M162.6,74.3c-0.8,0.8-1.8,1.2-3,1.2c-1.1,0-2.1-0.4-2.8-1.1s-1.1-1.6-1.1-2.8c0-1.2,0.4-2.1,1.1-2.8
			c0.8-0.7,1.7-1.1,2.7-1.1c1,0,1.9,0.3,2.6,0.9c0.7,0.6,1.1,1.5,1.1,2.6v1.1h-5.5c0.1,0.4,0.3,0.7,0.6,1c0.4,0.3,0.8,0.4,1.2,0.4
			c0.7,0,1.3-0.2,1.8-0.7L162.6,74.3z M160.6,69.9c-0.3-0.2-0.6-0.4-1.1-0.4c-0.4,0-0.8,0.1-1.1,0.4c-0.3,0.3-0.5,0.6-0.6,1h3.3
			C161.1,70.4,160.9,70.1,160.6,69.9z"/>
		<path id="XMLID_343_" d="M170.4,73.1c0,0.7-0.3,1.3-0.8,1.8c-0.5,0.4-1.2,0.7-2.1,0.7c-0.6,0-1.1-0.1-1.8-0.3
			c-0.6-0.2-1.2-0.5-1.6-0.9l0.9-1.3c0.8,0.6,1.6,0.9,2.5,0.9c0.3,0,0.5-0.1,0.6-0.2c0.2-0.1,0.2-0.2,0.2-0.4s-0.1-0.3-0.3-0.5
			s-0.5-0.3-1-0.4c-0.4-0.1-0.7-0.2-1-0.3s-0.5-0.2-0.7-0.4c-0.6-0.4-0.9-0.9-0.9-1.6s0.3-1.3,0.8-1.7c0.6-0.4,1.3-0.7,2.2-0.7
			s1.8,0.3,2.7,0.9l-0.8,1.4c-0.7-0.4-1.3-0.7-2-0.7c-0.6,0-1,0.2-1,0.5c0,0.2,0.1,0.4,0.3,0.5c0.2,0.1,0.5,0.2,1,0.4s0.8,0.3,1,0.3
			c0.2,0.1,0.4,0.2,0.7,0.4C170.2,71.8,170.4,72.3,170.4,73.1z"/>
	</g>
	<g id="XMLID_209_">
		<path id="XMLID_210_" d="M435.5,73.9h-1.9v-3.3l-2.9-5.1h2l1.8,3.1l1.8-3.1h2l-2.9,5.1V73.9z"/>
		<path id="XMLID_212_" d="M444.9,70.7c0,0.9-0.3,1.7-1,2.4c-0.6,0.6-1.5,1-2.4,1c-1,0-1.8-0.3-2.4-1c-0.6-0.6-1-1.4-1-2.4
			s0.3-1.7,1-2.4c0.6-0.6,1.5-1,2.4-1c1,0,1.8,0.3,2.4,1C444.6,69,444.9,69.8,444.9,70.7z M439.9,70.7c0,0.5,0.1,1,0.5,1.3
			c0.3,0.3,0.7,0.5,1.2,0.5s0.9-0.2,1.2-0.5s0.5-0.8,0.5-1.3s-0.2-1-0.5-1.3s-0.7-0.5-1.2-0.5s-0.9,0.2-1.2,0.5
			C440.1,69.7,439.9,70.2,439.9,70.7z"/>
		<path id="XMLID_215_" d="M450.4,71v-3.5h1.8v6.5h-1.8v-0.9c-0.4,0.6-1,0.9-1.7,0.9s-1.3-0.2-1.8-0.7c-0.5-0.4-0.7-1.1-0.7-2v-3.9
			h1.8V71c0,1,0.4,1.5,1.1,1.5c0.4,0,0.7-0.1,0.9-0.4C450.3,71.8,450.4,71.5,450.4,71z"/>
		<path id="XMLID_217_" d="M457.3,69.1c-0.5,0-0.9,0.2-1.2,0.6c-0.3,0.4-0.4,0.9-0.4,1.5v2.8h-1.8v-6.5h1.8v0.9
			c0.2-0.3,0.5-0.5,0.9-0.7c0.3-0.2,0.7-0.3,1.1-0.3l0,1.7H457.3z"/>
		<path id="XMLID_237_" d="M466.9,71.9c0,0.6-0.2,1.1-0.7,1.5s-1.1,0.6-1.8,0.6c-0.5,0-1-0.1-1.5-0.3c-0.5-0.2-1-0.4-1.4-0.8
			l0.8-1.1c0.7,0.5,1.4,0.8,2.1,0.8c0.2,0,0.4,0,0.6-0.1c0.1-0.1,0.2-0.2,0.2-0.4s-0.1-0.3-0.3-0.4c-0.2-0.1-0.5-0.2-0.8-0.4
			c-0.4-0.1-0.6-0.2-0.8-0.3c-0.2-0.1-0.4-0.2-0.6-0.3c-0.5-0.3-0.7-0.8-0.7-1.4c0-0.6,0.2-1.1,0.7-1.5c0.5-0.4,1.1-0.6,1.9-0.6
			s1.5,0.3,2.3,0.8l-0.7,1.2c-0.6-0.4-1.1-0.6-1.7-0.6c-0.6,0-0.8,0.2-0.8,0.5c0,0.2,0.1,0.3,0.3,0.4c0.2,0.1,0.5,0.2,0.9,0.3
			s0.7,0.2,0.9,0.3s0.4,0.2,0.6,0.3C466.7,70.8,466.9,71.3,466.9,71.9z"/>
		<path id="XMLID_255_" d="M470.4,68.8v2.9c0,0.2,0.1,0.4,0.2,0.6c0.1,0.1,0.3,0.2,0.5,0.2c0.3,0,0.6-0.2,0.9-0.5l0.7,1.3
			c-0.6,0.5-1.2,0.8-1.8,0.8s-1.1-0.2-1.6-0.6c-0.4-0.4-0.6-1-0.6-1.7v-3h-0.8v-1.3h0.8v-1.9h1.8v1.9h1.6v1.3H470.4z"/>
		<path id="XMLID_257_" d="M476.9,69.1c-0.5,0-0.9,0.2-1.2,0.6c-0.3,0.4-0.4,0.9-0.4,1.5v2.8h-1.8v-6.5h1.8v0.9
			c0.2-0.3,0.5-0.5,0.9-0.7c0.3-0.2,0.7-0.3,1.1-0.3l0,1.7H476.9z"/>
		<path id="XMLID_259_" d="M483.9,73.9h-1.7v-0.8c-0.5,0.6-1,0.9-1.7,0.9c-0.7,0-1.3-0.2-1.7-0.6c-0.5-0.4-0.7-0.9-0.7-1.6
			s0.2-1.2,0.7-1.5c0.5-0.3,1.1-0.5,2-0.5h1.3v0c0-0.7-0.4-1-1.1-1c-0.3,0-0.6,0.1-1,0.2c-0.3,0.1-0.6,0.3-0.9,0.5l-0.8-1.2
			c0.8-0.6,1.8-0.9,2.9-0.9c0.8,0,1.4,0.2,1.9,0.6c0.5,0.4,0.7,1,0.7,1.9V73.9z M482,71.5v-0.3h-1.1c-0.7,0-1.1,0.2-1.1,0.7
			c0,0.2,0.1,0.4,0.3,0.5c0.2,0.1,0.4,0.2,0.7,0.2s0.6-0.1,0.8-0.3C481.9,72.1,482,71.8,482,71.5z"/>
		<path id="XMLID_264_" d="M487.6,68.8v2.9c0,0.2,0.1,0.4,0.2,0.6c0.1,0.1,0.3,0.2,0.5,0.2c0.3,0,0.6-0.2,0.9-0.5l0.7,1.3
			c-0.6,0.5-1.2,0.8-1.8,0.8s-1.1-0.2-1.6-0.6c-0.4-0.4-0.6-1-0.6-1.7v-3H485v-1.3h0.8v-1.9h1.8v1.9h1.6v1.3H487.6z"/>
		<path id="XMLID_266_" d="M496.3,73c-0.7,0.7-1.6,1-2.6,1c-1,0-1.8-0.3-2.4-0.9s-1-1.4-1-2.4c0-1,0.3-1.8,1-2.4
			c0.7-0.6,1.4-0.9,2.3-0.9s1.6,0.3,2.3,0.8c0.6,0.5,0.9,1.3,0.9,2.2v1h-4.7c0.1,0.4,0.2,0.6,0.6,0.9c0.3,0.2,0.7,0.3,1.1,0.3
			c0.6,0,1.2-0.2,1.6-0.6L496.3,73z M494.6,69.2c-0.2-0.2-0.5-0.3-0.9-0.3c-0.4,0-0.7,0.1-1,0.3s-0.5,0.5-0.5,0.9h2.8
			C495,69.7,494.8,69.4,494.6,69.2z"/>
		<path id="XMLID_271_" d="M502.9,72.8c-0.6,0.6-1.3,0.9-2.1,0.9c-0.8,0-1.6-0.3-2.1-0.9s-0.9-1.3-0.9-2.3s0.3-1.7,0.9-2.4
			c0.6-0.6,1.3-0.9,2-0.9c0.8,0,1.4,0.3,1.9,0.9v-0.9h1.8v5.6c0,0.6-0.1,1.1-0.3,1.5c-0.2,0.4-0.5,0.8-0.8,1.1
			c-0.7,0.5-1.4,0.8-2.4,0.8c-0.5,0-1-0.1-1.5-0.2c-0.5-0.2-0.9-0.4-1.3-0.7l0.7-1.4c0.6,0.4,1.2,0.7,1.9,0.7s1.2-0.2,1.6-0.5
			C502.7,74.1,502.9,73.6,502.9,72.8z M502.7,70.6c0-0.5-0.1-0.9-0.4-1.2s-0.6-0.4-1.1-0.4s-0.8,0.1-1.1,0.4
			c-0.3,0.3-0.5,0.7-0.5,1.2c0,0.5,0.1,0.9,0.5,1.2c0.3,0.3,0.7,0.5,1.1,0.5s0.8-0.2,1.1-0.5S502.7,71.1,502.7,70.6z"/>
		<path id="XMLID_274_" d="M506.3,66.7c-0.2-0.2-0.3-0.5-0.3-0.8s0.1-0.5,0.3-0.8c0.2-0.2,0.5-0.3,0.8-0.3s0.5,0.1,0.8,0.3
			c0.2,0.2,0.3,0.5,0.3,0.8s-0.1,0.5-0.3,0.8c-0.2,0.2-0.5,0.3-0.8,0.3S506.5,66.9,506.3,66.7z M507.9,73.9h-1.8v-6.5h1.8V73.9z"/>
		<path id="XMLID_277_" d="M512.7,72.4c0.6,0,1.1-0.3,1.6-0.9l1.1,1.2c-0.8,0.9-1.7,1.3-2.7,1.3c-1,0-1.8-0.3-2.5-0.9
			c-0.7-0.6-1-1.4-1-2.4c0-1,0.3-1.8,1-2.4c0.7-0.6,1.5-0.9,2.4-0.9c0.5,0,0.9,0.1,1.4,0.3c0.5,0.2,0.9,0.5,1.3,0.9l-0.9,1.2
			c-0.2-0.2-0.5-0.4-0.8-0.6s-0.6-0.2-0.9-0.2c-0.5,0-0.9,0.2-1.2,0.5c-0.3,0.3-0.5,0.7-0.5,1.3s0.2,1,0.5,1.3
			C511.9,72.3,512.3,72.4,512.7,72.4z"/>
		<path id="XMLID_279_" d="M524.6,71.9c0,0.6-0.2,1.1-0.7,1.5s-1.1,0.6-1.8,0.6c-0.5,0-1-0.1-1.5-0.3c-0.5-0.2-1-0.4-1.4-0.8
			l0.8-1.1c0.7,0.5,1.4,0.8,2.1,0.8c0.2,0,0.4,0,0.6-0.1c0.1-0.1,0.2-0.2,0.2-0.4s-0.1-0.3-0.3-0.4c-0.2-0.1-0.5-0.2-0.8-0.4
			c-0.4-0.1-0.6-0.2-0.8-0.3c-0.2-0.1-0.4-0.2-0.6-0.3c-0.5-0.3-0.7-0.8-0.7-1.4c0-0.6,0.2-1.1,0.7-1.5c0.5-0.4,1.1-0.6,1.9-0.6
			s1.5,0.3,2.3,0.8l-0.7,1.2c-0.6-0.4-1.1-0.6-1.7-0.6c-0.6,0-0.8,0.2-0.8,0.5c0,0.2,0.1,0.3,0.3,0.4c0.2,0.1,0.5,0.2,0.9,0.3
			s0.7,0.2,0.9,0.3s0.4,0.2,0.6,0.3C524.4,70.8,524.6,71.3,524.6,71.9z"/>
		<path id="XMLID_281_" d="M528.1,68.8v2.9c0,0.2,0.1,0.4,0.2,0.6c0.1,0.1,0.3,0.2,0.5,0.2c0.3,0,0.6-0.2,0.9-0.5l0.7,1.3
			c-0.6,0.5-1.1,0.8-1.8,0.8s-1.1-0.2-1.6-0.6c-0.4-0.4-0.6-1-0.6-1.7v-3h-0.8v-1.3h0.8v-1.9h1.8v1.9h1.6v1.3H528.1z"/>
		<path id="XMLID_283_" d="M536.7,73.9h-1.7v-0.8c-0.5,0.6-1,0.9-1.7,0.9c-0.7,0-1.3-0.2-1.7-0.6c-0.5-0.4-0.7-0.9-0.7-1.6
			s0.2-1.2,0.7-1.5c0.5-0.3,1.1-0.5,2-0.5h1.3v0c0-0.7-0.4-1-1.1-1c-0.3,0-0.6,0.1-1,0.2c-0.3,0.1-0.6,0.3-0.9,0.5l-0.8-1.2
			c0.8-0.6,1.8-0.9,2.9-0.9c0.8,0,1.4,0.2,1.9,0.6c0.5,0.4,0.7,1,0.7,1.9V73.9z M534.9,71.5v-0.3h-1.1c-0.7,0-1.1,0.2-1.1,0.7
			c0,0.2,0.1,0.4,0.3,0.5c0.2,0.1,0.4,0.2,0.7,0.2s0.6-0.1,0.8-0.3C534.8,72.1,534.9,71.8,534.9,71.5z"/>
		<path id="XMLID_286_" d="M540.2,73.9h-1.8V65h1.8v4.6l2-2.1h2.3l-2.5,2.6l2.6,3.9h-2.1l-1.6-2.5l-0.6,0.6V73.9z"/>
		<path id="XMLID_288_" d="M551.1,73c-0.7,0.7-1.6,1-2.6,1c-1,0-1.8-0.3-2.4-0.9c-0.6-0.6-1-1.4-1-2.4c0-1,0.3-1.8,1-2.4
			s1.4-0.9,2.3-0.9c0.9,0,1.6,0.3,2.3,0.8c0.6,0.5,0.9,1.3,0.9,2.2v1h-4.7c0.1,0.4,0.2,0.6,0.6,0.9c0.3,0.2,0.7,0.3,1.1,0.3
			c0.6,0,1.2-0.2,1.6-0.6L551.1,73z M549.4,69.2c-0.2-0.2-0.5-0.3-0.9-0.3c-0.4,0-0.7,0.1-1,0.3s-0.5,0.5-0.5,0.9h2.8
			C549.8,69.7,549.6,69.4,549.4,69.2z"/>
		<path id="XMLID_291_" d="M554.7,70.5v3.5h-1.8V65h1.8v3.2c0.5-0.6,1.2-0.8,1.8-0.8s1.2,0.2,1.7,0.7c0.5,0.5,0.7,1.1,0.7,1.9v3.9
			h-1.8v-3.5c0-1-0.4-1.5-1.1-1.5c-0.4,0-0.7,0.1-0.9,0.4C554.9,69.6,554.7,69.9,554.7,70.5z"/>
		<path id="XMLID_293_" d="M567.1,70.7c0,0.9-0.3,1.7-1,2.4c-0.6,0.6-1.5,1-2.4,1c-1,0-1.8-0.3-2.4-1c-0.6-0.6-1-1.4-1-2.4
			s0.3-1.7,1-2.4c0.6-0.6,1.5-1,2.4-1c1,0,1.8,0.3,2.4,1C566.7,69,567.1,69.8,567.1,70.7z M562.1,70.7c0,0.5,0.1,1,0.5,1.3
			c0.3,0.3,0.7,0.5,1.2,0.5s0.9-0.2,1.2-0.5s0.5-0.8,0.5-1.3s-0.2-1-0.5-1.3s-0.7-0.5-1.2-0.5s-0.9,0.2-1.2,0.5
			C562.2,69.7,562.1,70.2,562.1,70.7z"/>
		<path id="XMLID_296_" d="M570.2,73.9h-1.8V65h1.8V73.9z"/>
		<path id="XMLID_298_" d="M574.5,74c-0.8,0-1.4-0.3-2-1c-0.6-0.6-0.9-1.5-0.9-2.4s0.3-1.7,0.9-2.4s1.3-0.9,2.1-0.9s1.4,0.3,1.9,0.8
			V65h1.8v8.9h-1.8v-0.9C575.9,73.7,575.3,74,574.5,74z M573.4,70.7c0,0.5,0.2,0.9,0.5,1.3c0.3,0.3,0.7,0.5,1.1,0.5s0.8-0.2,1.1-0.5
			s0.4-0.8,0.4-1.3c0-0.5-0.1-1-0.4-1.3c-0.3-0.3-0.6-0.5-1.1-0.5c-0.4,0-0.8,0.2-1.1,0.5C573.5,69.8,573.4,70.2,573.4,70.7z"/>
		<path id="XMLID_301_" d="M585.5,73c-0.7,0.7-1.6,1-2.6,1c-1,0-1.8-0.3-2.4-0.9c-0.6-0.6-1-1.4-1-2.4c0-1,0.3-1.8,1-2.4
			s1.4-0.9,2.3-0.9c0.9,0,1.6,0.3,2.3,0.8c0.6,0.5,0.9,1.3,0.9,2.2v1h-4.7c0.1,0.4,0.2,0.6,0.6,0.9c0.3,0.2,0.7,0.3,1.1,0.3
			c0.6,0,1.2-0.2,1.6-0.6L585.5,73z M583.8,69.2c-0.2-0.2-0.5-0.3-0.9-0.3c-0.4,0-0.7,0.1-1,0.3s-0.5,0.5-0.5,0.9h2.8
			C584.2,69.7,584,69.4,583.8,69.2z"/>
		<path id="XMLID_304_" d="M590.7,69.1c-0.5,0-0.9,0.2-1.2,0.6s-0.4,0.9-0.4,1.5v2.8h-1.8v-6.5h1.8v0.9c0.2-0.3,0.5-0.5,0.9-0.7
			c0.3-0.2,0.7-0.3,1.1-0.3l0,1.7H590.7z"/>
		<path id="XMLID_306_" d="M597.1,71.9c0,0.6-0.2,1.1-0.7,1.5c-0.5,0.4-1.1,0.6-1.8,0.6c-0.5,0-1-0.1-1.5-0.3
			c-0.5-0.2-1-0.4-1.4-0.8l0.8-1.1c0.7,0.5,1.4,0.8,2.1,0.8c0.2,0,0.4,0,0.6-0.1c0.1-0.1,0.2-0.2,0.2-0.4s-0.1-0.3-0.3-0.4
			c-0.2-0.1-0.5-0.2-0.8-0.4c-0.4-0.1-0.6-0.2-0.8-0.3c-0.2-0.1-0.4-0.2-0.6-0.3c-0.5-0.3-0.7-0.8-0.7-1.4c0-0.6,0.2-1.1,0.7-1.5
			c0.5-0.4,1.1-0.6,1.9-0.6c0.8,0,1.5,0.3,2.3,0.8l-0.7,1.2c-0.6-0.4-1.1-0.6-1.7-0.6s-0.8,0.2-0.8,0.5c0,0.2,0.1,0.3,0.3,0.4
			c0.2,0.1,0.5,0.2,0.9,0.3c0.4,0.1,0.7,0.2,0.9,0.3s0.4,0.2,0.6,0.3C596.8,70.8,597.1,71.3,597.1,71.9z"/>
	</g>
	<g id="XMLID_44_">
		<path id="XMLID_45_" d="M223.8,43.9c0.8,0.7,1.2,1.7,1.2,3.1s-0.4,2.4-1.2,3s-2,1-3.7,1h-1.5v3.1h-2.5V42.9h4
			C221.8,42.9,223,43.3,223.8,43.9z M222,48.3c0.3-0.3,0.4-0.8,0.4-1.5s-0.2-1.1-0.6-1.4c-0.4-0.3-1-0.4-1.8-0.4h-1.4v3.8h1.7
			C221.1,48.8,221.7,48.7,222,48.3z"/>
		<path id="XMLID_48_" d="M231.2,47.6c-0.7,0-1.2,0.3-1.6,0.8c-0.4,0.5-0.5,1.2-0.5,2v3.7h-2.4v-8.6h2.4v1.1
			c0.3-0.4,0.7-0.7,1.2-0.9c0.5-0.2,0.9-0.4,1.4-0.4l0,2.3H231.2z"/>
		<path id="XMLID_50_" d="M233.5,44.4c-0.3-0.3-0.4-0.6-0.4-1c0-0.4,0.1-0.7,0.4-1c0.3-0.3,0.6-0.4,1-0.4s0.7,0.1,1,0.4
			c0.3,0.3,0.4,0.6,0.4,1c0,0.4-0.1,0.7-0.4,1c-0.3,0.3-0.6,0.4-1,0.4S233.7,44.7,233.5,44.4z M235.7,54.1h-2.4v-8.6h2.4V54.1z"/>
		<path id="XMLID_93_" d="M240.3,54.1l-3.4-8.6h2.5l2.1,5.4l2.1-5.4h2.5l-3.4,8.6H240.3z"/>
		<path id="XMLID_95_" d="M254.5,54.1h-2.3v-1c-0.6,0.8-1.4,1.2-2.3,1.2c-0.9,0-1.7-0.3-2.3-0.8c-0.6-0.5-0.9-1.2-0.9-2.1
			s0.3-1.5,1-2c0.6-0.4,1.5-0.7,2.6-0.7h1.8v0c0-0.9-0.5-1.4-1.5-1.4c-0.4,0-0.9,0.1-1.3,0.2c-0.5,0.2-0.9,0.4-1.2,0.6l-1.1-1.6
			c1.1-0.8,2.4-1.2,3.9-1.2c1,0,1.9,0.3,2.6,0.8c0.7,0.5,1,1.3,1,2.5V54.1z M252.1,50.8v-0.4h-1.5c-1,0-1.4,0.3-1.4,0.9
			c0,0.3,0.1,0.5,0.3,0.7s0.6,0.2,1,0.2s0.8-0.1,1.1-0.4S252.1,51.3,252.1,50.8z"/>
		<path id="XMLID_99_" d="M259.5,47.2v3.9c0,0.3,0.1,0.6,0.3,0.8c0.2,0.2,0.4,0.3,0.6,0.3c0.4,0,0.8-0.2,1.1-0.6l0.9,1.7
			c-0.7,0.7-1.5,1-2.4,1c-0.8,0-1.5-0.3-2.1-0.8c-0.6-0.5-0.9-1.3-0.9-2.2v-4h-1v-1.7h1v-2.6h2.4v2.6h2.1v1.7H259.5z"/>
		<path id="XMLID_101_" d="M271.1,52.9c-1,0.9-2.1,1.4-3.4,1.4s-2.4-0.4-3.2-1.2c-0.9-0.8-1.3-1.9-1.3-3.2s0.4-2.4,1.3-3.2
			c0.9-0.8,1.9-1.2,3.1-1.2s2.2,0.4,3,1.1c0.8,0.7,1.2,1.7,1.2,2.9v1.3h-6.3c0.1,0.5,0.3,0.9,0.7,1.2c0.4,0.3,0.9,0.4,1.4,0.4
			c0.8,0,1.5-0.3,2.1-0.8L271.1,52.9z M268.8,47.7c-0.3-0.3-0.7-0.4-1.2-0.4s-0.9,0.1-1.3,0.4c-0.4,0.3-0.6,0.7-0.7,1.2h3.8
			C269.3,48.4,269.1,48,268.8,47.7z"/>
		<path id="XMLID_111_" d="M286.5,44.4c1.1,1,1.6,2.3,1.6,4.1s-0.5,3.1-1.6,4.1c-1,1-2.6,1.5-4.8,1.5H278V42.9h4
			C283.9,42.9,285.5,43.4,286.5,44.4z M284.7,51c0.6-0.6,0.9-1.4,0.9-2.5s-0.3-1.9-0.9-2.5c-0.6-0.6-1.6-0.9-2.8-0.9h-1.4v6.8h1.6
			C283.2,51.9,284.1,51.6,284.7,51z"/>
		<path id="XMLID_117_" d="M297.3,54.1H295v-1c-0.6,0.8-1.4,1.2-2.3,1.2c-0.9,0-1.7-0.3-2.3-0.8c-0.6-0.5-0.9-1.2-0.9-2.1
			s0.3-1.5,1-2c0.6-0.4,1.5-0.7,2.6-0.7h1.8v0c0-0.9-0.5-1.4-1.5-1.4c-0.4,0-0.9,0.1-1.3,0.2c-0.5,0.2-0.9,0.4-1.2,0.6l-1.1-1.6
			c1.1-0.8,2.4-1.2,3.9-1.2c1,0,1.9,0.3,2.6,0.8c0.7,0.5,1,1.3,1,2.5V54.1z M294.9,50.8v-0.4h-1.5c-1,0-1.4,0.3-1.4,0.9
			c0,0.3,0.1,0.5,0.3,0.7s0.6,0.2,1,0.2s0.8-0.1,1.1-0.4S294.9,51.3,294.9,50.8z"/>
		<path id="XMLID_158_" d="M302.2,47.2v3.9c0,0.3,0.1,0.6,0.3,0.8c0.2,0.2,0.4,0.3,0.6,0.3c0.4,0,0.8-0.2,1.1-0.6l0.9,1.7
			c-0.7,0.7-1.5,1-2.4,1c-0.8,0-1.5-0.3-2.1-0.8c-0.6-0.5-0.9-1.3-0.9-2.2v-4h-1v-1.7h1v-2.6h2.4v2.6h2.1v1.7H302.2z"/>
		<path id="XMLID_160_" d="M313.7,54.1h-2.3v-1c-0.6,0.8-1.4,1.2-2.3,1.2c-0.9,0-1.7-0.3-2.3-0.8c-0.6-0.5-0.9-1.2-0.9-2.1
			s0.3-1.5,1-2c0.6-0.4,1.5-0.7,2.6-0.7h1.8v0c0-0.9-0.5-1.4-1.5-1.4c-0.4,0-0.9,0.1-1.3,0.2c-0.5,0.2-0.9,0.4-1.2,0.6l-1.1-1.6
			c1.1-0.8,2.4-1.2,3.9-1.2c1,0,1.9,0.3,2.6,0.8c0.7,0.5,1,1.3,1,2.5V54.1z M311.3,50.8v-0.4h-1.5c-1,0-1.4,0.3-1.4,0.9
			c0,0.3,0.1,0.5,0.3,0.7s0.6,0.2,1,0.2s0.8-0.1,1.1-0.4S311.3,51.3,311.3,50.8z"/>
		<path id="XMLID_163_" d="M328.4,42.9v2.2h-5.6v2.3h5v2.1h-5v2.3h5.7v2.2h-8.2V42.9H328.4z"/>
		<path id="XMLID_165_" d="M332.7,45.5l1.5,2.3l1.5-2.3h2.8l-3,4.2l3.1,4.4h-2.9l-1.7-2.4l-1.6,2.4h-2.8l3-4.4l-2.8-4.2H332.7z"/>
		<path id="XMLID_170_" d="M344.1,52.1c0.8,0,1.5-0.4,2.2-1.2l1.4,1.6c-1.1,1.2-2.3,1.7-3.6,1.7c-1.3,0-2.4-0.4-3.3-1.2
			c-0.9-0.8-1.3-1.9-1.3-3.2s0.5-2.4,1.4-3.2c0.9-0.8,2-1.2,3.2-1.2c0.6,0,1.2,0.1,1.9,0.4c0.6,0.3,1.2,0.6,1.7,1.1l-1.2,1.6
			c-0.3-0.3-0.6-0.6-1-0.8c-0.4-0.2-0.8-0.3-1.2-0.3c-0.6,0-1.2,0.2-1.6,0.6s-0.7,1-0.7,1.7c0,0.7,0.2,1.3,0.7,1.7
			S343.5,52.1,344.1,52.1z"/>
		<path id="XMLID_175_" d="M351.7,49.5v4.6h-2.4V42.2h2.4v4.2c0.7-0.7,1.5-1.1,2.4-1.1s1.7,0.3,2.3,1s0.9,1.5,0.9,2.6v5.2h-2.4v-4.7
			c0-1.3-0.5-2-1.5-2c-0.5,0-0.9,0.2-1.3,0.5S351.7,48.8,351.7,49.5z"/>
		<path id="XMLID_177_" d="M366.8,54.1h-2.3v-1c-0.6,0.8-1.4,1.2-2.3,1.2c-0.9,0-1.7-0.3-2.3-0.8c-0.6-0.5-0.9-1.2-0.9-2.1
			s0.3-1.5,1-2c0.6-0.4,1.5-0.7,2.6-0.7h1.8v0c0-0.9-0.5-1.4-1.5-1.4c-0.4,0-0.9,0.1-1.3,0.2c-0.5,0.2-0.9,0.4-1.2,0.6l-1.1-1.6
			c1.1-0.8,2.4-1.2,3.9-1.2c1,0,1.9,0.3,2.6,0.8c0.7,0.5,1,1.3,1,2.5V54.1z M364.4,50.8v-0.4h-1.5c-1,0-1.4,0.3-1.4,0.9
			c0,0.3,0.1,0.5,0.3,0.7s0.6,0.2,1,0.2s0.8-0.1,1.1-0.4S364.4,51.3,364.4,50.8z"/>
		<path id="XMLID_201_" d="M371.4,49.3v4.8H369v-8.6h2.4v1c0.7-0.7,1.5-1.1,2.4-1.1c0.9,0,1.7,0.3,2.3,1s0.9,1.5,0.9,2.6v5.2h-2.4
			v-4.9c0-1.3-0.5-2-1.5-2c-0.5,0-0.9,0.2-1.3,0.5C371.6,48.1,371.4,48.6,371.4,49.3z"/>
		<path id="XMLID_203_" d="M385.6,52.6c-0.8,0.8-1.7,1.3-2.8,1.3c-1.1,0-2.1-0.4-2.8-1.1s-1.2-1.8-1.2-3.1c0-1.3,0.4-2.3,1.2-3.1
			c0.8-0.8,1.7-1.2,2.7-1.2c1,0,1.9,0.4,2.5,1.3v-1.1h2.4V53c0,0.8-0.1,1.5-0.4,2c-0.3,0.6-0.6,1.1-1.1,1.4
			c-0.9,0.7-1.9,1.1-3.1,1.1c-0.6,0-1.3-0.1-2-0.3s-1.3-0.5-1.8-0.9l0.9-1.8c0.8,0.6,1.6,0.9,2.5,0.9c0.9,0,1.6-0.2,2.1-0.7
			C385.3,54.3,385.6,53.6,385.6,52.6z M385.2,49.6c0-0.7-0.2-1.2-0.6-1.6s-0.9-0.6-1.4-0.6s-1.1,0.2-1.5,0.6
			c-0.4,0.4-0.6,0.9-0.6,1.6s0.2,1.2,0.6,1.7c0.4,0.4,0.9,0.6,1.5,0.6c0.6,0,1.1-0.2,1.4-0.6S385.2,50.3,385.2,49.6z"/>
		<path id="XMLID_206_" d="M397.3,52.9c-1,0.9-2.1,1.4-3.4,1.4s-2.4-0.4-3.2-1.2c-0.9-0.8-1.3-1.9-1.3-3.2s0.4-2.4,1.3-3.2
			c0.9-0.8,1.9-1.2,3.1-1.2s2.2,0.4,3,1.1c0.8,0.7,1.2,1.7,1.2,2.9v1.3h-6.3c0.1,0.5,0.3,0.9,0.7,1.2c0.4,0.3,0.9,0.4,1.4,0.4
			c0.8,0,1.5-0.3,2.1-0.8L397.3,52.9z M395,47.7c-0.3-0.3-0.7-0.4-1.2-0.4s-0.9,0.1-1.3,0.4c-0.4,0.3-0.6,0.7-0.7,1.2h3.8
			C395.6,48.4,395.4,48,395,47.7z"/>
	</g>
	<path id="XMLID_141_" class="st7" d="M284.6,144.4h-53.9c-3,0-5.5-2.5-5.5-5.5v-8.4c0-3,2.5-5.5,5.5-5.5h53.9c3,0,5.5,2.5,5.5,5.5
		v8.4C290.2,141.9,287.7,144.4,284.6,144.4z"/>
	<g id="XMLID_8_">
		<path id="XMLID_9_" d="M236.9,138.5h-1.6v-2.8l-2.4-4.2h1.7l1.5,2.6l1.5-2.6h1.7l-2.4,4.2V138.5z"/>
		<path id="XMLID_11_" d="M244.8,135.8c0,0.8-0.3,1.4-0.8,2c-0.5,0.5-1.2,0.8-2,0.8s-1.5-0.3-2-0.8c-0.5-0.5-0.8-1.2-0.8-2
			c0-0.8,0.3-1.4,0.8-2s1.2-0.8,2-0.8s1.5,0.3,2,0.8S244.8,135,244.8,135.8z M240.6,135.8c0,0.4,0.1,0.8,0.4,1.1
			c0.3,0.3,0.6,0.4,1,0.4s0.7-0.1,1-0.4c0.3-0.3,0.4-0.6,0.4-1.1s-0.1-0.8-0.4-1.1s-0.6-0.4-1-0.4s-0.7,0.1-1,0.4
			S240.6,135.4,240.6,135.8z"/>
		<path id="XMLID_14_" d="M249.4,136v-2.9h1.5v5.4h-1.5v-0.7c-0.4,0.5-0.9,0.8-1.4,0.8c-0.6,0-1.1-0.2-1.5-0.6s-0.6-0.9-0.6-1.6
			v-3.3h1.5v2.9c0,0.8,0.3,1.2,0.9,1.2c0.3,0,0.6-0.1,0.8-0.3C249.3,136.7,249.4,136.4,249.4,136z"/>
		<path id="XMLID_31_" d="M255.2,134.4c-0.4,0-0.8,0.2-1,0.5c-0.2,0.3-0.3,0.7-0.3,1.3v2.3h-1.5v-5.4h1.5v0.7
			c0.2-0.2,0.4-0.4,0.7-0.6s0.6-0.2,0.9-0.2l0,1.4H255.2z"/>
		<path id="XMLID_33_" d="M260.6,138.5h-1.5v-7.4h1.5V138.5z"/>
		<path id="XMLID_35_" d="M267.4,135.8c0,0.8-0.3,1.4-0.8,2c-0.5,0.5-1.2,0.8-2,0.8s-1.5-0.3-2-0.8c-0.5-0.5-0.8-1.2-0.8-2
			c0-0.8,0.3-1.4,0.8-2s1.2-0.8,2-0.8s1.5,0.3,2,0.8S267.4,135,267.4,135.8z M263.2,135.8c0,0.4,0.1,0.8,0.4,1.1
			c0.3,0.3,0.6,0.4,1,0.4s0.7-0.1,1-0.4c0.3-0.3,0.4-0.6,0.4-1.1s-0.1-0.8-0.4-1.1s-0.6-0.4-1-0.4s-0.7,0.1-1,0.4
			S263.2,135.4,263.2,135.8z"/>
		<path id="XMLID_38_" d="M272.5,137.6c-0.5,0.5-1.1,0.8-1.8,0.8s-1.3-0.2-1.8-0.7s-0.7-1.1-0.7-1.9c0-0.8,0.2-1.4,0.7-2
			c0.5-0.5,1.1-0.8,1.7-0.8s1.2,0.3,1.6,0.8v-0.7h1.5v4.7c0,0.5-0.1,0.9-0.3,1.3c-0.2,0.4-0.4,0.7-0.7,0.9c-0.6,0.4-1.2,0.7-2,0.7
			c-0.4,0-0.8-0.1-1.2-0.2c-0.4-0.1-0.8-0.3-1.1-0.6l0.6-1.1c0.5,0.4,1,0.6,1.6,0.6s1-0.1,1.3-0.4
			C272.3,138.6,272.5,138.2,272.5,137.6z M272.3,135.7c0-0.4-0.1-0.8-0.4-1s-0.5-0.4-0.9-0.4c-0.4,0-0.7,0.1-0.9,0.4
			c-0.3,0.2-0.4,0.6-0.4,1c0,0.4,0.1,0.8,0.4,1s0.6,0.4,0.9,0.4c0.4,0,0.7-0.1,0.9-0.4C272.1,136.5,272.3,136.1,272.3,135.7z"/>
		<path id="XMLID_41_" d="M280.5,135.8c0,0.8-0.3,1.4-0.8,2c-0.5,0.5-1.2,0.8-2,0.8s-1.5-0.3-2-0.8c-0.5-0.5-0.8-1.2-0.8-2
			c0-0.8,0.3-1.4,0.8-2s1.2-0.8,2-0.8s1.5,0.3,2,0.8S280.5,135,280.5,135.8z M276.4,135.8c0,0.4,0.1,0.8,0.4,1.1
			c0.3,0.3,0.6,0.4,1,0.4s0.7-0.1,1-0.4c0.3-0.3,0.4-0.6,0.4-1.1s-0.1-0.8-0.4-1.1s-0.6-0.4-1-0.4s-0.7,0.1-1,0.4
			S276.4,135.4,276.4,135.8z"/>
	</g>
	<circle id="XMLID_236_" class="st1" cx="329.8" cy="208.8" r="15.7"/>
	<circle id="XMLID_235_" class="st3" cx="329.8" cy="208.9" r="11.2"/>
	<g id="XMLID_231_">
		<path id="XMLID_234_" class="st4" d="M330.2,216.1h-1.1c-0.6,0-1-0.4-1-1v-6.9c0-0.6,0.4-1,1-1h1.1c0.6,0,1,0.4,1,1v6.9
			C331.2,215.7,330.8,216.1,330.2,216.1z"/>
		<path id="XMLID_233_" class="st4" d="M326,216.1h-1.1c-0.6,0-1-0.4-1-1v-4.7c0-0.6,0.4-1,1-1h1.1c0.6,0,1,0.4,1,1v4.7
			C327,215.7,326.6,216.1,326,216.1z"/>
		<path id="XMLID_232_" class="st4" d="M334.4,216.1h-1.1c-0.6,0-1-0.4-1-1v-9.2h-0.6c-0.3,0-0.5-0.2-0.7-0.4s-0.1-0.6,0.1-0.8
			c0,0,0,0,0,0l2.4-2.7c0.1-0.1,0.2-0.1,0.3-0.1c0.1,0,0.2,0.1,0.3,0.1l2.4,2.7c0,0,0,0,0,0c0.2,0.2,0.2,0.5,0.1,0.8
			c-0.1,0.3-0.4,0.4-0.7,0.4h-0.6v9.2C335.4,215.7,335,216.1,334.4,216.1L334.4,216.1z"/>
	</g>
	<circle id="XMLID_252_" class="st1" cx="286.2" cy="208.5" r="15.5"/>
	<circle id="XMLID_251_" class="st3" cx="286.8" cy="208.3" r="11.3"/>
	<g id="XMLID_227_">
		<path id="XMLID_250_" class="st4" d="M294.2,202.4L294.2,202.4c-0.2-1.4-3.5-2.5-7.4-2.5s-7.2,1.1-7.4,2.5l0,0h0v0.2v3.6v0.2v0.2
			v3.4v0.2v0.2v3.7h0c0.2,1.4,3.5,2.5,7.4,2.5s7.2-1.1,7.4-2.5h0v-3.7V210v-0.2v-3.4v-0.2v-0.2v-3.6L294.2,202.4L294.2,202.4z"/>
		<g id="XMLID_246_">
			<path id="XMLID_249_" class="st4" d="M286.8,212.6c-4.1,0-7.4-1.2-7.4-2.6v3.9h0c0.2,1.4,3.5,2.5,7.4,2.5s7.2-1.1,7.4-2.5h0V210
				C294.2,211.5,290.9,212.6,286.8,212.6z"/>
			<path id="XMLID_248_" class="st4" d="M279.3,209.8v0.2C279.3,210,279.3,209.9,279.3,209.8L279.3,209.8z"/>
			<path id="XMLID_247_" class="st4" d="M294.2,209.8c0,0.1,0,0.1,0,0.2L294.2,209.8L294.2,209.8z"/>
		</g>
		<g id="XMLID_242_">
			<path id="XMLID_245_" class="st4" d="M286.8,208.9c-4.1,0-7.4-1.2-7.4-2.6v3.9h0c0.2,1.4,3.5,2.5,7.4,2.5s7.2-1.1,7.4-2.5h0v-3.9
				C294.2,207.7,290.9,208.9,286.8,208.9z"/>
			<path id="XMLID_244_" class="st4" d="M279.3,206.1v0.2C279.3,206.2,279.3,206.2,279.3,206.1L279.3,206.1z"/>
			<path id="XMLID_243_" class="st4" d="M294.2,206.1c0,0.1,0,0.1,0,0.2L294.2,206.1L294.2,206.1z"/>
		</g>
		<ellipse id="XMLID_241_" class="st4" cx="286.8" cy="202.6" rx="7.4" ry="2.6"/>
		<g id="XMLID_228_">
			<path id="XMLID_240_" class="st4" d="M286.8,205.2c-4.1,0-7.4-1.2-7.4-2.6v3.9h0c0.2,1.4,3.5,2.5,7.4,2.5s7.2-1.1,7.4-2.5h0v-3.9
				C294.2,204,290.9,205.2,286.8,205.2z"/>
			<path id="XMLID_239_" class="st4" d="M279.3,202.4v0.2C279.3,202.5,279.3,202.4,279.3,202.4L279.3,202.4z"/>
			<path id="XMLID_238_" class="st4" d="M294.2,202.4c0,0.1,0,0.1,0,0.2L294.2,202.4L294.2,202.4z"/>
		</g>
	</g>
	<line id="XMLID_254_" class="st1" x1="115.7" y1="125.3" x2="209.7" y2="125.3"/>
	<polygon id="XMLID_113_" class="st2" points="210.2,181.8 210.2,180.2 211.2,181 212.2,181.8 211.2,182.6 210.2,183.3 	"/>
	<line id="XMLID_110_" class="st1" x1="114.7" y1="181.3" x2="209.7" y2="181.3"/>
	<polygon id="XMLID_120_" class="st2" points="210.2,238.8 210.2,237.2 211.2,238 212.2,238.8 211.2,239.6 210.2,240.3 	"/>
	<line id="XMLID_119_" class="st1" x1="114.7" y1="238.3" x2="209.7" y2="238.3"/>
	<line id="XMLID_167_" class="st1" x1="396.7" y1="125.3" x2="490.7" y2="125.3"/>
	<line id="XMLID_166_" class="st1" x1="395.7" y1="181.3" x2="490.7" y2="181.3"/>
	<line id="XMLID_107_" class="st1" x1="395.7" y1="238.3" x2="490.7" y2="238.3"/>
	<polygon id="XMLID_147_" class="st2" points="398.2,238.8 398.2,240.3 397.2,239.6 396.1,238.8 397.2,238 398.2,237.2 	"/>
	<polygon id="XMLID_225_" class="st2" points="398.2,181.8 398.2,183.3 397.2,182.6 396.1,181.8 397.2,181 398.2,180.2 	"/>
	<polygon id="XMLID_226_" class="st2" points="399.2,125.8 399.2,127.3 398.2,126.6 397.1,125.8 398.2,125 399.2,124.2 	"/>
	<circle id="XMLID_263_" class="st1" cx="350.2" cy="303.5" r="15.5"/>
	<ellipse id="XMLID_262_" class="st3" cx="349.7" cy="303.6" rx="11.3" ry="11"/>
	<g id="XMLID_98_">
		<g id="XMLID_194_">
			<g id="XMLID_195_">
				<path id="XMLID_196_" class="st5" d="M352.2,299.6c-1.6,0-3,1.3-3,3c0,0.4,0.1,0.7,0.2,1.1l-2.9,2.9c0,0-0.1,0.1-0.1,0.2v1.6
					c0,0.1,0.1,0.2,0.2,0.2h1.3c0.1,0,0.1,0,0.2-0.1l0.4-0.4c0,0,0.1-0.1,0.1-0.2v-0.5h0.5c0.1,0,0.2-0.1,0.2-0.2v-0.2h0.2
					c0.1,0,0.2-0.1,0.2-0.2v-0.5h0.5c0.1,0,0.1,0,0.2-0.1l0.7-0.7c0.3,0.1,0.7,0.2,1.1,0.2c1.6,0,3-1.3,3-3
					C355.2,300.9,353.8,299.6,352.2,299.6z M352.2,305.1c-0.4,0-0.7-0.1-1-0.2c-0.1,0-0.2,0-0.2,0c0,0,0,0,0,0l-0.7,0.7h-0.6
					c-0.1,0-0.2,0.1-0.2,0.2v0.5h-0.2c-0.1,0-0.2,0.1-0.2,0.2v0.2h-0.5c-0.1,0-0.2,0.1-0.2,0.2v0.7l-0.3,0.3h-1v-0.3l2.7-2.7
					c0.1-0.1,0.1-0.2,0-0.3c-0.1-0.1-0.2-0.1-0.3,0l-2.4,2.4v-0.4l2.9-2.9c0,0,0,0,0,0c0.1-0.1,0.1-0.2,0-0.2
					c-0.1-0.3-0.2-0.7-0.2-1c0-1.4,1.1-2.5,2.5-2.5s2.5,1.1,2.5,2.5C354.7,304,353.6,305.1,352.2,305.1z"/>
			</g>
		</g>
		<g id="XMLID_189_">
			<g id="XMLID_190_">
				<path id="XMLID_191_" class="st5" d="M353.1,300.9c-0.4,0-0.8,0.4-0.8,0.8s0.4,0.8,0.8,0.8c0.4,0,0.8-0.4,0.8-0.8
					S353.6,300.9,353.1,300.9z M353.1,302c-0.2,0-0.4-0.2-0.4-0.4s0.2-0.4,0.4-0.4s0.4,0.2,0.4,0.4S353.3,302,353.1,302z"/>
			</g>
		</g>
	</g>
	<polyline id="XMLID_145_" class="st1" points="258.2,287.8 258.2,278.3 350.2,278.3 350.2,287.8 	"/>
	<polygon id="XMLID_219_" class="st2" points="305.2,264.3 303.6,264.3 304.4,263.1 305.2,261.9 305.9,263.1 306.7,264.3 	"/>
</g>
<g id="Capa_2" class="st8">
	<path id="XMLID_116_" class="st9" d="M129.2,94.9c0,0,33.2-18,60.7,27.1"/>
</g>
</svg>
