<?xml version="1.0" encoding="utf-8"?>
<!-- Generator: Adobe Illustrator 19.0.0, SVG Export Plug-In . SVG Version: 6.00 Build 0)  -->
<svg version="1.1" xmlns="http://www.w3.org/2000/svg" xmlns:xlink="http://www.w3.org/1999/xlink" x="0px" y="0px"
	 viewBox="0 0 827 437.7" style="enable-background:new 0 0 827 437.7;" xml:space="preserve">
<style type="text/css">
	.st0{fill:#F5F7FA;}
	.st1{fill:none;stroke:#000000;stroke-miterlimit:10;}
	.st2{fill:#545E73;}
	.st3{fill:#38454F;}
	.st4{fill:#556080;}
	.st5{fill:#8697CB;}
	.st6{fill:#FFFFFF;}
	.st7{fill:#ECF0F1;}
	.st8{fill:none;stroke:#999999;stroke-miterlimit:10;}
	.st9{fill:#4D4D4D;stroke:#4D4D4D;stroke-miterlimit:10;}
	.st10{fill:#3FA9F5;}
	.st11{fill:#152E47;stroke:#3FA9F5;stroke-miterlimit:10;}
	.st12{fill:none;stroke:#152E47;stroke-miterlimit:10;}
	.st13{fill:#999999;}
	.st14{fill:#E6E6E6;}
	.st15{fill:#152E47;}
	.st16{display:none;}
	.st17{display:inline;fill:none;stroke:#4D4D4D;stroke-miterlimit:10;}
</style>
<g id="fondo">
	<path id="XMLID_229_" class="st0" d="M815,437.7H12c-6.6,0-12-5.4-12-12V12C0,5.4,5.4,0,12,0h803c6.6,0,12,5.4,12,12v413.7
		C827,432.3,821.6,437.7,815,437.7z"/>
</g>
<g id="Capa_1">
	<g id="XMLID_8_">
		<path id="XMLID_14_" class="st1" d="M590.5-154.7l-2.5-0.5c-3.8-0.7-5.5-5.1-3.2-8.2l1.6-2.2l-3.5-3.5l-2.1,1.5
			c-3.2,2.2-7.5,0.3-8.1-3.5l-0.4-2.7h-4.9l-0.6,3.3c-0.7,3.7-5,5.5-8.1,3.3l-2.8-1.9l-3.5,3.5l1.6,2.2c2.3,3.1,0.5,7.5-3.2,8.2
			l-2.5,0.5v4.9l2.7,0.4c3.8,0.6,5.7,4.9,3.5,8.1l-1.5,2.1l3.5,3.5l2.2-1.6c3.1-2.3,7.5-0.5,8.2,3.2l0.5,2.5h4.9l0.3-1.9
			c0.6-3.9,5.1-5.8,8.3-3.4l1.5,1.1l3.5-3.5l-1.5-2.1c-2.2-3.2-0.3-7.5,3.5-8.1l2.7-0.4L590.5-154.7L590.5-154.7z"/>
		<g id="XMLID_9_">
			<circle id="XMLID_13_" class="st1" cx="569.3" cy="-152.6" r="7.1"/>
			<path id="XMLID_10_" class="st1" d="M569.3-143.8c-4.9,0-8.8-4-8.8-8.8s4-8.8,8.8-8.8c4.9,0,8.8,4,8.8,8.8
				S574.2-143.8,569.3-143.8z M569.3-157.9c-2.9,0-5.3,2.4-5.3,5.3s2.4,5.3,5.3,5.3c2.9,0,5.3-2.4,5.3-5.3S572.2-157.9,569.3-157.9z
				"/>
		</g>
	</g>
	<path id="XMLID_52_" class="st2" d="M-121.7,2.8L-121.7,2.8c-0.4-2.6-6.5-4.7-14-4.7c-7.5,0-13.6,2.1-14,4.7l0,0h0v0.3v6.7v0.3v0.3
		v6.4v0.3v0.3v7h0c0.4,2.6,6.5,4.7,14,4.7s13.6-2.1,14-4.7h0v-7v-0.3v-0.3v-6.4v-0.3V9.8V3.1L-121.7,2.8L-121.7,2.8z"/>
	<g id="XMLID_48_">
		<path id="XMLID_51_" class="st3" d="M-135.7,22.1c-7.8,0-14.1-2.2-14.1-5v7.3h0c0.4,2.6,6.5,4.7,14,4.7s13.6-2.1,14-4.7h0v-7.3
			C-121.7,19.9-127.9,22.1-135.7,22.1z"/>
		<path id="XMLID_50_" class="st3" d="M-149.8,16.9v0.3C-149.8,17.1-149.8,17-149.8,16.9L-149.8,16.9z"/>
		<path id="XMLID_49_" class="st3" d="M-121.7,16.9c0,0.1,0,0.2,0,0.3L-121.7,16.9L-121.7,16.9z"/>
	</g>
	<g id="XMLID_44_">
		<path id="XMLID_47_" class="st4" d="M-135.7,15.1c-7.8,0-14.1-2.2-14.1-5v7.3h0c0.4,2.6,6.5,4.7,14,4.7s13.6-2.1,14-4.7h0v-7.3
			C-121.7,12.9-127.9,15.1-135.7,15.1z"/>
		<path id="XMLID_46_" class="st4" d="M-149.8,9.8v0.3C-149.8,10-149.8,9.9-149.8,9.8L-149.8,9.8z"/>
		<path id="XMLID_45_" class="st4" d="M-121.7,9.8c0,0.1,0,0.2,0,0.3L-121.7,9.8L-121.7,9.8z"/>
	</g>
	<path id="XMLID_41_" class="st5" d="M-149.8,2.8v0.3C-149.8,3-149.8,2.9-149.8,2.8L-149.8,2.8z"/>
	<path id="XMLID_40_" class="st5" d="M-121.7,2.8c0,0.1,0,0.2,0,0.3L-121.7,2.8L-121.7,2.8z"/>
	<g id="XMLID_31_">
		<g id="XMLID_32_">
			<circle id="XMLID_36_" class="st6" cx="-129.7" cy="37.5" r="2.3"/>
			<path id="XMLID_33_" class="st7" d="M-129.7,40.4c-1.6,0-2.9-1.3-2.9-2.9s1.3-2.9,2.9-2.9s2.9,1.3,2.9,2.9
				S-128.1,40.4-129.7,40.4z M-129.7,35.8c-1,0-1.8,0.8-1.8,1.8c0,1,0.8,1.8,1.8,1.8c1,0,1.8-0.8,1.8-1.8
				C-127.9,36.5-128.7,35.8-129.7,35.8z"/>
		</g>
	</g>
	<circle id="XMLID_82_" class="st8" cx="86.7" cy="83.8" r="25.7"/>
	<g id="XMLID_513_">
		<path id="XMLID_514_" d="M62.4,43.3l-3,6.1h-1.5l-3-6.1v7h-2.5V39.2h3.4l2.9,6.1l2.9-6.1h3.4v11.2h-2.5V43.3z"/>
		<path id="XMLID_516_" d="M74.7,50.4h-2.3v-1c-0.6,0.8-1.4,1.2-2.3,1.2s-1.7-0.3-2.3-0.8c-0.6-0.5-0.9-1.2-0.9-2.1s0.3-1.5,1-2
			c0.6-0.4,1.5-0.7,2.6-0.7h1.8v0c0-0.9-0.5-1.4-1.5-1.4c-0.4,0-0.9,0.1-1.3,0.2c-0.5,0.2-0.9,0.4-1.2,0.6l-1.1-1.6
			c1.1-0.8,2.4-1.2,3.9-1.2c1,0,1.9,0.3,2.6,0.8c0.7,0.5,1,1.3,1,2.5V50.4z M72.3,47.1v-0.4h-1.5c-1,0-1.4,0.3-1.4,0.9
			c0,0.3,0.1,0.5,0.3,0.7c0.2,0.2,0.6,0.2,1,0.2c0.4,0,0.8-0.1,1.1-0.4C72.2,47.9,72.3,47.5,72.3,47.1z"/>
		<path id="XMLID_519_" d="M81.5,43.9c-0.7,0-1.2,0.3-1.6,0.8c-0.4,0.5-0.5,1.2-0.5,2v3.7h-2.4v-8.6h2.4v1.1
			c0.3-0.4,0.7-0.7,1.2-0.9c0.5-0.2,0.9-0.4,1.4-0.4l0,2.3H81.5z"/>
		<path id="XMLID_521_" d="M85.9,50.4h-2.4V38.5h2.4v6.1l2.7-2.8h3l-3.3,3.5l3.4,5.1h-2.8l-2.2-3.3l-0.8,0.8V50.4z"/>
		<path id="XMLID_523_" d="M100.5,49.1c-1,0.9-2.1,1.4-3.4,1.4s-2.4-0.4-3.2-1.2c-0.9-0.8-1.3-1.9-1.3-3.2s0.4-2.4,1.3-3.2
			c0.9-0.8,1.9-1.2,3.1-1.2s2.2,0.4,3,1.1c0.8,0.7,1.2,1.7,1.2,2.9v1.3h-6.3c0.1,0.5,0.3,0.9,0.7,1.2c0.4,0.3,0.9,0.4,1.4,0.4
			c0.8,0,1.5-0.3,2.1-0.8L100.5,49.1z M98.2,44c-0.3-0.3-0.7-0.4-1.2-0.4s-0.9,0.1-1.3,0.4S95,44.7,95,45.2h3.8
			C98.7,44.7,98.5,44.3,98.2,44z"/>
		<path id="XMLID_526_" d="M105.7,43.5v3.9c0,0.3,0.1,0.6,0.3,0.8c0.2,0.2,0.4,0.3,0.6,0.3c0.4,0,0.8-0.2,1.1-0.6l0.9,1.7
			c-0.7,0.7-1.5,1-2.4,1c-0.8,0-1.5-0.3-2.1-0.8s-0.9-1.3-0.9-2.2v-4h-1v-1.7h1v-2.6h2.4v2.6h2.1v1.7H105.7z"/>
		<path id="XMLID_528_" d="M110.1,40.7c-0.3-0.3-0.4-0.6-0.4-1c0-0.4,0.1-0.7,0.4-1s0.6-0.4,1-0.4s0.7,0.1,1,0.4s0.4,0.6,0.4,1
			c0,0.4-0.1,0.7-0.4,1s-0.6,0.4-1,0.4S110.3,40.9,110.1,40.7z M112.3,50.4h-2.4v-8.6h2.4V50.4z"/>
		<path id="XMLID_531_" d="M116.9,45.6v4.8h-2.4v-8.6h2.4v1c0.7-0.7,1.5-1.1,2.4-1.1s1.7,0.3,2.3,1c0.6,0.6,0.9,1.5,0.9,2.6v5.2
			h-2.4v-4.9c0-1.3-0.5-2-1.5-2c-0.5,0-0.9,0.2-1.3,0.5C117.1,44.4,116.9,44.9,116.9,45.6z"/>
		<path id="XMLID_533_" d="M131.1,48.9c-0.8,0.8-1.7,1.3-2.8,1.3c-1.1,0-2.1-0.4-2.8-1.1s-1.2-1.8-1.2-3.1c0-1.3,0.4-2.3,1.2-3.1
			c0.8-0.8,1.7-1.2,2.7-1.2c1,0,1.9,0.4,2.5,1.3v-1.1h2.4v7.5c0,0.8-0.1,1.5-0.4,2c-0.3,0.6-0.6,1.1-1.1,1.4
			c-0.9,0.7-1.9,1.1-3.1,1.1c-0.6,0-1.3-0.1-2-0.3s-1.3-0.5-1.8-0.9l0.9-1.8c0.8,0.6,1.6,0.9,2.5,0.9s1.6-0.2,2.1-0.7
			C130.9,50.6,131.1,49.9,131.1,48.9z M130.8,45.9c0-0.7-0.2-1.2-0.6-1.6c-0.4-0.4-0.9-0.6-1.4-0.6s-1.1,0.2-1.5,0.6
			c-0.4,0.4-0.6,0.9-0.6,1.6s0.2,1.2,0.6,1.7s0.9,0.6,1.5,0.6c0.6,0,1.1-0.2,1.4-0.6C130.6,47.1,130.8,46.6,130.8,45.9z"/>
	</g>
	<g id="XMLID_495_">
		<path id="XMLID_496_" d="M64.8,165.4v2.2h-5.2v2.4h4.9v2.2h-4.9v4.4h-2.5v-11.2H64.8z"/>
		<path id="XMLID_498_" d="M66.9,166.8c-0.3-0.3-0.4-0.6-0.4-1c0-0.4,0.1-0.7,0.4-1s0.6-0.4,1-0.4s0.7,0.1,1,0.4s0.4,0.6,0.4,1
			c0,0.4-0.1,0.7-0.4,1s-0.6,0.4-1,0.4S67.1,167.1,66.9,166.8z M69.1,176.5h-2.4v-8.6h2.4V176.5z"/>
		<path id="XMLID_501_" d="M73.7,171.7v4.8h-2.4v-8.6h2.4v1c0.7-0.7,1.5-1.1,2.4-1.1s1.7,0.3,2.3,1c0.6,0.6,0.9,1.5,0.9,2.6v5.2H77
			v-4.9c0-1.3-0.5-2-1.5-2c-0.5,0-0.9,0.2-1.3,0.5C73.9,170.6,73.7,171.1,73.7,171.7z"/>
		<path id="XMLID_503_" d="M88.9,176.5h-2.3v-1c-0.6,0.8-1.4,1.2-2.3,1.2s-1.7-0.3-2.3-0.8c-0.6-0.5-0.9-1.2-0.9-2.1s0.3-1.5,1-2
			c0.6-0.4,1.5-0.7,2.6-0.7h1.8v0c0-0.9-0.5-1.4-1.5-1.4c-0.4,0-0.9,0.1-1.3,0.2c-0.5,0.2-0.9,0.4-1.2,0.6l-1.1-1.6
			c1.1-0.8,2.4-1.2,3.9-1.2c1,0,1.9,0.3,2.6,0.8c0.7,0.5,1,1.3,1,2.5V176.5z M86.4,173.3v-0.4h-1.5c-1,0-1.4,0.3-1.4,0.9
			c0,0.3,0.1,0.5,0.3,0.7c0.2,0.2,0.6,0.2,1,0.2c0.4,0,0.8-0.1,1.1-0.4C86.3,174,86.4,173.7,86.4,173.3z"/>
		<path id="XMLID_506_" d="M93.5,171.7v4.8h-2.4v-8.6h2.4v1c0.7-0.7,1.5-1.1,2.4-1.1s1.7,0.3,2.3,1c0.6,0.6,0.9,1.5,0.9,2.6v5.2
			h-2.4v-4.9c0-1.3-0.5-2-1.5-2c-0.5,0-0.9,0.2-1.3,0.5C93.6,170.6,93.5,171.1,93.5,171.7z"/>
		<path id="XMLID_508_" d="M105.4,174.5c0.8,0,1.5-0.4,2.2-1.2l1.4,1.6c-1.1,1.2-2.3,1.7-3.6,1.7c-1.3,0-2.4-0.4-3.3-1.2
			c-0.9-0.8-1.3-1.9-1.3-3.2s0.5-2.4,1.4-3.2c0.9-0.8,2-1.2,3.2-1.2c0.6,0,1.2,0.1,1.9,0.4c0.6,0.3,1.2,0.6,1.7,1.1l-1.2,1.6
			c-0.3-0.3-0.6-0.6-1-0.8c-0.4-0.2-0.8-0.3-1.2-0.3c-0.6,0-1.2,0.2-1.6,0.6s-0.7,1-0.7,1.7c0,0.7,0.2,1.3,0.7,1.7
			S104.8,174.5,105.4,174.5z"/>
		<path id="XMLID_510_" d="M118,175.3c-1,0.9-2.1,1.4-3.4,1.4s-2.4-0.4-3.2-1.2c-0.9-0.8-1.3-1.9-1.3-3.2s0.4-2.4,1.3-3.2
			c0.9-0.8,1.9-1.2,3.1-1.2s2.2,0.4,3,1.1c0.8,0.7,1.2,1.7,1.2,2.9v1.3h-6.3c0.1,0.5,0.3,0.9,0.7,1.2c0.4,0.3,0.9,0.4,1.4,0.4
			c0.8,0,1.5-0.3,2.1-0.8L118,175.3z M115.7,170.2c-0.3-0.3-0.7-0.4-1.2-0.4s-0.9,0.1-1.3,0.4s-0.6,0.7-0.7,1.2h3.8
			C116.3,170.9,116.1,170.5,115.7,170.2z"/>
	</g>
	<g id="XMLID_468_">
		<path id="XMLID_469_" d="M54.4,290.9c-1.1,1.1-2.5,1.7-4.2,1.7s-3-0.6-4.2-1.7c-1.1-1.1-1.7-2.5-1.7-4.1s0.6-3,1.7-4.1
			c1.1-1.1,2.5-1.7,4.2-1.7s3,0.6,4.2,1.7c1.1,1.1,1.7,2.5,1.7,4.1S55.6,289.8,54.4,290.9z M53.6,286.8c0-1-0.3-1.8-1-2.6
			s-1.4-1.1-2.4-1.1c-0.9,0-1.7,0.4-2.4,1.1c-0.6,0.7-1,1.6-1,2.6c0,1,0.3,1.8,1,2.5c0.6,0.7,1.4,1,2.4,1c0.9,0,1.7-0.3,2.4-1
			C53.3,288.6,53.6,287.8,53.6,286.8z"/>
		<path id="XMLID_472_" d="M63,283.7c1,0,1.9,0.4,2.7,1.3c0.8,0.8,1.2,1.9,1.2,3.2s-0.4,2.3-1.2,3.2c-0.8,0.9-1.7,1.3-2.8,1.3
			c-1.1,0-1.9-0.4-2.5-1.3v4.2H58v-11.7h2.4v1C61.1,284.1,62,283.7,63,283.7z M60.4,288.1c0,0.7,0.2,1.3,0.6,1.7s0.9,0.7,1.4,0.7
			s1-0.2,1.5-0.7s0.6-1,0.6-1.7s-0.2-1.3-0.6-1.7c-0.4-0.5-0.9-0.7-1.5-0.7s-1,0.2-1.4,0.7S60.4,287.4,60.4,288.1z"/>
		<path id="XMLID_475_" d="M76.1,291.2c-1,0.9-2.1,1.4-3.4,1.4s-2.4-0.4-3.2-1.2c-0.9-0.8-1.3-1.9-1.3-3.2c0-1.4,0.4-2.4,1.3-3.2
			c0.9-0.8,1.9-1.2,3.1-1.2s2.2,0.4,3,1.1c0.8,0.7,1.2,1.7,1.2,2.9v1.3h-6.3c0.1,0.5,0.3,0.9,0.7,1.2c0.4,0.3,0.9,0.4,1.4,0.4
			c0.8,0,1.5-0.3,2.1-0.8L76.1,291.2z M73.8,286.1c-0.3-0.3-0.7-0.4-1.2-0.4s-0.9,0.1-1.3,0.4s-0.6,0.7-0.7,1.2h3.8
			C74.3,286.8,74.1,286.4,73.8,286.1z"/>
		<path id="XMLID_478_" d="M83.1,285.9c-0.7,0-1.2,0.3-1.6,0.8c-0.4,0.5-0.5,1.2-0.5,2v3.7h-2.4v-8.6H81v1.1
			c0.3-0.4,0.7-0.7,1.2-0.9c0.5-0.2,0.9-0.4,1.4-0.4l0,2.3H83.1z"/>
		<path id="XMLID_480_" d="M92.4,292.4h-2.3v-1c-0.6,0.8-1.4,1.2-2.3,1.2s-1.7-0.3-2.3-0.8c-0.6-0.5-0.9-1.2-0.9-2.1s0.3-1.5,1-2
			c0.6-0.4,1.5-0.7,2.6-0.7H90v0c0-0.9-0.5-1.4-1.5-1.4c-0.4,0-0.9,0.1-1.3,0.2s-0.9,0.4-1.2,0.6l-1.1-1.6c1.1-0.8,2.4-1.2,3.9-1.2
			c1,0,1.9,0.3,2.6,0.8c0.7,0.5,1,1.3,1,2.5V292.4z M89.9,289.2v-0.4h-1.5c-1,0-1.4,0.3-1.4,0.9c0,0.3,0.1,0.5,0.3,0.7
			c0.2,0.2,0.6,0.2,1,0.2c0.4,0,0.8-0.1,1.1-0.4C89.8,289.9,89.9,289.6,89.9,289.2z"/>
		<path id="XMLID_483_" d="M97.3,285.6v3.9c0,0.3,0.1,0.6,0.3,0.8s0.4,0.3,0.6,0.3c0.4,0,0.8-0.2,1.1-0.6l0.9,1.7
			c-0.7,0.7-1.5,1-2.4,1c-0.8,0-1.5-0.3-2.1-0.8c-0.6-0.5-0.9-1.3-0.9-2.2v-4h-1v-1.7h1v-2.6h2.4v2.6h2.1v1.7H97.3z"/>
		<path id="XMLID_485_" d="M101.7,282.7c-0.3-0.3-0.4-0.6-0.4-1s0.1-0.7,0.4-1c0.3-0.3,0.6-0.4,1-0.4s0.7,0.1,1,0.4
			c0.3,0.3,0.4,0.6,0.4,1s-0.1,0.7-0.4,1c-0.3,0.3-0.6,0.4-1,0.4S102,283,101.7,282.7z M103.9,292.4h-2.4v-8.6h2.4V292.4z"/>
		<path id="XMLID_488_" d="M114.8,288.1c0,1.2-0.4,2.3-1.3,3.2c-0.9,0.9-1.9,1.3-3.3,1.3s-2.4-0.4-3.3-1.3c-0.9-0.9-1.3-1.9-1.3-3.2
			s0.4-2.3,1.3-3.2c0.9-0.9,1.9-1.3,3.3-1.3s2.4,0.4,3.3,1.3C114.3,285.8,114.8,286.9,114.8,288.1z M108.1,288.1
			c0,0.7,0.2,1.3,0.6,1.7c0.4,0.4,0.9,0.7,1.5,0.7s1.1-0.2,1.5-0.7s0.6-1,0.6-1.7s-0.2-1.3-0.6-1.7s-0.9-0.7-1.5-0.7
			s-1.1,0.2-1.5,0.7C108.3,286.9,108.1,287.4,108.1,288.1z"/>
		<path id="XMLID_491_" d="M119,287.6v4.8h-2.4v-8.6h2.4v1c0.7-0.7,1.5-1.1,2.4-1.1s1.7,0.3,2.3,1c0.6,0.6,0.9,1.5,0.9,2.6v5.2h-2.4
			v-4.9c0-1.3-0.5-2-1.5-2c-0.5,0-0.9,0.2-1.3,0.5S119,287,119,287.6z"/>
		<path id="XMLID_493_" d="M133.3,289.8c0,0.8-0.3,1.5-0.9,2c-0.6,0.5-1.4,0.8-2.4,0.8c-0.6,0-1.3-0.1-2-0.3c-0.7-0.2-1.3-0.6-1.9-1
			l1.1-1.5c0.9,0.7,1.9,1,2.9,1c0.3,0,0.6-0.1,0.7-0.2s0.3-0.3,0.3-0.5c0-0.2-0.1-0.4-0.4-0.6s-0.6-0.3-1.1-0.5s-0.8-0.3-1.1-0.4
			c-0.3-0.1-0.5-0.3-0.9-0.5c-0.7-0.4-1-1-1-1.8c0-0.8,0.3-1.4,1-1.9c0.6-0.5,1.5-0.8,2.5-0.8c1,0,2,0.3,3,1l-0.9,1.6
			c-0.7-0.5-1.5-0.8-2.2-0.8c-0.7,0-1.1,0.2-1.1,0.6c0,0.2,0.1,0.4,0.4,0.5s0.6,0.3,1.2,0.4c0.5,0.2,0.9,0.3,1.2,0.4
			s0.5,0.2,0.8,0.4C133,288.3,133.3,288.9,133.3,289.8z"/>
	</g>
	<g id="XMLID_447_">
		<path id="XMLID_448_" d="M683.3,47.2c1.2,0,2.2-0.5,3-1.5l1.6,1.6c-1.3,1.4-2.8,2.1-4.5,2.1s-3.1-0.5-4.3-1.6s-1.7-2.5-1.7-4.1
			s0.6-3,1.7-4.2s2.5-1.7,4.2-1.7c1.8,0,3.4,0.7,4.6,2.1l-1.6,1.8c-0.8-1-1.8-1.5-2.9-1.5c-0.9,0-1.7,0.3-2.4,0.9
			c-0.7,0.6-1,1.4-1,2.5c0,1,0.3,1.9,0.9,2.5C681.6,46.9,682.4,47.2,683.3,47.2z"/>
		<path id="XMLID_450_" d="M695,45.5v-4.6h2.4v8.6H695v-1.1c-0.6,0.8-1.4,1.3-2.3,1.3s-1.7-0.3-2.4-0.9c-0.6-0.6-1-1.5-1-2.6v-5.2
			h2.4v4.7c0,1.3,0.5,2,1.5,2c0.5,0,0.9-0.2,1.2-0.5C694.9,46.6,695,46.1,695,45.5z"/>
		<path id="XMLID_452_" d="M706.2,46.8c0,0.8-0.3,1.5-0.9,2c-0.6,0.5-1.4,0.8-2.4,0.8c-0.6,0-1.3-0.1-2-0.3c-0.7-0.2-1.3-0.6-1.9-1
			l1.1-1.5c0.9,0.7,1.9,1,2.9,1c0.3,0,0.6-0.1,0.7-0.2s0.3-0.3,0.3-0.5c0-0.2-0.1-0.4-0.4-0.6c-0.3-0.2-0.6-0.3-1.1-0.5
			c-0.5-0.1-0.8-0.3-1.1-0.4c-0.3-0.1-0.5-0.3-0.9-0.5c-0.7-0.4-1-1-1-1.8c0-0.8,0.3-1.4,1-1.9c0.6-0.5,1.5-0.8,2.5-0.8s2,0.3,3,1
			l-0.9,1.6c-0.7-0.5-1.5-0.8-2.2-0.8s-1.1,0.2-1.1,0.6c0,0.2,0.1,0.4,0.4,0.5c0.2,0.1,0.6,0.3,1.2,0.4c0.5,0.2,0.9,0.3,1.2,0.4
			c0.2,0.1,0.5,0.2,0.8,0.4C705.9,45.3,706.2,45.9,706.2,46.8z"/>
		<path id="XMLID_454_" d="M710.8,42.6v3.9c0,0.3,0.1,0.6,0.3,0.8c0.2,0.2,0.4,0.3,0.6,0.3c0.4,0,0.8-0.2,1.1-0.6l0.9,1.7
			c-0.7,0.7-1.5,1-2.4,1c-0.8,0-1.5-0.3-2.1-0.8c-0.6-0.5-0.9-1.3-0.9-2.2v-4h-1v-1.7h1v-2.6h2.4v2.6h2.1v1.7H710.8z"/>
		<path id="XMLID_456_" d="M723.5,45.1c0,1.2-0.4,2.3-1.3,3.2c-0.9,0.9-2,1.3-3.3,1.3c-1.3,0-2.4-0.4-3.3-1.3
			c-0.9-0.9-1.3-1.9-1.3-3.2c0-1.2,0.4-2.3,1.3-3.2c0.9-0.9,1.9-1.3,3.3-1.3c1.3,0,2.4,0.4,3.3,1.3
			C723.1,42.8,723.5,43.9,723.5,45.1z M716.8,45.1c0,0.7,0.2,1.3,0.6,1.7c0.4,0.4,0.9,0.7,1.5,0.7s1.1-0.2,1.5-0.7
			c0.4-0.4,0.6-1,0.6-1.7c0-0.7-0.2-1.3-0.6-1.7c-0.4-0.4-0.9-0.7-1.5-0.7s-1.1,0.2-1.5,0.7C717,43.9,716.8,44.4,716.8,45.1z"/>
		<path id="XMLID_459_" d="M733.2,44.8v4.6h-2.4v-4.7c0-0.7-0.1-1.2-0.3-1.5s-0.5-0.5-1-0.5s-0.9,0.2-1.2,0.5s-0.5,0.9-0.5,1.5v4.6
			h-2.4v-8.6h2.4v1c0.7-0.7,1.4-1.1,2.3-1.1c0.5,0,1,0.2,1.5,0.5s0.8,0.7,1,1.2c0.3-0.5,0.8-0.9,1.3-1.2c0.6-0.3,1.1-0.4,1.7-0.4
			c1,0,1.8,0.3,2.4,0.9c0.6,0.6,0.9,1.5,0.9,2.6v5.2h-2.4v-4.7c0-1.3-0.5-2-1.5-2c-0.5,0-0.9,0.2-1.2,0.5
			C733.4,43.6,733.2,44.1,733.2,44.8z"/>
		<path id="XMLID_461_" d="M748.5,48.2c-1,0.9-2.1,1.4-3.4,1.4s-2.4-0.4-3.2-1.2c-0.9-0.8-1.3-1.9-1.3-3.2s0.4-2.4,1.3-3.2
			c0.9-0.8,1.9-1.2,3.1-1.2s2.2,0.4,3,1.1c0.8,0.7,1.2,1.7,1.2,2.9V46h-6.3c0.1,0.5,0.3,0.9,0.7,1.2c0.4,0.3,0.9,0.4,1.4,0.4
			c0.8,0,1.5-0.3,2.1-0.8L748.5,48.2z M746.2,43.1c-0.3-0.3-0.7-0.4-1.2-0.4s-0.9,0.1-1.3,0.4c-0.4,0.3-0.6,0.7-0.7,1.2h3.8
			C746.7,43.8,746.5,43.4,746.2,43.1z"/>
		<path id="XMLID_464_" d="M755.4,42.9c-0.7,0-1.2,0.3-1.6,0.8c-0.4,0.5-0.5,1.2-0.5,2v3.7h-2.4v-8.6h2.4V42
			c0.3-0.4,0.7-0.7,1.2-0.9c0.5-0.2,0.9-0.4,1.4-0.4l0,2.3H755.4z"/>
		<path id="XMLID_466_" d="M763.9,46.8c0,0.8-0.3,1.5-0.9,2c-0.6,0.5-1.4,0.8-2.4,0.8c-0.6,0-1.3-0.1-2-0.3c-0.7-0.2-1.3-0.6-1.9-1
			l1.1-1.5c0.9,0.7,1.9,1,2.9,1c0.3,0,0.6-0.1,0.7-0.2s0.3-0.3,0.3-0.5c0-0.2-0.1-0.4-0.4-0.6c-0.3-0.2-0.6-0.3-1.1-0.5
			c-0.5-0.1-0.8-0.3-1.1-0.4c-0.3-0.1-0.5-0.3-0.9-0.5c-0.7-0.4-1-1-1-1.8c0-0.8,0.3-1.4,1-1.9c0.6-0.5,1.5-0.8,2.5-0.8s2,0.3,3,1
			l-0.9,1.6c-0.7-0.5-1.5-0.8-2.2-0.8s-1.1,0.2-1.1,0.6c0,0.2,0.1,0.4,0.4,0.5c0.2,0.1,0.6,0.3,1.2,0.4c0.5,0.2,0.9,0.3,1.2,0.4
			c0.2,0.1,0.5,0.2,0.8,0.4C763.6,45.3,763.9,45.9,763.9,46.8z"/>
	</g>
	<g id="XMLID_410_">
		<path id="XMLID_411_" d="M693.4,167.5c0.8,0.7,1.2,1.7,1.2,3.1s-0.4,2.4-1.2,3s-2,1-3.7,1h-1.5v3.1h-2.5v-11.2h4
			C691.4,166.5,692.6,166.9,693.4,167.5z M691.6,171.9c0.3-0.3,0.4-0.8,0.4-1.5s-0.2-1.1-0.6-1.4c-0.4-0.3-1-0.4-1.8-0.4h-1.4v3.8
			h1.7C690.7,172.4,691.3,172.3,691.6,171.9z"/>
		<path id="XMLID_414_" d="M703.5,177.7h-2.3v-1c-0.6,0.8-1.4,1.2-2.3,1.2c-0.9,0-1.7-0.3-2.3-0.8c-0.6-0.5-0.9-1.2-0.9-2.1
			s0.3-1.5,1-2c0.6-0.4,1.5-0.7,2.6-0.7h1.8v0c0-0.9-0.5-1.4-1.5-1.4c-0.4,0-0.9,0.1-1.3,0.2c-0.5,0.2-0.9,0.4-1.2,0.6l-1.1-1.6
			c1.1-0.8,2.4-1.2,3.9-1.2c1,0,1.9,0.3,2.6,0.8c0.7,0.5,1,1.3,1,2.5V177.7z M701,174.4V174h-1.5c-1,0-1.4,0.3-1.4,0.9
			c0,0.3,0.1,0.5,0.3,0.7s0.6,0.2,1,0.2s0.8-0.1,1.1-0.4S701,174.9,701,174.4z"/>
		<path id="XMLID_417_" d="M710.2,171.2c-0.7,0-1.2,0.3-1.6,0.8c-0.4,0.5-0.5,1.2-0.5,2v3.7h-2.4v-8.6h2.4v1.1
			c0.3-0.4,0.7-0.7,1.2-0.9c0.5-0.2,0.9-0.4,1.4-0.4l0,2.3H710.2z"/>
		<path id="XMLID_419_" d="M715.1,170.8v3.9c0,0.3,0.1,0.6,0.3,0.8c0.2,0.2,0.4,0.3,0.6,0.3c0.4,0,0.8-0.2,1.1-0.6l0.9,1.7
			c-0.7,0.7-1.5,1-2.4,1c-0.8,0-1.5-0.3-2.1-0.8c-0.6-0.5-0.9-1.3-0.9-2.2v-4h-1v-1.7h1v-2.6h2.4v2.6h2.1v1.7H715.1z"/>
		<path id="XMLID_421_" d="M721.7,172.9v4.8h-2.4v-8.6h2.4v1c0.7-0.7,1.5-1.1,2.4-1.1c0.9,0,1.7,0.3,2.3,1s0.9,1.5,0.9,2.6v5.2h-2.4
			v-4.9c0-1.3-0.5-2-1.5-2c-0.5,0-0.9,0.2-1.3,0.5C721.8,171.7,721.7,172.2,721.7,172.9z"/>
		<path id="XMLID_423_" d="M736.9,176.5c-1,0.9-2.1,1.4-3.4,1.4s-2.4-0.4-3.2-1.2c-0.9-0.8-1.3-1.9-1.3-3.2s0.4-2.4,1.3-3.2
			c0.9-0.8,1.9-1.2,3.1-1.2s2.2,0.4,3,1.1c0.8,0.7,1.2,1.7,1.2,2.9v1.3h-6.3c0.1,0.5,0.3,0.9,0.7,1.2c0.4,0.3,0.9,0.4,1.4,0.4
			c0.8,0,1.5-0.3,2.1-0.8L736.9,176.5z M734.6,171.4c-0.3-0.3-0.7-0.4-1.2-0.4s-0.9,0.1-1.3,0.4c-0.4,0.3-0.6,0.7-0.7,1.2h3.8
			C735.2,172,735,171.6,734.6,171.4z"/>
		<path id="XMLID_443_" d="M743.9,171.2c-0.7,0-1.2,0.3-1.6,0.8c-0.4,0.5-0.5,1.2-0.5,2v3.7h-2.4v-8.6h2.4v1.1
			c0.3-0.4,0.7-0.7,1.2-0.9c0.5-0.2,0.9-0.4,1.4-0.4l0,2.3H743.9z"/>
		<path id="XMLID_445_" d="M752.4,175c0,0.8-0.3,1.5-0.9,2c-0.6,0.5-1.4,0.8-2.4,0.8c-0.6,0-1.3-0.1-2-0.3c-0.7-0.2-1.3-0.6-1.9-1
			l1.1-1.5c0.9,0.7,1.9,1,2.9,1c0.3,0,0.6-0.1,0.7-0.2s0.3-0.3,0.3-0.5c0-0.2-0.1-0.4-0.4-0.6c-0.3-0.2-0.6-0.3-1.1-0.5
			c-0.5-0.1-0.8-0.3-1.1-0.4c-0.3-0.1-0.5-0.3-0.9-0.5c-0.7-0.4-1-1-1-1.8c0-0.8,0.3-1.4,1-1.9c0.6-0.5,1.5-0.8,2.5-0.8s2,0.3,3,1
			l-0.9,1.6c-0.7-0.5-1.5-0.8-2.2-0.8s-1.1,0.2-1.1,0.6c0,0.2,0.1,0.4,0.4,0.5c0.2,0.1,0.6,0.3,1.2,0.4c0.5,0.2,0.9,0.3,1.2,0.4
			c0.2,0.1,0.5,0.2,0.8,0.4C752.1,173.6,752.4,174.2,752.4,175z"/>
	</g>
	<g id="XMLID_382_">
		<path id="XMLID_383_" d="M694,281.9c0.8,0.7,1.2,1.7,1.2,3.1c0,1.4-0.4,2.4-1.2,3s-2,1-3.7,1h-1.5v3.1h-2.5v-11.2h4
			C692,280.9,693.2,281.3,694,281.9z M692.2,286.3c0.3-0.3,0.4-0.8,0.4-1.5s-0.2-1.1-0.6-1.4c-0.4-0.3-1-0.4-1.8-0.4h-1.4v3.8h1.7
			C691.3,286.8,691.9,286.7,692.2,286.3z"/>
		<path id="XMLID_386_" d="M701.4,285.6c-0.7,0-1.2,0.3-1.6,0.8c-0.4,0.5-0.5,1.2-0.5,2v3.7h-2.4v-8.6h2.4v1.1
			c0.3-0.4,0.7-0.7,1.2-0.9c0.5-0.2,0.9-0.4,1.4-0.4l0,2.3H701.4z"/>
		<path id="XMLID_388_" d="M712,287.8c0,1.2-0.4,2.3-1.3,3.2c-0.9,0.9-2,1.3-3.3,1.3c-1.3,0-2.4-0.4-3.3-1.3
			c-0.9-0.9-1.3-1.9-1.3-3.2s0.4-2.3,1.3-3.2c0.9-0.9,1.9-1.3,3.3-1.3c1.3,0,2.4,0.4,3.3,1.3C711.5,285.5,712,286.6,712,287.8z
			 M705.3,287.8c0,0.7,0.2,1.3,0.6,1.7c0.4,0.4,0.9,0.7,1.5,0.7s1.1-0.2,1.5-0.7c0.4-0.4,0.6-1,0.6-1.7s-0.2-1.3-0.6-1.7
			c-0.4-0.4-0.9-0.7-1.5-0.7s-1.1,0.2-1.5,0.7C705.5,286.5,705.3,287.1,705.3,287.8z"/>
		<path id="XMLID_391_" d="M715.9,292.1l-3.4-8.6h2.5l2.1,5.4l2.1-5.4h2.5l-3.4,8.6H715.9z"/>
		<path id="XMLID_393_" d="M723.1,282.4c-0.3-0.3-0.4-0.6-0.4-1s0.1-0.7,0.4-1c0.3-0.3,0.6-0.4,1-0.4s0.7,0.1,1,0.4
			c0.3,0.3,0.4,0.6,0.4,1s-0.1,0.7-0.4,1c-0.3,0.3-0.6,0.4-1,0.4S723.4,282.7,723.1,282.4z M725.3,292.1h-2.4v-8.6h2.4V292.1z"/>
		<path id="XMLID_396_" d="M731.1,292.2c-1,0-1.9-0.4-2.7-1.3c-0.8-0.9-1.2-1.9-1.2-3.2s0.4-2.3,1.2-3.1c0.8-0.8,1.7-1.2,2.7-1.2
			c1,0,1.9,0.4,2.6,1.1v-4.2h2.4v11.9h-2.4V291C732.9,291.8,732.1,292.2,731.1,292.2z M729.5,287.8c0,0.7,0.2,1.3,0.6,1.7
			s0.9,0.7,1.5,0.7c0.6,0,1-0.2,1.4-0.7c0.4-0.4,0.6-1,0.6-1.7s-0.2-1.3-0.6-1.7c-0.4-0.5-0.9-0.7-1.4-0.7s-1.1,0.2-1.5,0.7
			C729.7,286.5,729.5,287.1,729.5,287.8z"/>
		<path id="XMLID_399_" d="M745.7,290.9c-1,0.9-2.1,1.4-3.4,1.4s-2.4-0.4-3.2-1.2c-0.9-0.8-1.3-1.9-1.3-3.2c0-1.4,0.4-2.4,1.3-3.2
			s1.9-1.2,3.1-1.2s2.2,0.4,3,1.1c0.8,0.7,1.2,1.7,1.2,2.9v1.3h-6.3c0.1,0.5,0.3,0.9,0.7,1.2s0.9,0.4,1.4,0.4c0.8,0,1.5-0.3,2.1-0.8
			L745.7,290.9z M743.4,285.8c-0.3-0.3-0.7-0.4-1.2-0.4s-0.9,0.1-1.3,0.4c-0.4,0.3-0.6,0.7-0.7,1.2h3.8
			C743.9,286.4,743.7,286,743.4,285.8z"/>
		<path id="XMLID_403_" d="M752.7,285.6c-0.7,0-1.2,0.3-1.6,0.8c-0.4,0.5-0.5,1.2-0.5,2v3.7h-2.4v-8.6h2.4v1.1
			c0.3-0.4,0.7-0.7,1.2-0.9c0.5-0.2,0.9-0.4,1.4-0.4l0,2.3H752.7z"/>
		<path id="XMLID_405_" d="M761.1,289.4c0,0.8-0.3,1.5-0.9,2c-0.6,0.5-1.4,0.8-2.4,0.8c-0.6,0-1.3-0.1-2-0.3s-1.3-0.6-1.9-1l1.1-1.5
			c0.9,0.7,1.9,1,2.9,1c0.3,0,0.6-0.1,0.7-0.2s0.3-0.3,0.3-0.5c0-0.2-0.1-0.4-0.4-0.6c-0.3-0.2-0.6-0.3-1.1-0.5
			c-0.5-0.1-0.8-0.3-1.1-0.4c-0.3-0.1-0.5-0.3-0.9-0.5c-0.7-0.4-1-1-1-1.8c0-0.8,0.3-1.4,1-1.9c0.6-0.5,1.5-0.8,2.5-0.8s2,0.3,3,1
			l-0.9,1.6c-0.7-0.5-1.5-0.8-2.2-0.8s-1.1,0.2-1.1,0.6c0,0.2,0.1,0.4,0.4,0.5c0.2,0.1,0.6,0.3,1.2,0.4c0.5,0.2,0.9,0.3,1.2,0.4
			c0.2,0.1,0.5,0.2,0.8,0.4C760.8,288,761.1,288.6,761.1,289.4z"/>
	</g>
	<path id="XMLID_91_" class="st8" d="M483.5,275.4H324.9c-6.6,0-12-5.4-12-12v-119c0-6.6,5.4-12,12-12h158.6c6.6,0,12,5.4,12,12v119
		C495.5,270,490.1,275.4,483.5,275.4z"/>
	<line id="XMLID_110_" class="st8" x1="111" y1="210.8" x2="184" y2="210.8"/>
	<circle id="XMLID_109_" class="st8" cx="201.9" cy="116.6" r="15.7"/>
	<circle id="XMLID_111_" class="st8" cx="201.9" cy="210.3" r="15.7"/>
	<circle id="XMLID_112_" class="st8" cx="202.8" cy="295.1" r="15.7"/>
	<path id="XMLID_113_" class="st8" d="M112.4,87c0,0,23.5-3.2,41.7,15c1.8,1.9,16.3,17.3,31.7,16.1"/>
	<path id="XMLID_107_" class="st8" d="M111.1,327.5c0,0,24.5,1.8,42.9-16.7c0,0,17.4-17.1,33.1-15.8"/>
	<path id="XMLID_118_" class="st8" d="M269.5,138.3c-23.5-23.2-52-20.4-52-20.4"/>
	<path id="XMLID_117_" class="st8" d="M267.3,136.7c-20-25.8-49.9-20-49.9-20"/>
	<path id="XMLID_114_" class="st8" d="M314.1,148.6c-30.2,0.8-45.1-10.6-45.1-10.6c-25.9-19.6-55.9-19-50.2-18.9"/>
	<polygon id="XMLID_115_" class="st9" points="181.5,117.9 181.5,115.4 183.3,116.6 185.2,117.9 183.3,119.1 181.5,120.3 	"/>
	<polygon id="XMLID_119_" class="st9" points="182.8,211.6 182.7,209.2 184.4,210.3 186.1,211.5 184.5,212.8 182.9,214.1 	"/>
	<polygon id="XMLID_120_" class="st9" points="182.8,295.5 182.7,293 184.4,294.2 186.1,295.3 184.5,296.6 182.9,297.9 	"/>
	<polygon id="XMLID_121_" class="st9" points="268,138.1 269.7,134.9 270.7,137.5 271.7,140.1 269,140.7 266.3,141.3 	"/>
	
		<image style="overflow:visible;" width="1600" height="1200" id="XMLID_93_" xlink:href="../../../../../Downloads/0c481c9f87a700d87364029599322f71.png"  transform="matrix(1 0 0 1 -180 -1430.1353)">
	</image>
	<path id="XMLID_96_" class="st8" d="M217.4,210c0,0,8.7-11.5,31.4-4.2c0,0,26.3,7,63.7,6H218"/>
	<path id="XMLID_94_" class="st8" d="M217.6,213.5c0,0,8.6,12.4,31.3,5c0,0,26.2-7.8,63.7-6.1"/>
	<polygon id="XMLID_95_" class="st9" points="288.9,212.5 288.8,210.1 290.5,211.2 292.3,212.4 290.7,213.7 289,215 	"/>
	<path id="XMLID_102_" class="st8" d="M269.2,274.9c-23.5,23.2-50.9,20.4-50.9,20.4"/>
	<path id="XMLID_101_" class="st8" d="M268.2,275.4c-20,25.8-49.9,20-49.9,20"/>
	<path id="XMLID_100_" class="st8" d="M312.6,264.6c-30.2-0.8-43.9,10.6-43.9,10.6c-25.9,19.7-51.4,20.2-49,20.1"/>
	<polygon id="XMLID_99_" class="st9" points="268.9,275.1 270.6,278.3 271.6,275.8 272.6,273.1 269.9,272.5 267.2,271.9 	"/>
	<circle id="XMLID_68_" class="st8" cx="85.7" cy="211.3" r="24.9"/>
	<circle id="XMLID_1_" class="st8" cx="86.4" cy="327.7" r="24.6"/>
	<circle id="XMLID_186_" class="st8" cx="722.4" cy="83.8" r="25.7"/>
	<line id="XMLID_178_" class="st8" x1="698" y1="210.8" x2="625" y2="210.8"/>
	<circle id="XMLID_177_" class="st8" cx="607.2" cy="116.6" r="15.7"/>
	<circle id="XMLID_176_" class="st8" cx="607.2" cy="210.3" r="15.7"/>
	<circle id="XMLID_175_" class="st8" cx="606.3" cy="295.1" r="15.7"/>
	<path id="XMLID_174_" class="st8" d="M696.7,87c0,0-23.5-3.2-41.7,15c-1.8,1.9-16.3,17.3-31.7,16.1"/>
	<path id="XMLID_173_" class="st8" d="M698,327.5c0,0-24.5,1.8-42.9-16.7c0,0-17.4-17.1-33.1-15.8"/>
	<path id="XMLID_171_" class="st8" d="M540.8,138.3c23.5-23.2,50.9-20.4,50.9-20.4"/>
	<path id="XMLID_170_" class="st8" d="M541.7,137.9c20-25.8,49.9-20,49.9-20"/>
	<path id="XMLID_169_" class="st8" d="M496.2,148.6c30.2,0.8,45.1-10.6,45.1-10.6c25.9-19.7,52.6-20.2,50.2-20.1"/>
	<polygon id="XMLID_168_" class="st9" points="627.5,117.9 627.5,115.4 625.7,116.6 623.9,117.9 625.7,119.1 627.5,120.3 	"/>
	<polygon id="XMLID_167_" class="st9" points="626.3,211.6 626.4,209.2 624.7,210.3 622.9,211.5 624.5,212.8 626.2,214.1 	"/>
	<polygon id="XMLID_166_" class="st9" points="626.3,295.5 626.4,293 624.7,294.2 622.9,295.3 624.5,296.6 626.2,297.9 	"/>
	<polygon id="XMLID_165_" class="st9" points="541,138.1 539.3,134.9 538.3,137.5 537.3,140.1 540,140.7 542.7,141.3 	"/>
	<path id="XMLID_164_" class="st8" d="M591.5,210c0,0-8.6-11.5-31.3-4.2c0,0-26.2,7-63.7,6H592"/>
	<path id="XMLID_163_" class="st8" d="M591.5,213.5c0,0-8.6,12.4-31.3,5c0,0-26.2-7.8-63.7-6.1"/>
	<polygon id="XMLID_162_" class="st9" points="520.1,212.5 520.2,210.1 518.5,211.2 516.7,212.4 518.4,213.7 520,215 	"/>
	<path id="XMLID_161_" class="st8" d="M539.9,274.9c23.5,23.2,50.9,20.4,50.9,20.4"/>
	<path id="XMLID_160_" class="st8" d="M540.8,275.4c20,25.8,49.9,20,49.9,20"/>
	<path id="XMLID_159_" class="st8" d="M495.3,264.6c30.2-0.8,45.1,10.6,45.1,10.6c25.9,19.7,52.6,20.2,50.2,20.1"/>
	<polygon id="XMLID_158_" class="st9" points="540.1,275.1 538.4,278.3 537.5,275.8 536.4,273.1 539.1,272.5 541.9,271.9 	"/>
	<circle id="XMLID_142_" class="st8" cx="723.3" cy="211.3" r="24.9"/>
	<circle id="XMLID_125_" class="st8" cx="722.6" cy="327.7" r="24.6"/>
	<circle id="XMLID_135_" class="st10" cx="87.4" cy="83.2" r="18"/>
	<g id="XMLID_15_">
		<path id="XMLID_29_" class="st11" d="M99.2,73.8L99.2,73.8c-0.4-2.2-5.5-4-11.8-4c-6.3,0-11.5,1.7-11.8,4l0,0h0v0.2v5.7V80v0.2
			v5.4v0.2v0.2v5.9h0c0.4,2.2,5.5,4,11.8,4c6.3,0,11.5-1.7,11.8-4h0v-5.9v-0.2v-0.2v-5.4V80v-0.2v-5.7L99.2,73.8L99.2,73.8z"/>
		<g id="XMLID_25_">
			<path id="XMLID_28_" class="st11" d="M87.4,90.1c-6.6,0-11.9-1.9-11.9-4.2v6.2h0c0.4,2.2,5.5,4,11.8,4c6.3,0,11.5-1.7,11.8-4h0
				v-6.2C99.3,88.2,93.9,90.1,87.4,90.1z"/>
			<path id="XMLID_27_" class="st11" d="M75.5,85.7v0.2C75.5,85.8,75.5,85.8,75.5,85.7L75.5,85.7z"/>
			<path id="XMLID_26_" class="st11" d="M99.2,85.7c0,0.1,0,0.2,0,0.2L99.2,85.7L99.2,85.7z"/>
		</g>
		<g id="XMLID_21_">
			<path id="XMLID_24_" class="st11" d="M87.4,84.2c-6.6,0-11.9-1.9-11.9-4.2v6.2h0c0.4,2.2,5.5,4,11.8,4c6.3,0,11.5-1.7,11.8-4h0
				V80C99.3,82.3,93.9,84.2,87.4,84.2z"/>
			<path id="XMLID_23_" class="st11" d="M75.5,79.7V80C75.5,79.9,75.5,79.8,75.5,79.7L75.5,79.7z"/>
			<path id="XMLID_22_" class="st11" d="M99.2,79.7c0,0.1,0,0.2,0,0.2L99.2,79.7L99.2,79.7z"/>
		</g>
		<ellipse id="XMLID_20_" class="st11" cx="87.4" cy="74.1" rx="11.9" ry="4.2"/>
		<g id="XMLID_16_">
			<path id="XMLID_19_" class="st11" d="M87.4,78.3c-6.6,0-11.9-1.9-11.9-4.2v6.2h0c0.4,2.2,5.5,4,11.8,4c6.3,0,11.5-1.7,11.8-4h0
				v-6.2C99.3,76.4,93.9,78.3,87.4,78.3z"/>
			<path id="XMLID_18_" class="st11" d="M75.5,73.8v0.2C75.5,74,75.5,73.9,75.5,73.8L75.5,73.8z"/>
			<path id="XMLID_17_" class="st11" d="M99.2,73.8c0,0.1,0,0.2,0,0.2L99.2,73.8L99.2,73.8z"/>
		</g>
	</g>
	<circle id="XMLID_69_" class="st10" cx="86.2" cy="211.3" r="18"/>
	<g id="XMLID_7_">
		<path id="XMLID_66_" class="st11" d="M98,201.9L98,201.9c-0.4-2.2-5.5-4-11.8-4s-11.5,1.7-11.8,4l0,0h0v0.2v5.7v0.2v0.2v5.4v0.2
			v0.2v5.9h0c0.4,2.2,5.5,4,11.8,4c6.3,0,11.5-1.7,11.8-4h0v-5.9V214v-0.2v-5.4v-0.2v-0.2v-5.7L98,201.9L98,201.9z"/>
		<g id="XMLID_62_">
			<path id="XMLID_65_" class="st11" d="M86.2,218.2c-6.6,0-11.9-1.9-11.9-4.2v6.2h0c0.4,2.2,5.5,4,11.8,4c6.3,0,11.5-1.7,11.8-4h0
				V214C98.1,216.3,92.7,218.2,86.2,218.2z"/>
			<path id="XMLID_64_" class="st11" d="M74.3,213.7v0.2C74.3,213.9,74.3,213.8,74.3,213.7L74.3,213.7z"/>
			<path id="XMLID_63_" class="st11" d="M98,213.7c0,0.1,0,0.2,0,0.2L98,213.7L98,213.7z"/>
		</g>
		<g id="XMLID_58_">
			<path id="XMLID_61_" class="st11" d="M86.2,212.3c-6.6,0-11.9-1.9-11.9-4.2v6.2h0c0.4,2.2,5.5,4,11.8,4c6.3,0,11.5-1.7,11.8-4h0
				v-6.2C98.1,210.4,92.7,212.3,86.2,212.3z"/>
			<path id="XMLID_60_" class="st11" d="M74.3,207.8v0.2C74.3,208,74.3,207.9,74.3,207.8L74.3,207.8z"/>
			<path id="XMLID_59_" class="st11" d="M98,207.8c0,0.1,0,0.2,0,0.2L98,207.8L98,207.8z"/>
		</g>
		<ellipse id="XMLID_57_" class="st11" cx="86.2" cy="202.1" rx="11.9" ry="4.2"/>
		<g id="XMLID_53_">
			<path id="XMLID_56_" class="st11" d="M86.2,206.3c-6.6,0-11.9-1.9-11.9-4.2v6.2h0c0.4,2.2,5.5,4,11.8,4c6.3,0,11.5-1.7,11.8-4h0
				v-6.2C98.1,204.4,92.7,206.3,86.2,206.3z"/>
			<path id="XMLID_55_" class="st11" d="M74.3,201.9v0.2C74.3,202,74.3,202,74.3,201.9L74.3,201.9z"/>
			<path id="XMLID_54_" class="st11" d="M98,201.9c0,0.1,0,0.2,0,0.2L98,201.9L98,201.9z"/>
		</g>
	</g>
	<circle id="XMLID_137_" class="st10" cx="87.4" cy="327.4" r="18"/>
	<g id="XMLID_70_">
		<path id="XMLID_136_" class="st11" d="M99.2,318L99.2,318c-0.4-2.2-5.5-4-11.8-4c-6.3,0-11.5,1.7-11.8,4l0,0h0v0.2v5.7v0.2v0.2
			v5.4v0.2v0.2v5.9h0c0.4,2.2,5.5,4,11.8,4c6.3,0,11.5-1.7,11.8-4h0v-5.9v-0.2v-0.2v-5.4v-0.2v-0.2v-5.7L99.2,318L99.2,318z"/>
		<g id="XMLID_80_">
			<path id="XMLID_84_" class="st11" d="M87.4,334.3c-6.6,0-11.9-1.9-11.9-4.2v6.2h0c0.4,2.2,5.5,4,11.8,4c6.3,0,11.5-1.7,11.8-4h0
				v-6.2C99.3,332.4,93.9,334.3,87.4,334.3z"/>
			<path id="XMLID_83_" class="st11" d="M75.5,329.8v0.2C75.5,330,75.5,329.9,75.5,329.8L75.5,329.8z"/>
			<path id="XMLID_81_" class="st11" d="M99.2,329.8c0,0.1,0,0.2,0,0.2L99.2,329.8L99.2,329.8z"/>
		</g>
		<g id="XMLID_76_">
			<path id="XMLID_79_" class="st11" d="M87.4,328.3c-6.6,0-11.9-1.9-11.9-4.2v6.2h0c0.4,2.2,5.5,4,11.8,4c6.3,0,11.5-1.7,11.8-4h0
				v-6.2C99.3,326.5,93.9,328.3,87.4,328.3z"/>
			<path id="XMLID_78_" class="st11" d="M75.5,323.9v0.2C75.5,324.1,75.5,324,75.5,323.9L75.5,323.9z"/>
			<path id="XMLID_77_" class="st11" d="M99.2,323.9c0,0.1,0,0.2,0,0.2L99.2,323.9L99.2,323.9z"/>
		</g>
		<ellipse id="XMLID_75_" class="st11" cx="87.4" cy="318.2" rx="11.9" ry="4.2"/>
		<g id="XMLID_71_">
			<path id="XMLID_74_" class="st11" d="M87.4,322.4c-6.6,0-11.9-1.9-11.9-4.2v6.2h0c0.4,2.2,5.5,4,11.8,4c6.3,0,11.5-1.7,11.8-4h0
				v-6.2C99.3,320.5,93.9,322.4,87.4,322.4z"/>
			<path id="XMLID_73_" class="st11" d="M75.5,318v0.2C75.5,318.1,75.5,318,75.5,318L75.5,318z"/>
			<path id="XMLID_72_" class="st11" d="M99.2,318c0,0.1,0,0.2,0,0.2L99.2,318L99.2,318z"/>
		</g>
	</g>
	<circle id="XMLID_138_" class="st10" cx="722.9" cy="84.4" r="18"/>
	<g id="XMLID_2_">
		<path id="XMLID_6_" class="st11" d="M722.9,84.2c2.8,0,5-2.7,5-6.1c0-3.4-0.7-6.1-5-6.1s-5,2.7-5,6.1
			C717.9,81.5,720.1,84.2,722.9,84.2z"/>
		<path id="XMLID_5_" class="st11" d="M713.4,93.4C713.4,93.2,713.4,93.4,713.4,93.4L713.4,93.4z"/>
		<path id="XMLID_4_" class="st11" d="M732.3,93.6C732.3,93.6,732.3,93.2,732.3,93.6L732.3,93.6z"/>
		<path id="XMLID_3_" class="st11" d="M732.3,93.2c-0.1-5.8-0.9-7.5-6.7-8.6c0,0-0.8,1-2.7,1c-1.9,0-2.7-1-2.7-1
			c-5.8,1-6.6,2.7-6.7,8.4c0,0.5,0,0.5,0,0.4c0,0.1,0,0.3,0,0.6c0,0,1.4,2.8,9.4,2.8c8.1,0,9.4-2.8,9.4-2.8c0-0.2,0-0.4,0-0.5
			C732.3,93.6,732.3,93.6,732.3,93.2z"/>
	</g>
	<circle id="XMLID_130_" class="st10" cx="724.1" cy="211.3" r="18"/>
	<g id="XMLID_122_">
		<path id="XMLID_129_" class="st11" d="M724.1,211c2.8,0,5-2.7,5-6.1c0-3.4-0.7-6.1-5-6.1s-5,2.7-5,6.1
			C719.1,208.3,721.3,211,724.1,211z"/>
		<path id="XMLID_128_" class="st11" d="M714.6,220.3C714.6,220.1,714.6,220.3,714.6,220.3L714.6,220.3z"/>
		<path id="XMLID_127_" class="st11" d="M733.5,220.5C733.5,220.4,733.5,220.1,733.5,220.5L733.5,220.5z"/>
		<path id="XMLID_126_" class="st11" d="M733.5,220.1c-0.1-5.8-0.9-7.5-6.7-8.6c0,0-0.8,1-2.7,1s-2.7-1-2.7-1
			c-5.8,1-6.6,2.7-6.7,8.4c0,0.5,0,0.5,0,0.4c0,0.1,0,0.3,0,0.6c0,0,1.4,2.8,9.4,2.8c8.1,0,9.4-2.8,9.4-2.8c0-0.2,0-0.4,0-0.5
			C733.5,220.5,733.5,220.4,733.5,220.1z"/>
	</g>
	<circle id="XMLID_140_" class="st10" cx="722.9" cy="328.6" r="18"/>
	<g id="XMLID_131_">
		<path id="XMLID_139_" class="st11" d="M722.9,328.3c2.8,0,5-2.7,5-6.1c0-3.4-0.7-6.1-5-6.1s-5,2.7-5,6.1
			C717.9,325.6,720.1,328.3,722.9,328.3z"/>
		<path id="XMLID_134_" class="st11" d="M713.4,337.6C713.4,337.4,713.4,337.5,713.4,337.6L713.4,337.6z"/>
		<path id="XMLID_133_" class="st11" d="M732.3,337.8C732.3,337.7,732.3,337.4,732.3,337.8L732.3,337.8z"/>
		<path id="XMLID_132_" class="st11" d="M732.3,337.4c-0.1-5.8-0.9-7.5-6.7-8.6c0,0-0.8,1-2.7,1c-1.9,0-2.7-1-2.7-1
			c-5.8,1-6.6,2.7-6.7,8.4c0,0.5,0,0.5,0,0.4c0,0.1,0,0.3,0,0.6c0,0,1.4,2.8,9.4,2.8c8.1,0,9.4-2.8,9.4-2.8c0-0.2,0-0.4,0-0.5
			C732.3,337.8,732.3,337.7,732.3,337.4z"/>
	</g>
	<circle id="XMLID_97_" class="st10" cx="607.1" cy="117.1" r="11.2"/>
	<g id="XMLID_199_">
		<path id="XMLID_202_" class="st11" d="M607.6,124.3h-1.1c-0.6,0-1-0.4-1-1v-6.9c0-0.6,0.4-1,1-1h1.1c0.6,0,1,0.4,1,1v6.9
			C608.6,123.9,608.1,124.3,607.6,124.3z"/>
		<path id="XMLID_201_" class="st11" d="M603.3,124.3h-1.1c-0.6,0-1-0.4-1-1v-4.7c0-0.6,0.4-1,1-1h1.1c0.6,0,1,0.4,1,1v4.7
			C604.3,123.9,603.9,124.3,603.3,124.3z"/>
		<path id="XMLID_200_" class="st11" d="M611.8,124.3h-1.1c-0.6,0-1-0.4-1-1v-9.2h-0.6c-0.3,0-0.5-0.2-0.7-0.4s-0.1-0.6,0.1-0.8
			c0,0,0,0,0,0l2.4-2.7c0.1-0.1,0.2-0.1,0.3-0.1c0.1,0,0.2,0.1,0.3,0.1l2.4,2.7c0,0,0,0,0,0c0.2,0.2,0.2,0.5,0.1,0.8
			c-0.1,0.3-0.4,0.4-0.7,0.4h-0.6v9.2C612.8,123.9,612.3,124.3,611.8,124.3L611.8,124.3z"/>
	</g>
	<circle id="XMLID_207_" class="st10" cx="607.1" cy="210.5" r="11.2"/>
	<g id="XMLID_203_">
		<path id="XMLID_206_" class="st11" d="M607.6,217.7h-1.1c-0.6,0-1-0.4-1-1v-6.9c0-0.6,0.4-1,1-1h1.1c0.6,0,1,0.4,1,1v6.9
			C608.6,217.2,608.1,217.7,607.6,217.7z"/>
		<path id="XMLID_205_" class="st11" d="M603.3,217.7h-1.1c-0.6,0-1-0.4-1-1V212c0-0.6,0.4-1,1-1h1.1c0.6,0,1,0.4,1,1v4.7
			C604.3,217.2,603.9,217.7,603.3,217.7z"/>
		<path id="XMLID_204_" class="st11" d="M611.8,217.7h-1.1c-0.6,0-1-0.4-1-1v-9.2h-0.6c-0.3,0-0.5-0.2-0.7-0.4s-0.1-0.6,0.1-0.8
			c0,0,0,0,0,0l2.4-2.7c0.1-0.1,0.2-0.1,0.3-0.1c0.1,0,0.2,0.1,0.3,0.1l2.4,2.7c0,0,0,0,0,0c0.2,0.2,0.2,0.5,0.1,0.8
			c-0.1,0.3-0.4,0.4-0.7,0.4h-0.6v9.2C612.8,217.2,612.3,217.7,611.8,217.7L611.8,217.7z"/>
	</g>
	<circle id="XMLID_212_" class="st10" cx="607.1" cy="295.4" r="11.2"/>
	<g id="XMLID_208_">
		<path id="XMLID_211_" class="st11" d="M607.6,302.7h-1.1c-0.6,0-1-0.4-1-1v-6.9c0-0.6,0.4-1,1-1h1.1c0.6,0,1,0.4,1,1v6.9
			C608.6,302.2,608.1,302.7,607.6,302.7z"/>
		<path id="XMLID_210_" class="st11" d="M603.3,302.7h-1.1c-0.6,0-1-0.4-1-1V297c0-0.6,0.4-1,1-1h1.1c0.6,0,1,0.4,1,1v4.7
			C604.3,302.2,603.9,302.7,603.3,302.7z"/>
		<path id="XMLID_209_" class="st11" d="M611.8,302.7h-1.1c-0.6,0-1-0.4-1-1v-9.2h-0.6c-0.3,0-0.5-0.2-0.7-0.4s-0.1-0.6,0.1-0.8
			c0,0,0,0,0,0l2.4-2.7c0.1-0.1,0.2-0.1,0.3-0.1c0.1,0,0.2,0.1,0.3,0.1l2.4,2.7c0,0,0,0,0,0c0.2,0.2,0.2,0.5,0.1,0.8
			c-0.1,0.3-0.4,0.4-0.7,0.4h-0.6v9.2C612.8,302.2,612.3,302.7,611.8,302.7L611.8,302.7z"/>
	</g>
	<circle id="XMLID_37_" class="st10" cx="201.4" cy="117.1" r="11.2"/>
	<g id="XMLID_30_">
		<ellipse id="XMLID_43_" class="st11" cx="201.4" cy="116" rx="8.7" ry="3.1"/>
		<path id="XMLID_42_" class="st11" d="M201.4,119c-4.8,0-8.7-1.4-8.7-3.1v4.5h0c0.3,1.6,4,2.9,8.7,2.9s8.4-1.3,8.7-2.9h0V116
			C210.1,117.7,206.2,119,201.4,119z"/>
	</g>
	<circle id="XMLID_214_" class="st10" cx="201.4" cy="210.5" r="11.2"/>
	<g id="XMLID_38_">
		<ellipse id="XMLID_213_" class="st11" cx="201.4" cy="209.3" rx="8.7" ry="3.1"/>
		<path id="XMLID_39_" class="st11" d="M201.4,212.4c-4.8,0-8.7-1.4-8.7-3.1v4.5h0c0.3,1.6,4,2.9,8.7,2.9s8.4-1.3,8.7-2.9h0v-4.5
			C210.1,211,206.2,212.4,201.4,212.4z"/>
	</g>
	<circle id="XMLID_218_" class="st10" cx="202.6" cy="295.4" r="11.2"/>
	<g id="XMLID_215_">
		<ellipse id="XMLID_217_" class="st11" cx="202.6" cy="294.3" rx="8.7" ry="3.1"/>
		<path id="XMLID_216_" class="st11" d="M202.6,297.4c-4.8,0-8.7-1.4-8.7-3.1v4.5h0c0.3,1.6,4,2.9,8.7,2.9c4.6,0,8.4-1.3,8.7-2.9h0
			v-4.5C211.3,296,207.4,297.4,202.6,297.4z"/>
	</g>
	<path id="XMLID_219_" class="st8" d="M483.3,352.4H326.1c-6.6,0-12-5.4-12-12v-32.8c0-6.6,5.4-12,12-12h157.2c6.6,0,12,5.4,12,12
		v32.8C495.3,347,489.9,352.4,483.3,352.4z"/>
	<path id="XMLID_145_" class="st10" d="M374,341.3h-4.7c-6.6,0-12-5.4-12-12v-7.6c0-6.6,5.4-12,12-12h4.7c6.6,0,12,5.4,12,12v7.6
		C386,335.9,380.6,341.3,374,341.3z"/>
	<g id="XMLID_149_">
		<g id="XMLID_150_">
			<g id="XMLID_151_">
				<path id="XMLID_157_" class="st12" d="M370.7,328.5l-0.3,2.6c0,0.1,0,0.3,0.1,0.4c0.1,0.1,0.2,0.2,0.4,0.2h1.9
					c0.1,0,0.3-0.1,0.4-0.2s0.1-0.2,0.1-0.4l-0.3-2.6c0.5-0.3,0.8-0.9,0.8-1.5c0-1-0.9-1.8-1.9-1.8c-1.1,0-1.9,0.8-1.9,1.8
					C369.9,327.7,370.2,328.2,370.7,328.5z M371.8,326.2c0.5,0,1,0.4,1,0.9c0,0.3-0.2,0.7-0.5,0.8c-0.2,0.1-0.3,0.3-0.3,0.5l0.3,2.4
					h-0.8l0.3-2.4c0-0.2-0.1-0.4-0.3-0.5c-0.3-0.2-0.5-0.5-0.5-0.8C370.9,326.6,371.3,326.2,371.8,326.2z"/>
				<path id="XMLID_152_" class="st12" d="M380,321.6h-1.4v-1.8c0-3.5-3-6.4-6.7-6.4c-3.7,0-6.7,2.9-6.7,6.4v1.8h-1.4
					c-0.3,0-0.5,0.2-0.5,0.5v11.3c0,1,0.9,1.8,1.9,1.8h13.4c1.1,0,1.9-0.8,1.9-1.8v-11.3C380.5,321.8,380.3,321.6,380,321.6z
					 M366.1,319.8c0-3,2.6-5.4,5.8-5.4s5.8,2.4,5.8,5.4v1.8h-1v-1.8c0-2.5-2.2-4.5-4.8-4.5c-2.6,0-4.8,2-4.8,4.5v1.8h-1V319.8z
					 M375.7,319.8v1.8H368v-1.8c0-2,1.7-3.6,3.8-3.6S375.7,317.8,375.7,319.8z M379.5,333.4c0,0.5-0.4,0.9-1,0.9h-13.4
					c-0.5,0-1-0.4-1-0.9v-10.9h15.4V333.4z"/>
			</g>
		</g>
	</g>
	<path id="XMLID_146_" class="st10" d="M441.8,339.9h-4.7c-6.6,0-12-5.4-12-12v-4.7c0-6.6,5.4-12,12-12h4.7c6.6,0,12,5.4,12,12v4.7
		C453.8,334.5,448.4,339.9,441.8,339.9z"/>
	<g id="XMLID_98_">
		<g id="XMLID_194_">
			<g id="XMLID_195_">
				<path id="XMLID_196_" class="st12" d="M441.7,317.2c-2.8,0-5,2.2-5,5c0,0.6,0.1,1.2,0.3,1.8l-4.8,4.8c-0.1,0.1-0.1,0.2-0.1,0.3
					v2.6c0,0.2,0.2,0.4,0.4,0.4h2.2c0.1,0,0.2,0,0.3-0.1l0.7-0.7c0.1-0.1,0.1-0.2,0.1-0.3V330h0.9c0.2,0,0.4-0.2,0.4-0.4v-0.4h0.4
					c0.2,0,0.4-0.2,0.4-0.4v-0.8h0.8c0.1,0,0.2,0,0.3-0.1l1.2-1.2c0.6,0.2,1.2,0.3,1.8,0.3c2.8,0,5-2.2,5-5
					C446.7,319.5,444.5,317.2,441.7,317.2z M441.7,326.5c-0.6,0-1.2-0.1-1.7-0.4c-0.1-0.1-0.3,0-0.4,0.1c0,0,0,0,0,0l-1.2,1.2h-1
					c-0.2,0-0.4,0.2-0.4,0.4v0.8h-0.4c-0.2,0-0.4,0.2-0.4,0.4v0.4h-0.9c-0.2,0-0.4,0.2-0.4,0.4v1.1l-0.5,0.5h-1.6v-0.5l4.4-4.4
					c0.1-0.1,0.1-0.3,0-0.5c-0.1-0.1-0.3-0.1-0.5,0l-4,4v-0.7l4.8-4.8c0,0,0,0,0,0c0.1-0.1,0.1-0.3,0.1-0.4
					c-0.2-0.5-0.4-1.1-0.4-1.7c0-2.4,1.9-4.3,4.3-4.3c2.4,0,4.3,1.9,4.3,4.3C446,324.6,444.1,326.5,441.7,326.5z"/>
			</g>
		</g>
		<g id="XMLID_189_">
			<g id="XMLID_190_">
				<path id="XMLID_191_" class="st12" d="M443.3,319.3c-0.8,0-1.4,0.6-1.4,1.4s0.6,1.4,1.4,1.4s1.4-0.6,1.4-1.4
					S444,319.3,443.3,319.3z M443.3,321.3c-0.4,0-0.6-0.3-0.6-0.6s0.3-0.6,0.6-0.6s0.6,0.3,0.6,0.6S443.6,321.3,443.3,321.3z"/>
			</g>
		</g>
	</g>
	<line id="XMLID_148_" class="st8" x1="411.5" y1="295.3" x2="411.5" y2="278.3"/>
	<polygon id="XMLID_147_" class="st9" points="411.4,279.8 407.8,279.9 409.6,277.8 411.4,275.6 413.2,277.7 415.1,279.8 	"/>
	<g id="XMLID_327_">
		<path id="XMLID_328_" d="M308.2,370.1c-0.2,0.2-0.4,0.5-0.4,0.8s0.1,0.6,0.4,0.8c0.3,0.2,1,0.4,2,0.7c1.1,0.3,1.9,0.7,2.5,1.2
			c0.6,0.5,0.9,1.3,0.9,2.3s-0.4,1.8-1.1,2.4s-1.7,0.9-3,0.9c-1.8,0-3.4-0.7-4.8-2l1.5-1.8c1.2,1.1,2.3,1.6,3.3,1.6
			c0.5,0,0.8-0.1,1.1-0.3c0.3-0.2,0.4-0.5,0.4-0.8s-0.1-0.6-0.4-0.8s-0.8-0.4-1.6-0.6c-1.3-0.3-2.3-0.7-2.9-1.2s-0.9-1.3-0.9-2.3
			s0.4-1.9,1.1-2.5s1.7-0.9,2.9-0.9c0.7,0,1.5,0.1,2.2,0.4s1.4,0.6,2,1.1l-1.3,1.8c-1-0.7-2-1.1-3-1.1
			C308.7,369.8,308.4,369.9,308.2,370.1z"/>
		<path id="XMLID_330_" d="M323,377.8c-1,0.9-2.1,1.4-3.4,1.4s-2.4-0.4-3.2-1.2c-0.9-0.8-1.3-1.9-1.3-3.2c0-1.4,0.4-2.4,1.3-3.2
			s1.9-1.2,3.1-1.2s2.2,0.4,3,1.1c0.8,0.7,1.2,1.7,1.2,2.9v1.3h-6.3c0.1,0.5,0.3,0.9,0.7,1.2s0.9,0.4,1.4,0.4c0.8,0,1.5-0.3,2.1-0.8
			L323,377.8z M320.7,372.7c-0.3-0.3-0.7-0.4-1.2-0.4s-0.9,0.1-1.3,0.4c-0.4,0.3-0.6,0.7-0.7,1.2h3.8
			C321.2,373.3,321,372.9,320.7,372.7z"/>
		<path id="XMLID_333_" d="M329.5,377c0.8,0,1.5-0.4,2.2-1.2l1.4,1.6c-1.1,1.2-2.3,1.7-3.6,1.7c-1.3,0-2.4-0.4-3.3-1.2
			c-0.9-0.8-1.3-1.9-1.3-3.2s0.5-2.4,1.4-3.2c0.9-0.8,2-1.2,3.2-1.2c0.6,0,1.2,0.1,1.9,0.4s1.2,0.6,1.7,1.1l-1.2,1.6
			c-0.3-0.3-0.6-0.6-1-0.8c-0.4-0.2-0.8-0.3-1.2-0.3c-0.6,0-1.2,0.2-1.6,0.6c-0.5,0.4-0.7,1-0.7,1.7c0,0.7,0.2,1.3,0.7,1.7
			C328.4,376.8,328.9,377,329.5,377z"/>
		<path id="XMLID_335_" d="M340.3,375v-4.6h2.4v8.6h-2.4v-1.1c-0.6,0.8-1.4,1.3-2.3,1.3s-1.7-0.3-2.4-0.9s-1-1.5-1-2.6v-5.2h2.4v4.7
			c0,1.3,0.5,2,1.5,2c0.5,0,0.9-0.2,1.2-0.5C340.1,376.2,340.3,375.7,340.3,375z"/>
		<path id="XMLID_337_" d="M349.5,372.5c-0.7,0-1.2,0.3-1.6,0.8c-0.4,0.5-0.5,1.2-0.5,2v3.7H345v-8.6h2.4v1.1
			c0.3-0.4,0.7-0.7,1.2-0.9c0.5-0.2,0.9-0.4,1.4-0.4l0,2.3H349.5z"/>
		<path id="XMLID_339_" d="M351.7,369.3c-0.3-0.3-0.4-0.6-0.4-1s0.1-0.7,0.4-1c0.3-0.3,0.6-0.4,1-0.4s0.7,0.1,1,0.4
			c0.3,0.3,0.4,0.6,0.4,1s-0.1,0.7-0.4,1c-0.3,0.3-0.6,0.4-1,0.4S352,369.6,351.7,369.3z M353.9,379h-2.4v-8.6h2.4V379z"/>
		<path id="XMLID_342_" d="M359.1,372.1v3.9c0,0.3,0.1,0.6,0.3,0.8s0.4,0.3,0.6,0.3c0.4,0,0.8-0.2,1.1-0.6l0.9,1.7
			c-0.7,0.7-1.5,1-2.4,1c-0.8,0-1.5-0.3-2.1-0.8c-0.6-0.5-0.9-1.3-0.9-2.2v-4h-1v-1.7h1v-2.6h2.4v2.6h2.1v1.7H359.1z"/>
		<path id="XMLID_344_" d="M364.7,382.4c-0.8,0-1.6-0.3-2.4-1l1.1-1.8c0.4,0.4,0.8,0.6,1.2,0.6c0.2,0,0.4-0.1,0.6-0.3
			c0.2-0.2,0.2-0.5,0.2-0.7s-1.1-3.2-3.3-8.8h2.6l2.1,5.4l2.1-5.4h2.6l-4,10.1c-0.2,0.6-0.6,1-1.1,1.4
			C365.9,382.2,365.3,382.4,364.7,382.4z"/>
		<path id="XMLID_346_" d="M387.9,378c-0.9,0.7-1.9,1.1-3.1,1.1s-2.1-0.3-2.9-0.9c-0.8-0.6-1.1-1.4-1.1-2.5c0-1.2,0.8-2.2,2.4-3.1
			c-0.4-0.4-0.6-0.8-0.8-1.1s-0.2-0.7-0.2-1.1c0-0.9,0.3-1.6,1-2.1c0.7-0.5,1.4-0.7,2.3-0.7c0.9,0,1.7,0.2,2.3,0.7s1,1.1,1,1.9
			c0,1-0.8,2-2.3,2.9c0.6,0.7,1,1.3,1.3,1.6c0.3-0.5,0.5-1,0.6-1.6l1.9,1.3c-0.2,0.7-0.5,1.3-0.9,1.9l1.6,1.6l-1.6,1.5L387.9,378z
			 M383.6,376.8c0.3,0.2,0.7,0.4,1.2,0.4s1-0.2,1.6-0.7c-0.8-0.8-1.5-1.6-2-2.2c-0.8,0.5-1.2,1.1-1.2,1.6
			C383.1,376.2,383.3,376.5,383.6,376.8z M385.4,369.5c-0.2,0-0.4,0.1-0.6,0.2c-0.2,0.2-0.3,0.4-0.3,0.7s0.2,0.7,0.6,1.2
			c0.8-0.4,1.2-0.8,1.2-1.2c0-0.3-0.1-0.5-0.3-0.7C385.8,369.5,385.6,369.5,385.4,369.5z"/>
		<path id="XMLID_350_" d="M404.8,379l-1-2.4H399l-1,2.4h-2.7l4.8-11.2h2.4l4.8,11.2H404.8z M401.4,371.1l-1.4,3.2h2.8L401.4,371.1z
			"/>
		<path id="XMLID_353_" d="M412.6,377c0.8,0,1.5-0.4,2.2-1.2l1.4,1.6c-1.1,1.2-2.3,1.7-3.6,1.7c-1.3,0-2.4-0.4-3.3-1.2
			c-0.9-0.8-1.3-1.9-1.3-3.2s0.5-2.4,1.4-3.2c0.9-0.8,2-1.2,3.2-1.2c0.6,0,1.2,0.1,1.9,0.4s1.2,0.6,1.7,1.1l-1.2,1.6
			c-0.3-0.3-0.6-0.6-1-0.8c-0.4-0.2-0.8-0.3-1.2-0.3c-0.6,0-1.2,0.2-1.6,0.6c-0.5,0.4-0.7,1-0.7,1.7c0,0.7,0.2,1.3,0.7,1.7
			C411.5,376.8,412,377,412.6,377z"/>
		<path id="XMLID_355_" d="M421.9,377c0.8,0,1.5-0.4,2.2-1.2l1.4,1.6c-1.1,1.2-2.3,1.7-3.6,1.7c-1.3,0-2.4-0.4-3.3-1.2
			c-0.9-0.8-1.3-1.9-1.3-3.2s0.5-2.4,1.4-3.2c0.9-0.8,2-1.2,3.2-1.2c0.6,0,1.2,0.1,1.9,0.4s1.2,0.6,1.7,1.1l-1.2,1.6
			c-0.3-0.3-0.6-0.6-1-0.8c-0.4-0.2-0.8-0.3-1.2-0.3c-0.6,0-1.2,0.2-1.6,0.6c-0.5,0.4-0.7,1-0.7,1.7c0,0.7,0.2,1.3,0.7,1.7
			C420.8,376.8,421.3,377,421.9,377z"/>
		<path id="XMLID_357_" d="M434.6,377.8c-1,0.9-2.1,1.4-3.4,1.4s-2.4-0.4-3.2-1.2c-0.9-0.8-1.3-1.9-1.3-3.2c0-1.4,0.4-2.4,1.3-3.2
			s1.9-1.2,3.1-1.2s2.2,0.4,3,1.1c0.8,0.7,1.2,1.7,1.2,2.9v1.3H429c0.1,0.5,0.3,0.9,0.7,1.2s0.9,0.4,1.4,0.4c0.8,0,1.5-0.3,2.1-0.8
			L434.6,377.8z M432.2,372.7c-0.3-0.3-0.7-0.4-1.2-0.4s-0.9,0.1-1.3,0.4c-0.4,0.3-0.6,0.7-0.7,1.2h3.8
			C432.8,373.3,432.6,372.9,432.2,372.7z"/>
		<path id="XMLID_360_" d="M443.5,376.3c0,0.8-0.3,1.5-0.9,2c-0.6,0.5-1.4,0.8-2.4,0.8c-0.6,0-1.3-0.1-2-0.3s-1.3-0.6-1.9-1l1.1-1.5
			c0.9,0.7,1.9,1,2.9,1c0.3,0,0.6-0.1,0.7-0.2s0.3-0.3,0.3-0.5c0-0.2-0.1-0.4-0.4-0.6c-0.3-0.2-0.6-0.3-1.1-0.5
			c-0.5-0.1-0.8-0.3-1.1-0.4c-0.3-0.1-0.5-0.3-0.9-0.5c-0.7-0.4-1-1-1-1.8c0-0.8,0.3-1.4,1-1.9c0.6-0.5,1.5-0.8,2.5-0.8s2,0.3,3,1
			l-0.9,1.6c-0.7-0.5-1.5-0.8-2.2-0.8s-1.1,0.2-1.1,0.6c0,0.2,0.1,0.4,0.4,0.5c0.2,0.1,0.6,0.3,1.2,0.4c0.5,0.2,0.9,0.3,1.2,0.4
			c0.2,0.1,0.5,0.2,0.8,0.4C443.2,374.9,443.5,375.5,443.5,376.3z"/>
		<path id="XMLID_362_" d="M451.8,376.3c0,0.8-0.3,1.5-0.9,2c-0.6,0.5-1.4,0.8-2.4,0.8c-0.6,0-1.3-0.1-2-0.3s-1.3-0.6-1.9-1l1.1-1.5
			c0.9,0.7,1.9,1,2.9,1c0.3,0,0.6-0.1,0.7-0.2s0.3-0.3,0.3-0.5c0-0.2-0.1-0.4-0.4-0.6c-0.3-0.2-0.6-0.3-1.1-0.5
			c-0.5-0.1-0.8-0.3-1.1-0.4c-0.3-0.1-0.5-0.3-0.9-0.5c-0.7-0.4-1-1-1-1.8c0-0.8,0.3-1.4,1-1.9c0.6-0.5,1.5-0.8,2.5-0.8s2,0.3,3,1
			l-0.9,1.6c-0.7-0.5-1.5-0.8-2.2-0.8s-1.1,0.2-1.1,0.6c0,0.2,0.1,0.4,0.4,0.5c0.2,0.1,0.6,0.3,1.2,0.4c0.5,0.2,0.9,0.3,1.2,0.4
			c0.2,0.1,0.5,0.2,0.8,0.4C451.5,374.9,451.8,375.5,451.8,376.3z"/>
		<path id="XMLID_364_" d="M463.2,376.8c1.2,0,2.2-0.5,3-1.5l1.6,1.6c-1.3,1.4-2.8,2.1-4.5,2.1s-3.1-0.5-4.3-1.6s-1.7-2.5-1.7-4.1
			c0-1.7,0.6-3,1.7-4.2c1.1-1.1,2.5-1.7,4.2-1.7c1.8,0,3.4,0.7,4.6,2.1l-1.6,1.8c-0.8-1-1.8-1.5-2.9-1.5c-0.9,0-1.7,0.3-2.4,0.9
			c-0.7,0.6-1,1.4-1,2.5s0.3,1.9,0.9,2.5C461.6,376.5,462.3,376.8,463.2,376.8z"/>
		<path id="XMLID_366_" d="M477.8,374.7c0,1.2-0.4,2.3-1.3,3.2c-0.9,0.9-2,1.3-3.3,1.3c-1.3,0-2.4-0.4-3.3-1.3
			c-0.9-0.9-1.3-1.9-1.3-3.2s0.4-2.3,1.3-3.2c0.9-0.9,1.9-1.3,3.3-1.3c1.3,0,2.4,0.4,3.3,1.3C477.4,372.4,477.8,373.5,477.8,374.7z
			 M471.1,374.7c0,0.7,0.2,1.3,0.6,1.7c0.4,0.4,0.9,0.7,1.5,0.7s1.1-0.2,1.5-0.7c0.4-0.4,0.6-1,0.6-1.7s-0.2-1.3-0.6-1.7
			c-0.4-0.4-0.9-0.7-1.5-0.7s-1.1,0.2-1.5,0.7C471.3,373.4,471.1,374,471.1,374.7z"/>
		<path id="XMLID_369_" d="M482,374.2v4.8h-2.4v-8.6h2.4v1c0.7-0.7,1.5-1.1,2.4-1.1c0.9,0,1.7,0.3,2.3,1s0.9,1.5,0.9,2.6v5.2h-2.4
			v-4.9c0-1.3-0.5-2-1.5-2c-0.5,0-0.9,0.2-1.3,0.5S482,373.5,482,374.2z"/>
		<path id="XMLID_371_" d="M492.6,372.1v3.9c0,0.3,0.1,0.6,0.3,0.8s0.4,0.3,0.6,0.3c0.4,0,0.8-0.2,1.1-0.6l0.9,1.7
			c-0.7,0.7-1.5,1-2.4,1c-0.8,0-1.5-0.3-2.1-0.8c-0.6-0.5-0.9-1.3-0.9-2.2v-4h-1v-1.7h1v-2.6h2.4v2.6h2.1v1.7H492.6z"/>
		<path id="XMLID_373_" d="M501.3,372.5c-0.7,0-1.2,0.3-1.6,0.8c-0.4,0.5-0.5,1.2-0.5,2v3.7h-2.4v-8.6h2.4v1.1
			c0.3-0.4,0.7-0.7,1.2-0.9c0.5-0.2,0.9-0.4,1.4-0.4l0,2.3H501.3z"/>
		<path id="XMLID_375_" d="M511.8,374.7c0,1.2-0.4,2.3-1.3,3.2c-0.9,0.9-2,1.3-3.3,1.3c-1.3,0-2.4-0.4-3.3-1.3
			c-0.9-0.9-1.3-1.9-1.3-3.2s0.4-2.3,1.3-3.2c0.9-0.9,1.9-1.3,3.3-1.3c1.3,0,2.4,0.4,3.3,1.3C511.4,372.4,511.8,373.5,511.8,374.7z
			 M505.1,374.7c0,0.7,0.2,1.3,0.6,1.7c0.4,0.4,0.9,0.7,1.5,0.7s1.1-0.2,1.5-0.7c0.4-0.4,0.6-1,0.6-1.7s-0.2-1.3-0.6-1.7
			c-0.4-0.4-0.9-0.7-1.5-0.7s-1.1,0.2-1.5,0.7C505.3,373.4,505.1,374,505.1,374.7z"/>
		<path id="XMLID_378_" d="M516,379h-2.4v-11.9h2.4V379z"/>
		<path id="XMLID_380_" d="M524.7,376.3c0,0.8-0.3,1.5-0.9,2c-0.6,0.5-1.4,0.8-2.4,0.8c-0.6,0-1.3-0.1-2-0.3s-1.3-0.6-1.9-1l1.1-1.5
			c0.9,0.7,1.9,1,2.9,1c0.3,0,0.6-0.1,0.7-0.2s0.3-0.3,0.3-0.5c0-0.2-0.1-0.4-0.4-0.6c-0.3-0.2-0.6-0.3-1.1-0.5
			c-0.5-0.1-0.8-0.3-1.1-0.4c-0.3-0.1-0.5-0.3-0.9-0.5c-0.7-0.4-1-1-1-1.8c0-0.8,0.3-1.4,1-1.9c0.6-0.5,1.5-0.8,2.5-0.8s2,0.3,3,1
			l-0.9,1.6c-0.7-0.5-1.5-0.8-2.2-0.8s-1.1,0.2-1.1,0.6c0,0.2,0.1,0.4,0.4,0.5c0.2,0.1,0.6,0.3,1.2,0.4c0.5,0.2,0.9,0.3,1.2,0.4
			c0.2,0.1,0.5,0.2,0.8,0.4C524.4,374.9,524.7,375.5,524.7,376.3z"/>
	</g>
	<path id="XMLID_143_" class="st13" d="M483.8,158.9H323.9c-6.3,0-11.4-5.1-11.4-11.4v-4.5c0-6.3,5.1-11.4,11.4-11.4h159.8
		c6.3,0,11.4,5.1,11.4,11.4v4.5C495.1,153.8,490,158.9,483.8,158.9z"/>
	<rect id="XMLID_144_" x="312.9" y="146.7" class="st13" width="182.6" height="12.3"/>
	<g id="XMLID_92_">
		<path id="XMLID_224_" d="M331.4,167.6v1.9h-4.9v2h4.4v1.9h-4.4v2h5v1.9h-7.2v-9.8H331.4z"/>
		<path id="XMLID_301_" d="M335.1,169.8l1.3,2l1.3-2h2.5l-2.6,3.7l2.7,3.9h-2.5l-1.5-2.1l-1.4,2.1h-2.4l2.6-3.8l-2.5-3.7H335.1z"/>
		<path id="XMLID_303_" d="M345.8,169.7c0.9,0,1.7,0.4,2.3,1.1c0.7,0.7,1,1.7,1,2.8s-0.3,2-1,2.8c-0.7,0.7-1.5,1.1-2.4,1.1
			c-0.9,0-1.7-0.4-2.2-1.1v3.7h-2.1v-10.2h2.1v0.8C344.2,170,344.9,169.7,345.8,169.7z M343.5,173.6c0,0.6,0.2,1.1,0.5,1.5
			c0.3,0.4,0.8,0.6,1.2,0.6c0.5,0,0.9-0.2,1.3-0.6c0.4-0.4,0.5-0.9,0.5-1.5c0-0.6-0.2-1.1-0.5-1.5c-0.4-0.4-0.8-0.6-1.3-0.6
			c-0.5,0-0.9,0.2-1.3,0.6C343.7,172.5,343.5,173,343.5,173.6z"/>
		<path id="XMLID_306_" d="M352.9,177.3h-2.1v-10.4h2.1V177.3z"/>
		<path id="XMLID_308_" d="M362.4,173.6c0,1.1-0.4,2-1.1,2.8c-0.8,0.7-1.7,1.1-2.8,1.1s-2.1-0.4-2.8-1.1s-1.1-1.7-1.1-2.8
			c0-1.1,0.4-2,1.1-2.8c0.8-0.8,1.7-1.1,2.8-1.1s2.1,0.4,2.8,1.1C362,171.6,362.4,172.5,362.4,173.6z M356.5,173.6
			c0,0.6,0.2,1.1,0.5,1.5c0.3,0.4,0.8,0.6,1.3,0.6s1-0.2,1.3-0.6c0.4-0.4,0.5-0.9,0.5-1.5c0-0.6-0.2-1.1-0.5-1.5
			c-0.3-0.4-0.8-0.6-1.3-0.6s-1,0.2-1.3,0.6C356.7,172.5,356.5,173,356.5,173.6z"/>
		<path id="XMLID_311_" d="M367.9,171.7c-0.6,0-1.1,0.2-1.4,0.7c-0.3,0.4-0.5,1-0.5,1.8v3.3h-2.1v-7.5h2.1v1c0.3-0.3,0.6-0.6,1-0.8
			c0.4-0.2,0.8-0.3,1.2-0.3l0,2H367.9z"/>
		<path id="XMLID_313_" d="M376.2,176.2c-0.8,0.8-1.8,1.2-3,1.2c-1.1,0-2.1-0.4-2.8-1.1c-0.7-0.7-1.1-1.6-1.1-2.8
			c0-1.2,0.4-2.1,1.1-2.8c0.8-0.7,1.7-1.1,2.7-1.1s1.9,0.3,2.6,0.9c0.7,0.6,1.1,1.5,1.1,2.6v1.1h-5.5c0.1,0.4,0.3,0.7,0.6,1
			c0.4,0.3,0.8,0.4,1.2,0.4c0.7,0,1.3-0.2,1.8-0.7L376.2,176.2z M374.2,171.8c-0.3-0.2-0.6-0.4-1.1-0.4c-0.4,0-0.8,0.1-1.1,0.4
			c-0.3,0.3-0.5,0.6-0.6,1h3.3C374.7,172.4,374.5,172,374.2,171.8z"/>
		<path id="XMLID_316_" d="M389.7,168.8c0.9,0.9,1.4,2,1.4,3.6s-0.5,2.7-1.4,3.6s-2.3,1.3-4.2,1.3h-3.3v-9.8h3.5
			C387.5,167.6,388.8,168,389.7,168.8z M388.1,174.6c0.5-0.5,0.8-1.2,0.8-2.2c0-1-0.3-1.7-0.8-2.2c-0.5-0.5-1.4-0.8-2.5-0.8h-1.2
			v5.9h1.4C386.8,175.4,387.6,175.2,388.1,174.6z"/>
		<path id="XMLID_319_" d="M399.1,177.3h-2v-0.9c-0.5,0.7-1.2,1-2,1s-1.5-0.2-2-0.7c-0.5-0.5-0.8-1.1-0.8-1.8s0.3-1.3,0.8-1.7
			c0.6-0.4,1.3-0.6,2.3-0.6h1.6v0c0-0.8-0.4-1.2-1.3-1.2c-0.4,0-0.7,0.1-1.2,0.2c-0.4,0.1-0.7,0.3-1,0.5l-0.9-1.4
			c1-0.7,2.1-1.1,3.4-1.1c0.9,0,1.7,0.2,2.2,0.7c0.6,0.5,0.9,1.2,0.9,2.2V177.3z M397,174.5v-0.4h-1.3c-0.8,0-1.3,0.3-1.3,0.8
			c0,0.3,0.1,0.5,0.3,0.6c0.2,0.1,0.5,0.2,0.9,0.2c0.4,0,0.7-0.1,1-0.3C396.9,175.2,397,174.8,397,174.5z"/>
		<path id="XMLID_322_" d="M403.5,171.3v3.4c0,0.3,0.1,0.5,0.2,0.7c0.1,0.2,0.3,0.2,0.5,0.2c0.4,0,0.7-0.2,1-0.5l0.8,1.5
			c-0.7,0.6-1.3,0.9-2.1,0.9s-1.3-0.2-1.8-0.7s-0.7-1.1-0.7-1.9v-3.5h-0.9v-1.5h0.9v-2.3h2.1v2.3h1.8v1.5H403.5z"/>
		<path id="XMLID_324_" d="M413.5,177.3h-2v-0.9c-0.5,0.7-1.2,1-2,1s-1.5-0.2-2-0.7c-0.5-0.5-0.8-1.1-0.8-1.8s0.3-1.3,0.8-1.7
			c0.6-0.4,1.3-0.6,2.3-0.6h1.6v0c0-0.8-0.4-1.2-1.3-1.2c-0.4,0-0.7,0.1-1.2,0.2c-0.4,0.1-0.7,0.3-1,0.5l-0.9-1.4
			c1-0.7,2.1-1.1,3.4-1.1c0.9,0,1.7,0.2,2.2,0.7c0.6,0.5,0.9,1.2,0.9,2.2V177.3z M411.4,174.5v-0.4h-1.3c-0.8,0-1.3,0.3-1.3,0.8
			c0,0.3,0.1,0.5,0.3,0.6c0.2,0.1,0.5,0.2,0.9,0.2c0.4,0,0.7-0.1,1-0.3C411.2,175.2,411.4,174.8,411.4,174.5z"/>
	</g>
	<path id="XMLID_226_" class="st14" d="M481.6,203.6H324.8c-2,0-3.7-1.7-3.7-3.7v-9.9c0-2,1.7-3.7,3.7-3.7h156.9
		c2,0,3.7,1.7,3.7,3.7v9.9C485.3,202,483.7,203.6,481.6,203.6z"/>
	<path id="XMLID_230_" class="st10" d="M331.4,193.9l-1.4,2.7h-0.7l-1.4-2.7v3.2h-1.1v-5h1.5l1.3,2.8l1.3-2.8h1.5v5h-1.1V193.9z"/>
	<path id="XMLID_232_" class="st10" d="M334.3,198.5c-0.4,0-0.7-0.2-1.1-0.5l0.5-0.8c0.2,0.2,0.4,0.3,0.6,0.3c0.1,0,0.2,0,0.3-0.1
		c0.1-0.1,0.1-0.2,0.1-0.3s-0.5-1.4-1.5-3.9h1.1l0.9,2.4l0.9-2.4h1.1l-1.8,4.6c-0.1,0.3-0.3,0.5-0.5,0.6S334.6,198.5,334.3,198.5z"
		/>
	<path id="XMLID_234_" class="st10" d="M343.7,192.7c0.5,0.4,0.7,1,0.7,1.8s-0.2,1.4-0.7,1.9s-1.2,0.7-2.1,0.7h-1.7v-5h1.8
		C342.6,192,343.3,192.2,343.7,192.7z M342.9,195.6c0.3-0.3,0.4-0.6,0.4-1.1c0-0.5-0.1-0.9-0.4-1.1c-0.3-0.3-0.7-0.4-1.3-0.4H341
		v3.1h0.7C342.2,196,342.6,195.9,342.9,195.6z"/>
	<path id="XMLID_237_" class="st10" d="M348.5,197h-1v-0.5c-0.3,0.3-0.6,0.5-1,0.5c-0.4,0-0.8-0.1-1-0.4c-0.3-0.2-0.4-0.6-0.4-0.9
		c0-0.4,0.1-0.7,0.4-0.9s0.7-0.3,1.2-0.3h0.8v0c0-0.4-0.2-0.6-0.7-0.6c-0.2,0-0.4,0-0.6,0.1c-0.2,0.1-0.4,0.2-0.5,0.3l-0.5-0.7
		c0.5-0.4,1.1-0.6,1.7-0.6c0.5,0,0.9,0.1,1.1,0.4c0.3,0.2,0.4,0.6,0.4,1.1V197z M347.5,195.6v-0.2h-0.7c-0.4,0-0.6,0.1-0.6,0.4
		c0,0.1,0.1,0.2,0.2,0.3c0.1,0.1,0.3,0.1,0.4,0.1c0.2,0,0.4-0.1,0.5-0.2C347.4,195.9,347.5,195.7,347.5,195.6z"/>
	<path id="XMLID_240_" class="st10" d="M350.8,193.9v1.7c0,0.1,0,0.3,0.1,0.3c0.1,0.1,0.2,0.1,0.3,0.1c0.2,0,0.4-0.1,0.5-0.3
		l0.4,0.8c-0.3,0.3-0.7,0.5-1.1,0.5c-0.4,0-0.7-0.1-0.9-0.4c-0.3-0.2-0.4-0.6-0.4-1v-1.8h-0.5v-0.8h0.5V192h1.1v1.2h0.9v0.8H350.8z"
		/>
	<path id="XMLID_242_" class="st10" d="M355.9,197h-1v-0.5c-0.3,0.3-0.6,0.5-1,0.5c-0.4,0-0.8-0.1-1-0.4c-0.3-0.2-0.4-0.6-0.4-0.9
		c0-0.4,0.1-0.7,0.4-0.9s0.7-0.3,1.2-0.3h0.8v0c0-0.4-0.2-0.6-0.7-0.6c-0.2,0-0.4,0-0.6,0.1c-0.2,0.1-0.4,0.2-0.5,0.3l-0.5-0.7
		c0.5-0.4,1.1-0.6,1.7-0.6c0.5,0,0.9,0.1,1.1,0.4c0.3,0.2,0.4,0.6,0.4,1.1V197z M354.8,195.6v-0.2h-0.7c-0.4,0-0.6,0.1-0.6,0.4
		c0,0.1,0.1,0.2,0.2,0.3c0.1,0.1,0.3,0.1,0.4,0.1c0.2,0,0.4-0.1,0.5-0.2C354.8,195.9,354.8,195.7,354.8,195.6z"/>
	<path id="XMLID_245_" class="st10" d="M366.7,196.3c-0.5,0.5-1.1,0.7-1.9,0.7s-1.4-0.2-1.9-0.7c-0.5-0.5-0.8-1.1-0.8-1.8
		s0.3-1.4,0.8-1.8c0.5-0.5,1.1-0.7,1.9-0.7s1.4,0.2,1.9,0.7s0.8,1.1,0.8,1.8S367.2,195.8,366.7,196.3z M366.3,194.5
		c0-0.4-0.1-0.8-0.4-1.1c-0.3-0.3-0.6-0.5-1.1-0.5c-0.4,0-0.8,0.2-1.1,0.5c-0.3,0.3-0.4,0.7-0.4,1.1c0,0.4,0.1,0.8,0.4,1.1
		s0.6,0.5,1.1,0.5c0.4,0,0.8-0.2,1.1-0.5S366.3,194.9,366.3,194.5z"/>
	<path id="XMLID_248_" class="st10" d="M370.3,194.1c-0.3,0-0.6,0.1-0.7,0.3c-0.2,0.2-0.2,0.5-0.2,0.9v1.7h-1.1v-3.9h1.1v0.5
		c0.1-0.2,0.3-0.3,0.5-0.4c0.2-0.1,0.4-0.2,0.6-0.2l0,1H370.3z"/>
	<path id="XMLID_250_" class="st10" d="M374.1,196.4c-0.3,0.4-0.8,0.6-1.3,0.6s-0.9-0.2-1.3-0.5c-0.3-0.3-0.5-0.8-0.5-1.4
		c0-0.6,0.2-1,0.5-1.4c0.4-0.4,0.8-0.5,1.2-0.5c0.5,0,0.8,0.2,1.1,0.6v-0.5h1.1v3.4c0,0.3-0.1,0.7-0.2,0.9c-0.1,0.3-0.3,0.5-0.5,0.6
		c-0.4,0.3-0.9,0.5-1.4,0.5c-0.3,0-0.6,0-0.9-0.1s-0.6-0.2-0.8-0.4l0.4-0.8c0.4,0.3,0.7,0.4,1.1,0.4c0.4,0,0.7-0.1,0.9-0.3
		C374,197.1,374.1,196.8,374.1,196.4z M374,195c0-0.3-0.1-0.6-0.3-0.7c-0.2-0.2-0.4-0.3-0.6-0.3s-0.5,0.1-0.7,0.3
		c-0.2,0.2-0.3,0.4-0.3,0.7c0,0.3,0.1,0.6,0.3,0.7c0.2,0.2,0.4,0.3,0.7,0.3c0.3,0,0.5-0.1,0.6-0.3C373.9,195.6,374,195.3,374,195z"
		/>
	<path id="XMLID_253_" class="st10" d="M381.9,192.7c0.5,0.4,0.7,1,0.7,1.8s-0.2,1.4-0.7,1.9s-1.2,0.7-2.1,0.7h-1.7v-5h1.8
		C380.7,192,381.4,192.2,381.9,192.7z M381.1,195.6c0.3-0.3,0.4-0.6,0.4-1.1c0-0.5-0.1-0.9-0.4-1.1c-0.3-0.3-0.7-0.4-1.3-0.4h-0.6
		v3.1h0.7C380.4,196,380.8,195.9,381.1,195.6z"/>
	<path id="XMLID_256_" class="st10" d="M386.7,197h-1v-0.5c-0.3,0.3-0.6,0.5-1,0.5c-0.4,0-0.8-0.1-1-0.4c-0.3-0.2-0.4-0.6-0.4-0.9
		c0-0.4,0.1-0.7,0.4-0.9s0.7-0.3,1.2-0.3h0.8v0c0-0.4-0.2-0.6-0.7-0.6c-0.2,0-0.4,0-0.6,0.1c-0.2,0.1-0.4,0.2-0.5,0.3l-0.5-0.7
		c0.5-0.4,1.1-0.6,1.7-0.6c0.5,0,0.9,0.1,1.1,0.4c0.3,0.2,0.4,0.6,0.4,1.1V197z M385.6,195.6v-0.2h-0.7c-0.4,0-0.6,0.1-0.6,0.4
		c0,0.1,0.1,0.2,0.2,0.3c0.1,0.1,0.3,0.1,0.4,0.1c0.2,0,0.4-0.1,0.5-0.2C385.5,195.9,385.6,195.7,385.6,195.6z"/>
	<path id="XMLID_259_" class="st10" d="M388.9,193.9v1.7c0,0.1,0,0.3,0.1,0.3c0.1,0.1,0.2,0.1,0.3,0.1c0.2,0,0.4-0.1,0.5-0.3
		l0.4,0.8c-0.3,0.3-0.7,0.5-1.1,0.5c-0.4,0-0.7-0.1-0.9-0.4c-0.3-0.2-0.4-0.6-0.4-1v-1.8h-0.5v-0.8h0.5V192h1.1v1.2h0.9v0.8H388.9z"
		/>
	<path id="XMLID_261_" class="st10" d="M394.1,197h-1v-0.5c-0.3,0.3-0.6,0.5-1,0.5c-0.4,0-0.8-0.1-1-0.4c-0.3-0.2-0.4-0.6-0.4-0.9
		c0-0.4,0.1-0.7,0.4-0.9s0.7-0.3,1.2-0.3h0.8v0c0-0.4-0.2-0.6-0.7-0.6c-0.2,0-0.4,0-0.6,0.1c-0.2,0.1-0.4,0.2-0.5,0.3l-0.5-0.7
		c0.5-0.4,1.1-0.6,1.7-0.6c0.5,0,0.9,0.1,1.1,0.4c0.3,0.2,0.4,0.6,0.4,1.1V197z M393,195.6v-0.2h-0.7c-0.4,0-0.6,0.1-0.6,0.4
		c0,0.1,0.1,0.2,0.2,0.3c0.1,0.1,0.3,0.1,0.4,0.1c0.2,0,0.4-0.1,0.5-0.2C392.9,195.9,393,195.7,393,195.6z"/>
	<path id="XMLID_264_" class="st15" d="M405,191.8c0.4,0.4,0.7,1,0.7,1.7c0,0.8-0.2,1.4-0.7,1.7s-1.2,0.5-2.1,0.5h-0.8v1.8h-1.4
		v-6.3h2.2C403.9,191.2,404.6,191.4,405,191.8z M404,194.3c0.2-0.2,0.3-0.5,0.3-0.8s-0.1-0.6-0.3-0.8c-0.2-0.2-0.6-0.2-1-0.2h-0.8
		v2.1h1C403.5,194.5,403.8,194.5,404,194.3z"/>
	<path id="XMLID_267_" class="st15" d="M409.2,193.9c-0.4,0-0.7,0.1-0.9,0.4c-0.2,0.3-0.3,0.7-0.3,1.1v2.1h-1.4v-4.9h1.4v0.6
		c0.2-0.2,0.4-0.4,0.7-0.5c0.3-0.1,0.5-0.2,0.8-0.2l0,1.3H409.2z"/>
	<path id="XMLID_269_" class="st15" d="M410.5,192c-0.2-0.2-0.2-0.3-0.2-0.6c0-0.2,0.1-0.4,0.2-0.6c0.2-0.2,0.3-0.2,0.6-0.2
		c0.2,0,0.4,0.1,0.6,0.2c0.2,0.2,0.2,0.3,0.2,0.6c0,0.2-0.1,0.4-0.2,0.6s-0.3,0.2-0.6,0.2C410.8,192.3,410.7,192.2,410.5,192z
		 M411.8,197.5h-1.4v-4.9h1.4V197.5z"/>
	<path id="XMLID_272_" class="st15" d="M414.4,197.5l-1.9-4.9h1.4l1.2,3.1l1.2-3.1h1.4l-1.9,4.9H414.4z"/>
	<path id="XMLID_274_" class="st15" d="M422.4,197.5h-1.3V197c-0.4,0.4-0.8,0.7-1.3,0.7c-0.5,0-1-0.1-1.3-0.4
		c-0.4-0.3-0.5-0.7-0.5-1.2c0-0.5,0.2-0.9,0.5-1.1c0.4-0.2,0.9-0.4,1.5-0.4h1v0c0-0.5-0.3-0.8-0.8-0.8c-0.2,0-0.5,0-0.7,0.1
		c-0.3,0.1-0.5,0.2-0.7,0.3l-0.6-0.9c0.6-0.5,1.4-0.7,2.2-0.7c0.6,0,1.1,0.1,1.5,0.4c0.4,0.3,0.6,0.8,0.6,1.4V197.5z M421.1,195.7
		v-0.2h-0.9c-0.5,0-0.8,0.2-0.8,0.5c0,0.2,0.1,0.3,0.2,0.4c0.1,0.1,0.3,0.1,0.6,0.1c0.2,0,0.5-0.1,0.6-0.2
		C421,196.1,421.1,195.9,421.1,195.7z"/>
	<path id="XMLID_277_" class="st15" d="M425.2,193.6v2.2c0,0.2,0,0.3,0.1,0.4c0.1,0.1,0.2,0.2,0.3,0.2c0.3,0,0.5-0.1,0.6-0.3l0.5,1
		c-0.4,0.4-0.9,0.6-1.3,0.6c-0.5,0-0.9-0.2-1.2-0.5c-0.3-0.3-0.5-0.7-0.5-1.3v-2.2h-0.6v-1h0.6v-1.5h1.4v1.5h1.2v1H425.2z"/>
	<path id="XMLID_279_" class="st15" d="M431.8,196.8c-0.6,0.5-1.2,0.8-1.9,0.8c-0.7,0-1.4-0.2-1.8-0.7c-0.5-0.5-0.7-1.1-0.7-1.8
		s0.2-1.4,0.7-1.8c0.5-0.5,1.1-0.7,1.7-0.7c0.7,0,1.2,0.2,1.7,0.6c0.5,0.4,0.7,1,0.7,1.7v0.7h-3.6c0,0.3,0.2,0.5,0.4,0.7
		c0.2,0.2,0.5,0.3,0.8,0.3c0.5,0,0.9-0.2,1.2-0.5L431.8,196.8z M430.5,193.9c-0.2-0.2-0.4-0.2-0.7-0.2c-0.3,0-0.5,0.1-0.7,0.2
		c-0.2,0.2-0.4,0.4-0.4,0.7h2.1C430.8,194.3,430.7,194.1,430.5,193.9z"/>
	<path id="XMLID_282_" class="st15" d="M440.3,191.2v1.3h-3.2v1.3h2.8v1.2h-2.8v1.3h3.3v1.3h-4.7v-6.3H440.3z"/>
	<path id="XMLID_284_" class="st15" d="M442.7,192.7l0.8,1.3l0.9-1.3h1.6l-1.7,2.4l1.7,2.5h-1.6l-1-1.3l-0.9,1.3H441l1.7-2.5
		l-1.6-2.4H442.7z"/>
	<path id="XMLID_286_" class="st15" d="M449.2,196.4c0.5,0,0.9-0.2,1.2-0.7l0.8,0.9c-0.6,0.7-1.3,1-2,1s-1.4-0.2-1.9-0.7
		c-0.5-0.5-0.8-1.1-0.8-1.8c0-0.7,0.3-1.4,0.8-1.8c0.5-0.5,1.1-0.7,1.8-0.7c0.4,0,0.7,0.1,1.1,0.2c0.4,0.1,0.7,0.4,0.9,0.6l-0.7,0.9
		c-0.2-0.2-0.3-0.3-0.6-0.4c-0.2-0.1-0.5-0.2-0.7-0.2c-0.4,0-0.7,0.1-0.9,0.3c-0.3,0.2-0.4,0.6-0.4,1c0,0.4,0.1,0.7,0.4,1
		C448.6,196.3,448.9,196.4,449.2,196.4z"/>
	<path id="XMLID_288_" class="st15" d="M453.5,194.9v2.6h-1.4v-6.7h1.4v2.4c0.4-0.4,0.9-0.6,1.4-0.6c0.5,0,0.9,0.2,1.3,0.5
		c0.4,0.4,0.5,0.8,0.5,1.5v3h-1.4v-2.7c0-0.7-0.3-1.1-0.8-1.1c-0.3,0-0.5,0.1-0.7,0.3C453.6,194.2,453.5,194.5,453.5,194.9z"/>
	<path id="XMLID_290_" class="st15" d="M462.1,197.5h-1.3V197c-0.4,0.4-0.8,0.7-1.3,0.7c-0.5,0-1-0.1-1.3-0.4
		c-0.4-0.3-0.5-0.7-0.5-1.2c0-0.5,0.2-0.9,0.5-1.1c0.4-0.2,0.9-0.4,1.5-0.4h1v0c0-0.5-0.3-0.8-0.8-0.8c-0.2,0-0.5,0-0.7,0.1
		c-0.3,0.1-0.5,0.2-0.7,0.3l-0.6-0.9c0.6-0.5,1.4-0.7,2.2-0.7c0.6,0,1.1,0.1,1.5,0.4c0.4,0.3,0.6,0.8,0.6,1.4V197.5z M460.7,195.7
		v-0.2h-0.9c-0.5,0-0.8,0.2-0.8,0.5c0,0.2,0.1,0.3,0.2,0.4c0.1,0.1,0.3,0.1,0.6,0.1c0.2,0,0.5-0.1,0.6-0.2
		C460.6,196.1,460.7,195.9,460.7,195.7z"/>
	<path id="XMLID_293_" class="st15" d="M464.7,194.8v2.7h-1.4v-4.9h1.4v0.5c0.4-0.4,0.9-0.6,1.4-0.6c0.5,0,0.9,0.2,1.3,0.5
		c0.3,0.4,0.5,0.8,0.5,1.5v3h-1.4v-2.8c0-0.7-0.3-1.1-0.8-1.1c-0.3,0-0.5,0.1-0.7,0.3C464.8,194.2,464.7,194.4,464.7,194.8z"/>
	<path id="XMLID_295_" class="st15" d="M472.7,196.7c-0.4,0.5-1,0.7-1.6,0.7s-1.2-0.2-1.6-0.6c-0.4-0.4-0.7-1-0.7-1.7
		c0-0.7,0.2-1.3,0.7-1.8c0.5-0.5,1-0.7,1.5-0.7c0.6,0,1.1,0.2,1.4,0.7v-0.6h1.4v4.3c0,0.4-0.1,0.8-0.2,1.2c-0.2,0.3-0.4,0.6-0.6,0.8
		c-0.5,0.4-1.1,0.6-1.8,0.6c-0.4,0-0.7-0.1-1.1-0.2c-0.4-0.1-0.7-0.3-1-0.5l0.5-1c0.4,0.3,0.9,0.5,1.4,0.5c0.5,0,0.9-0.1,1.2-0.4
		C472.6,197.6,472.7,197.3,472.7,196.7z M472.5,195c0-0.4-0.1-0.7-0.3-0.9c-0.2-0.2-0.5-0.3-0.8-0.3c-0.3,0-0.6,0.1-0.8,0.3
		c-0.2,0.2-0.3,0.5-0.3,0.9c0,0.4,0.1,0.7,0.3,0.9c0.2,0.2,0.5,0.4,0.8,0.4c0.3,0,0.6-0.1,0.8-0.4
		C472.4,195.7,472.5,195.4,472.5,195z"/>
	<path id="XMLID_298_" class="st15" d="M479.4,196.8c-0.6,0.5-1.2,0.8-1.9,0.8c-0.7,0-1.4-0.2-1.8-0.7c-0.5-0.5-0.7-1.1-0.7-1.8
		s0.2-1.4,0.7-1.8c0.5-0.5,1.1-0.7,1.7-0.7s1.2,0.2,1.7,0.6c0.5,0.4,0.7,1,0.7,1.7v0.7h-3.6c0,0.3,0.2,0.5,0.4,0.7
		c0.2,0.2,0.5,0.3,0.8,0.3c0.5,0,0.9-0.2,1.2-0.5L479.4,196.8z M478.1,193.9c-0.2-0.2-0.4-0.2-0.7-0.2c-0.3,0-0.5,0.1-0.7,0.2
		c-0.2,0.2-0.4,0.4-0.4,0.7h2.1C478.4,194.3,478.3,194.1,478.1,193.9z"/>
	<path id="XMLID_227_" class="st14" d="M345.8,266.7h-21c-2,0-3.7-1.7-3.7-3.7v-50.2c0-2,1.7-3.7,3.7-3.7h21c2,0,3.7,1.7,3.7,3.7
		V263C349.5,265,347.8,266.7,345.8,266.7z"/>
	<path id="XMLID_228_" class="st14" d="M481.6,264.6H359.4c-2,0-3.7-1.7-3.7-3.7v-48.1c0-2,1.7-3.7,3.7-3.7h122.3
		c2,0,3.7,1.7,3.7,3.7v48.1C485.3,262.9,483.7,264.6,481.6,264.6z"/>
</g>
<g id="Capa_2" class="st16">
	<path id="XMLID_116_" class="st17" d="M228.5,138.4c0,0,33.2-18,60.7,27.1"/>
</g>
</svg>
