<?xml version="1.0" encoding="utf-8"?>
<!-- Generator: Adobe Illustrator 19.0.0, SVG Export Plug-In . SVG Version: 6.00 Build 0)  -->
<svg version="1.1" id="Capa_1" xmlns="http://www.w3.org/2000/svg" xmlns:xlink="http://www.w3.org/1999/xlink" x="0px" y="0px"
	 viewBox="102 -94.5 284 269.5" style="enable-background:new 102 -94.5 284 269.5;" xml:space="preserve">
<style type="text/css">
	.st0{fill:#ECEEF2;}
	.st1{fill:#00C0F0;}
	.st2{fill:#152E47;}
	.st3{fill:#C4C4C1;}
	.st4{fill:#C3C3C0;}
	.st5{fill:#C3C3C1;}
	.st6{fill:#C0C0BD;}
	.st7{fill:#B9BAB9;}
	.st8{fill:#3A9FFF;}
</style>
<circle class="st0" cx="254.1" cy="38.6" r="121.1"/>
<path class="st1" d="M246-82.4c-7.4,0.7-14.8,2-22,4c-15.7,4.4-30,11.5-42.8,21.5c-12.2,9.5-22.4,20.8-30.4,34
	c-7.6,12.4-12.8,25.8-15.7,40c-0.9,4.3-1.6,8.7-1.9,13.1c0,0.3,0,0.7-0.2,1c-3.4,0-6.8,0-10.2,0c-1.6,0-1.6,0-1.6-1.6
	c0.3-13.9,2.7-27.4,7.3-40.5c12.8-36.1,42.3-64.6,79.1-76.6c8.4-2.5,16.8-4.3,25.4-5.2c3.8-0.4,7.6-0.6,11.3-0.7
	c1.7,0,1.7,0,1.7,1.6C246-88.6,246-85.5,246-82.4z"/>
<path class="st2" d="M344.2,135.3c0.8,0.7,1.2,1.5,1.3,2.5c0.2,0.5,0.4,1.1,0.6,1.6c1.5,4.2,1.9,8.5,1.1,12.9
	c-1.9,10.7-10.5,18.9-21.4,20.2c-11.9,1.4-21.4-5.4-25.4-14c-2.5-5.3-3.1-10.7-1.8-16.3c1.4-6.5,5.1-11.7,10.8-15.3
	c6.5-4.1,13.5-5,20.8-2.8c2.9,0.9,5.4,2.4,7.8,4C340.5,130.2,342.6,132.6,344.2,135.3z"/>
<path class="st3" d="M133.2,321.5c-0.7,0-1.5-0.6-1.5-1.3c-0.1-0.8,0.6-1.6,1.4-1.6c0.7,0,1.3,0.5,1.3,1.3
	C134.5,320.7,133.9,321.5,133.2,321.5z"/>
<path class="st4" d="M359.9,135.1c0.8,0,1.4,0.7,1.3,1.5c0,0.9-0.7,1.5-1.4,1.4c-0.7,0-1.3-0.8-1.3-1.5
	C358.5,135.8,359.3,135.1,359.9,135.1z"/>
<path class="st4" d="M376.3,83.5c0,0.8-0.6,1.5-1.3,1.5c-0.7,0-1.4-0.7-1.4-1.4c0-0.8,0.7-1.4,1.5-1.4
	C376,82.2,376.4,82.7,376.3,83.5z"/>
<path class="st4" d="M374.9,170.9c0.8,0,1.4,0.7,1.4,1.5c0.1,0.8-0.4,1.3-1.2,1.3c-0.8,0-1.5-0.6-1.5-1.3
	C373.6,171.6,374.3,170.9,374.9,170.9z"/>
<path class="st4" d="M102.7,318.5c0.7,0,1.4,0.8,1.3,1.5s-0.8,1.3-1.6,1.2c-0.8,0-1.2-0.5-1.2-1.4
	C101.4,319.1,102,318.4,102.7,318.5z"/>
<path class="st3" d="M375.2,135.1c0.8,0.1,1.3,0.8,1.2,1.6c-0.1,0.7-0.7,1.3-1.4,1.3c-0.6,0-1.3-0.8-1.3-1.5
	C373.7,135.8,374.5,135.1,375.2,135.1z"/>
<path class="st4" d="M359.9,152.7c0.8,0.1,1.4,0.8,1.3,1.6c0,0.7-0.6,1.3-1.3,1.3c-0.7,0-1.4-0.8-1.4-1.5S359.3,152.7,359.9,152.7z"
	/>
<path class="st4" d="M375.5,100c0.7,0,1.3,0.7,1.3,1.5s-0.5,1.2-1.3,1.2c-0.9,0-1.5-0.6-1.5-1.4C374,100.5,374.7,99.8,375.5,100z"/>
<path class="st3" d="M375.2,152.7c0.8,0.1,1.4,0.8,1.3,1.6c-0.1,0.7-0.7,1.3-1.4,1.3c-0.7,0-1.4-0.8-1.4-1.5
	S374.5,152.7,375.2,152.7z"/>
<path class="st3" d="M346,172.6c0,0.7-0.8,1.4-1.5,1.4c-0.7-0.1-1.3-0.8-1.3-1.6c0.1-0.8,0.5-1.2,1.4-1.2S346,171.8,346,172.6z"/>
<path class="st4" d="M360.4,100c0.7,0.1,1.3,0.8,1.2,1.6s-0.6,1.2-1.4,1.1c-0.8-0.1-1.4-0.8-1.4-1.5
	C358.9,100.4,359.6,99.8,360.4,100z"/>
<path class="st5" d="M376.4,48.3c0,0.8-0.5,1.4-1.2,1.4s-1.5-0.8-1.5-1.4c0-0.7,0.7-1.5,1.4-1.5C375.8,46.8,376.4,47.5,376.4,48.3z"
	/>
<path class="st4" d="M360.1,117.6c0.6,0,1.5,0.8,1.5,1.4c0,0.7-0.7,1.5-1.4,1.5s-1.4-0.7-1.4-1.5
	C358.7,118.3,359.3,117.6,360.1,117.6z"/>
<path class="st4" d="M117.7,303.6c-0.8,0-1.5-0.6-1.5-1.3c0-0.8,0.7-1.5,1.4-1.4c0.7,0,1.3,0.7,1.3,1.5S118.5,303.6,117.7,303.6z"/>
<path class="st4" d="M103.8,302.3c0,0.8-0.4,1.3-1.2,1.3c-0.8,0-1.5-0.6-1.6-1.2c0-0.7,0.7-1.5,1.3-1.5
	C103.1,300.9,103.7,301.5,103.8,302.3z"/>
<path class="st4" d="M360,170.9c0.7,0,1.3,0.7,1.3,1.5c0,0.9-0.5,1.3-1.3,1.3c-0.8,0-1.5-0.6-1.5-1.3
	C358.5,171.6,359.2,170.9,360,170.9z"/>
<path class="st4" d="M117.7,321.2c-0.8,0-1.2-0.5-1.2-1.3s0.6-1.4,1.4-1.4c0.7,0,1.4,0.8,1.3,1.5
	C119.2,320.7,118.4,321.3,117.7,321.2z"/>
<path class="st4" d="M375,117.7c0.7-0.1,1.6,0.7,1.6,1.3c0.1,0.6-0.6,1.4-1.3,1.5c-0.7,0.1-1.4-0.6-1.4-1.4S374.4,117.7,375,117.7z"
	/>
<path class="st4" d="M373.6,65.8c0-0.6,0.8-1.4,1.5-1.4c0.7,0,1.3,0.7,1.3,1.4c0,0.8-0.4,1.3-1.2,1.3S373.7,66.5,373.6,65.8z"/>
<path class="st4" d="M133,303.9c-0.7,0-1.3-0.6-1.3-1.4s0.4-1.3,1.2-1.3c0.8,0,1.5,0.6,1.5,1.3C134.4,303.1,133.6,303.9,133,303.9z"
	/>
<path class="st6" d="M343.9,120.6c-0.1,0-0.1,0-0.2,0c0.7-0.9,1.3-1.9,2-2.8C346.5,120,346.2,120.5,343.9,120.6z"/>
<path class="st7" d="M345.7,137.8c-0.4-0.8-0.9-1.7-1.3-2.5C346.1,135.8,346.2,136.1,345.7,137.8z"/>
<path class="st4" d="M129.3,118.8c0.8,0,1.4,0.7,1.3,1.5c0,0.9-0.7,1.5-1.4,1.4c-0.7,0-1.3-0.8-1.3-1.5
	C127.9,119.5,128.7,118.8,129.3,118.8z"/>
<path class="st4" d="M144.3,154.6c0.8,0,1.4,0.7,1.4,1.5c0.1,0.8-0.4,1.3-1.2,1.3c-0.8,0-1.5-0.6-1.5-1.3
	C143,155.3,143.7,154.6,144.3,154.6z"/>
<path class="st3" d="M144.6,118.8c0.8,0.1,1.3,0.8,1.2,1.6c-0.1,0.7-0.7,1.3-1.4,1.3c-0.6,0-1.3-0.8-1.3-1.5
	C143.1,119.5,143.9,118.8,144.6,118.8z"/>
<path class="st4" d="M129.3,136.4c0.8,0.1,1.4,0.8,1.3,1.6c0,0.7-0.6,1.3-1.3,1.3s-1.4-0.8-1.4-1.5S128.7,136.4,129.3,136.4z"/>
<path class="st3" d="M144.6,136.4c0.8,0.1,1.4,0.8,1.3,1.6c-0.1,0.7-0.7,1.3-1.4,1.3c-0.7,0-1.4-0.8-1.4-1.5
	S143.9,136.4,144.6,136.4z"/>
<path class="st4" d="M129.4,154.6c0.7,0,1.3,0.7,1.3,1.5c0,0.9-0.5,1.3-1.3,1.3c-0.8,0-1.5-0.6-1.5-1.3
	C127.9,155.3,128.6,154.6,129.4,154.6z"/>
<path class="st4" d="M113.4,118.8c0.8,0,1.4,0.7,1.3,1.5c0,0.9-0.7,1.5-1.4,1.4c-0.7,0-1.3-0.8-1.3-1.5
	C112,119.5,112.8,118.8,113.4,118.8z"/>
<path class="st4" d="M113.4,136.4c0.8,0.1,1.4,0.8,1.3,1.6c0,0.7-0.6,1.3-1.3,1.3c-0.7,0-1.4-0.8-1.4-1.5S112.8,136.4,113.4,136.4z"
	/>
<path class="st4" d="M113.5,154.6c0.7,0,1.3,0.7,1.3,1.5c0,0.9-0.5,1.3-1.3,1.3c-0.8,0-1.5-0.6-1.5-1.3
	C112,155.3,112.7,154.6,113.5,154.6z"/>
<path class="st4" d="M374.9-62.5c0.8,0,1.4,0.7,1.4,1.5c0.1,0.8-0.4,1.3-1.2,1.3c-0.8,0-1.5-0.6-1.5-1.3
	C373.6-61.8,374.3-62.5,374.9-62.5z"/>
<path class="st4" d="M359.9-80.7c0.8,0.1,1.4,0.8,1.3,1.6c0,0.7-0.6,1.3-1.3,1.3c-0.7,0-1.4-0.8-1.4-1.5S359.3-80.7,359.9-80.7z"/>
<path class="st3" d="M375.2-80.7c0.8,0.1,1.4,0.8,1.3,1.6c-0.1,0.7-0.7,1.3-1.4,1.3c-0.7,0-1.4-0.8-1.4-1.5S374.5-80.7,375.2-80.7z"
	/>
<path class="st4" d="M360-62.5c0.7,0,1.3,0.7,1.3,1.5c0,0.9-0.5,1.3-1.3,1.3c-0.8,0-1.5-0.6-1.5-1.3C358.5-61.8,359.2-62.5,360-62.5
	z"/>
<path class="st4" d="M160.5,118.7c0.8,0,1.4,0.7,1.3,1.5c0,0.9-0.7,1.5-1.4,1.4c-0.7,0-1.3-0.8-1.3-1.5
	C159.1,119.4,159.9,118.7,160.5,118.7z"/>
<path class="st4" d="M160.5,136.3c0.8,0.1,1.4,0.8,1.3,1.6c0,0.7-0.6,1.3-1.3,1.3s-1.4-0.8-1.4-1.5S159.9,136.3,160.5,136.3z"/>
<path class="st4" d="M160.6,154.5c0.7,0,1.3,0.7,1.3,1.5c0,0.9-0.5,1.3-1.3,1.3c-0.8,0-1.5-0.6-1.5-1.3
	C159.1,155.2,159.8,154.5,160.6,154.5z"/>
<path class="st4" d="M374.9-45.7c0.8,0,1.4,0.7,1.4,1.5c0.1,0.8-0.4,1.3-1.2,1.3c-0.8,0-1.5-0.6-1.5-1.3
	C373.6-45,374.3-45.7,374.9-45.7z"/>
<path class="st4" d="M341.9-80.7c0.8,0.1,1.4,0.8,1.3,1.6c0,0.7-0.6,1.3-1.3,1.3c-0.7,0-1.4-0.8-1.4-1.5S341.3-80.7,341.9-80.7z"/>
<g>
	<path class="st8" d="M248.2,53.6c12.8,0,23.1-10.4,23.1-23.1S260.9,7.4,248.2,7.4S225,17.7,225,30.5S235.4,53.6,248.2,53.6z
		 M248.2,49c-10.2,0-18.5-8.3-18.5-18.5S238,12,248.2,12s18.5,8.3,18.5,18.5S258.4,49,248.2,49z"/>
	<path class="st8" d="M284.3,76.4c0.9,0.9,2.4,0.9,3.3,0l6.5-6.5c0.4-0.4,0.7-1,0.7-1.6c0-0.6-0.2-1.2-0.7-1.6L275.4,48
		c3.2-5,5.1-11,5.1-17.5c0-17.9-14.5-32.4-32.4-32.4s-32.4,14.5-32.4,32.4s14.5,32.4,32.4,32.4c6.4,0,12.4-1.9,17.5-5.1L284.3,76.4
		L284.3,76.4z M275.9,30.5c0,15.3-12.5,27.8-27.8,27.8s-27.8-12.5-27.8-27.8c0-15.3,12.5-27.8,27.8-27.8S275.9,15.2,275.9,30.5z
		 M285.9,71.5L269.4,55c1.2-1,2.3-2.1,3.3-3.3l16.5,16.5L285.9,71.5z"/>
	<path class="st8" d="M248.2,39.8c1.3,0,2.3-1,2.3-2.3v-4.6h4.6c1.3,0,2.3-1,2.3-2.3c0-1.3-1-2.3-2.3-2.3h-4.6v-4.6
		c0-1.3-1-2.3-2.3-2.3s-2.3,1-2.3,2.3v4.6h-4.6c-1.3,0-2.3,1-2.3,2.3c0,1.3,1,2.3,2.3,2.3h4.6v4.6C245.8,38.7,246.9,39.8,248.2,39.8
		z"/>
</g>
</svg>
