<?xml version="1.0" encoding="utf-8"?>
<!-- Generator: Adobe Illustrator 16.0.0, SVG Export Plug-In . SVG Version: 6.00 Build 0)  -->
<!DOCTYPE svg PUBLIC "-//W3C//DTD SVG 1.0//EN" "http://www.w3.org/TR/2001/REC-SVG-20010904/DTD/svg10.dtd">
<svg version="1.0" id="Layer_1" xmlns="http://www.w3.org/2000/svg" xmlns:xlink="http://www.w3.org/1999/xlink" x="0px" y="0px"
	 width="800px" height="800px" viewBox="0 0 800 800" enable-background="new 0 0 800 800" xml:space="preserve">
<path fill="#F2541B" d="M363.242,405.239c0,13.813-7.939,22.07-19.213,22.07c-11.114,0-19.053-8.257-19.053-22.07v-48.904H304.81
	v48.111c0,25.246,15.878,41.283,39.219,41.283c23.5,0,39.378-16.037,39.378-41.283v-48.111h-20.165V405.239z M740.83,409.685
	l-12.227-30.644l-12.068,30.644H740.83z M774.809,443.667h-20.482l-7.145-17.786h-37.156l-6.984,17.786h-20.484l36.838-87.332
	h18.102L774.809,443.667z M654.77,386.503c0-3.969-1.43-7.462-3.811-9.526c-2.699-2.382-6.51-3.652-11.75-3.652h-19.371v26.358
	h19.371c5.24,0,8.891-1.271,11.59-3.493C653.18,394.125,654.77,390.474,654.77,386.503z M652.865,414.29l24.928,29.377h-23.658
	l-23.184-27.63h-11.113v27.63H599.99v-87.332h40.328c11.275,0,19.531,2.699,25.406,7.78s9.369,12.861,9.369,22.07
	C675.094,397.777,670.17,409.845,652.865,414.29z M144.279,356.335h-20.166v87.332h61.132v-17.786h-40.966V356.335z M72.032,427.152
	c-15.084,0-25.882-11.751-25.882-27.152s10.797-27.152,25.882-27.152c7.145,0,13.021,2.542,18.259,7.464l13.021-13.021
	c-7.939-8.098-18.896-13.021-31.598-13.021c-26.2,0-46.523,20.165-46.523,45.729c0,25.563,20.324,45.729,46.523,45.729
	c13.338,0,24.93-5.398,32.868-14.45l-13.02-13.02C86.321,424.134,80.129,427.152,72.032,427.152z M470.58,400
	c0-15.72-11.434-26.199-28.422-26.199H428.82v52.398h13.338C459.146,426.199,470.58,415.719,470.58,400z M491.537,400
	c0,26.042-19.211,43.667-47.951,43.667h-34.932v-87.332h34.139C471.373,356.335,491.537,373.96,491.537,400z M263.842,400.159
	c0-15.879-10.319-27.469-25.086-27.469c-14.61,0-25.089,11.59-25.089,27.469c0,15.721,10.479,27.15,25.089,27.15
	C253.523,427.31,263.842,415.88,263.842,400.159z M284.962,400.159c0,25.564-19.373,45.57-46.206,45.57
	c-26.676,0-46.048-20.006-46.048-45.57c0-25.724,19.373-45.889,46.048-45.889C265.589,354.271,284.962,374.436,284.962,400.159z
	 M500.75,443.667h75.58v-18.104h-63.672C509.801,432.391,505.83,438.426,500.75,443.667z M565.533,408.573v-17.782h-48.748
	c0.477,3.017,0.795,6.192,0.795,9.368c0,3.016-0.318,5.716-0.637,8.414H565.533z M499.795,356.335h76.219v18.101H512.34
	C509.322,367.608,505.035,361.574,499.795,356.335z"/>
</svg>
