<?xml version="1.0" encoding="utf-8"?>
<!-- Generator: Adobe Illustrator 19.0.0, SVG Export Plug-In . SVG Version: 6.00 Build 0)  -->
<svg version="1.1" id="Capa_1" xmlns="http://www.w3.org/2000/svg" xmlns:xlink="http://www.w3.org/1999/xlink" x="0px" y="0px"
	 viewBox="-7 16.5 284 269.5" style="enable-background:new -7 16.5 284 269.5;" xml:space="preserve">
<style type="text/css">
	.st0{fill:#ECEEF2;}
	.st1{fill:#00C0F0;}
	.st2{fill:#152E47;}
	.st3{fill:#C3C3C0;}
	.st4{fill:#C4C4C1;}
	.st5{fill:#C3C3C1;}
	.st6{fill:#C0C0BD;}
	.st7{fill:#B9BAB9;}
	.st8{fill:#3A9FFF;}
</style>
<circle class="st0" cx="148.6" cy="150.6" r="121.1"/>
<path class="st1" d="M140.5,29.6c-7.4,0.7-14.8,2-22,4c-15.7,4.4-30,11.5-42.8,21.5c-12.2,9.5-22.4,20.8-30.4,34
	c-7.6,12.4-12.8,25.8-15.7,40c-0.9,4.3-1.6,8.7-1.9,13.1c0,0.3,0,0.7-0.2,1c-3.4,0-6.8,0-10.2,0c-1.6,0-1.6,0-1.6-1.6
	c0.3-13.9,2.7-27.4,7.3-40.5C35.8,65,65.3,36.5,102.1,24.5c8.4-2.5,16.8-4.3,25.4-5.2c3.8-0.4,7.6-0.6,11.3-0.7c1.7,0,1.7,0,1.7,1.6
	C140.5,23.4,140.5,26.5,140.5,29.6z"/>
<path class="st2" d="M238.7,247.3c0.8,0.7,1.2,1.5,1.3,2.5c0.2,0.5,0.4,1.1,0.6,1.6c1.5,4.2,1.9,8.5,1.1,12.9
	c-1.9,10.7-10.5,18.9-21.4,20.2c-11.9,1.4-21.4-5.4-25.4-14c-2.5-5.3-3.1-10.7-1.8-16.3c1.4-6.5,5.1-11.7,10.8-15.3
	c6.5-4.1,13.5-5,20.8-2.8c2.9,0.9,5.4,2.4,7.8,4C235,242.2,237.1,244.6,238.7,247.3z"/>
<path class="st3" d="M254.4,247.1c0.8,0,1.4,0.7,1.3,1.5c0,0.9-0.7,1.5-1.4,1.4c-0.7,0-1.3-0.8-1.3-1.5S253.8,247.1,254.4,247.1z"/>
<path class="st3" d="M270.8,195.5c0,0.8-0.6,1.5-1.3,1.5c-0.7,0-1.4-0.7-1.4-1.4c0-0.8,0.7-1.4,1.5-1.4
	C270.5,194.2,270.9,194.7,270.8,195.5z"/>
<path class="st3" d="M269.4,282.9c0.8,0,1.4,0.7,1.4,1.5c0.1,0.8-0.4,1.3-1.2,1.3c-0.8,0-1.5-0.6-1.5-1.3
	C268.1,283.6,268.8,282.9,269.4,282.9z"/>
<path class="st4" d="M269.7,247.1c0.8,0.1,1.3,0.8,1.2,1.6c-0.1,0.7-0.7,1.3-1.4,1.3c-0.6,0-1.3-0.8-1.3-1.5
	C268.2,247.8,269,247.1,269.7,247.1z"/>
<path class="st3" d="M254.4,264.7c0.8,0.1,1.4,0.8,1.3,1.6c0,0.7-0.6,1.3-1.3,1.3c-0.7,0-1.4-0.8-1.4-1.5S253.8,264.7,254.4,264.7z"
	/>
<path class="st3" d="M270,212c0.7,0,1.3,0.7,1.3,1.5s-0.5,1.2-1.3,1.2c-0.9,0-1.5-0.6-1.5-1.4C268.5,212.5,269.2,211.8,270,212z"/>
<path class="st4" d="M269.7,264.7c0.8,0.1,1.4,0.8,1.3,1.6c-0.1,0.7-0.7,1.3-1.4,1.3c-0.7,0-1.4-0.8-1.4-1.5S269,264.7,269.7,264.7z
	"/>
<path class="st4" d="M240.5,284.6c0,0.7-0.8,1.4-1.5,1.4c-0.7-0.1-1.3-0.8-1.3-1.6c0.1-0.8,0.5-1.2,1.4-1.2S240.5,283.8,240.5,284.6
	z"/>
<path class="st3" d="M254.9,212c0.7,0.1,1.3,0.8,1.2,1.6c-0.1,0.8-0.6,1.2-1.4,1.1s-1.4-0.8-1.4-1.5
	C253.4,212.4,254.1,211.8,254.9,212z"/>
<path class="st5" d="M270.9,160.3c0,0.8-0.5,1.4-1.2,1.4s-1.5-0.8-1.5-1.4c0-0.7,0.7-1.5,1.4-1.5
	C270.3,158.8,270.9,159.5,270.9,160.3z"/>
<path class="st3" d="M254.6,229.6c0.6,0,1.5,0.8,1.5,1.4c0,0.7-0.7,1.5-1.4,1.5s-1.4-0.7-1.4-1.5
	C253.2,230.3,253.8,229.6,254.6,229.6z"/>
<path class="st3" d="M254.5,282.9c0.7,0,1.3,0.7,1.3,1.5c0,0.9-0.5,1.3-1.3,1.3s-1.5-0.6-1.5-1.3C253,283.6,253.7,282.9,254.5,282.9
	z"/>
<path class="st3" d="M269.5,229.7c0.7-0.1,1.6,0.7,1.6,1.3c0.1,0.6-0.6,1.4-1.3,1.5c-0.7,0.1-1.4-0.6-1.4-1.4
	C268.4,230.3,268.9,229.7,269.5,229.7z"/>
<path class="st3" d="M268.1,177.8c0-0.6,0.8-1.4,1.5-1.4s1.3,0.7,1.3,1.4c0,0.8-0.4,1.3-1.2,1.3S268.2,178.5,268.1,177.8z"/>
<path class="st6" d="M238.4,232.6c-0.1,0-0.1,0-0.2,0c0.7-0.9,1.3-1.9,2-2.8C241,232,240.7,232.5,238.4,232.6z"/>
<path class="st7" d="M240.2,249.8c-0.4-0.8-0.9-1.7-1.3-2.5C240.6,247.8,240.7,248.1,240.2,249.8z"/>
<path class="st3" d="M23.8,230.8c0.8,0,1.4,0.7,1.3,1.5c0,0.9-0.7,1.5-1.4,1.4c-0.7,0-1.3-0.8-1.3-1.5
	C22.4,231.5,23.2,230.8,23.8,230.8z"/>
<path class="st3" d="M38.8,266.6c0.8,0,1.4,0.7,1.4,1.5c0.1,0.8-0.4,1.3-1.2,1.3s-1.5-0.6-1.5-1.3C37.5,267.3,38.2,266.6,38.8,266.6
	z"/>
<path class="st4" d="M39.1,230.8c0.8,0.1,1.3,0.8,1.2,1.6c-0.1,0.7-0.7,1.3-1.4,1.3c-0.6,0-1.3-0.8-1.3-1.5
	C37.6,231.5,38.4,230.8,39.1,230.8z"/>
<path class="st3" d="M23.8,248.4c0.8,0.1,1.4,0.8,1.3,1.6c0,0.7-0.6,1.3-1.3,1.3s-1.4-0.8-1.4-1.5S23.2,248.4,23.8,248.4z"/>
<path class="st4" d="M39.1,248.4c0.8,0.1,1.4,0.8,1.3,1.6c-0.1,0.7-0.7,1.3-1.4,1.3s-1.4-0.8-1.4-1.5S38.4,248.4,39.1,248.4z"/>
<path class="st3" d="M23.9,266.6c0.7,0,1.3,0.7,1.3,1.5c0,0.9-0.5,1.3-1.3,1.3s-1.5-0.6-1.5-1.3C22.4,267.3,23.1,266.6,23.9,266.6z"
	/>
<path class="st3" d="M7.9,230.8c0.8,0,1.4,0.7,1.3,1.5c0,0.9-0.7,1.5-1.4,1.4c-0.7,0-1.3-0.8-1.3-1.5C6.5,231.5,7.3,230.8,7.9,230.8
	z"/>
<path class="st3" d="M7.9,248.4c0.8,0.1,1.4,0.8,1.3,1.6c0,0.7-0.6,1.3-1.3,1.3c-0.7,0-1.4-0.8-1.4-1.5S7.3,248.4,7.9,248.4z"/>
<path class="st3" d="M8,266.6c0.7,0,1.3,0.7,1.3,1.5c0,0.9-0.5,1.3-1.3,1.3s-1.5-0.6-1.5-1.3C6.5,267.3,7.2,266.6,8,266.6z"/>
<path class="st3" d="M269.4,49.5c0.8,0,1.4,0.7,1.4,1.5c0.1,0.8-0.4,1.3-1.2,1.3c-0.8,0-1.5-0.6-1.5-1.3
	C268.1,50.2,268.8,49.5,269.4,49.5z"/>
<path class="st3" d="M254.4,31.3c0.8,0.1,1.4,0.8,1.3,1.6c0,0.7-0.6,1.3-1.3,1.3c-0.7,0-1.4-0.8-1.4-1.5S253.8,31.3,254.4,31.3z"/>
<path class="st4" d="M269.7,31.3c0.8,0.1,1.4,0.8,1.3,1.6c-0.1,0.7-0.7,1.3-1.4,1.3c-0.7,0-1.4-0.8-1.4-1.5S269,31.3,269.7,31.3z"/>
<path class="st3" d="M254.5,49.5c0.7,0,1.3,0.7,1.3,1.5c0,0.9-0.5,1.3-1.3,1.3S253,51.7,253,51C253,50.2,253.7,49.5,254.5,49.5z"/>
<path class="st3" d="M55,230.7c0.8,0,1.4,0.7,1.3,1.5c0,0.9-0.7,1.5-1.4,1.4c-0.7,0-1.3-0.8-1.3-1.5C53.6,231.4,54.4,230.7,55,230.7
	z"/>
<path class="st3" d="M55,248.3c0.8,0.1,1.4,0.8,1.3,1.6c0,0.7-0.6,1.3-1.3,1.3s-1.4-0.8-1.4-1.5S54.4,248.3,55,248.3z"/>
<path class="st3" d="M55.1,266.5c0.7,0,1.3,0.7,1.3,1.5c0,0.9-0.5,1.3-1.3,1.3s-1.5-0.6-1.5-1.3C53.6,267.2,54.3,266.5,55.1,266.5z"
	/>
<path class="st3" d="M269.4,66.3c0.8,0,1.4,0.7,1.4,1.5c0.1,0.8-0.4,1.3-1.2,1.3c-0.8,0-1.5-0.6-1.5-1.3
	C268.1,67,268.8,66.3,269.4,66.3z"/>
<path class="st3" d="M236.4,31.3c0.8,0.1,1.4,0.8,1.3,1.6c0,0.7-0.6,1.3-1.3,1.3c-0.7,0-1.4-0.8-1.4-1.5S235.8,31.3,236.4,31.3z"/>
<g>
	<g>
		<path class="st8" d="M148.8,109.3c-21.6,0-39.3,17.7-39.3,39.3s17.7,39.3,39.3,39.3s39.3-17.7,39.3-39.3S170.4,109.3,148.8,109.3z
			 M148.8,117.1c4.3,0,7.5,3.5,7.1,7.9l-3.1,31.5h-7.9l-3.1-31.5C141.3,120.7,144.5,117.1,148.8,117.1z M148.8,180.1
			c-4.3,0-7.9-3.5-7.9-7.9s3.5-7.9,7.9-7.9s7.9,3.5,7.9,7.9C156.7,176.5,153.1,180.1,148.8,180.1z"/>
	</g>
</g>
</svg>
