<?xml version="1.0" encoding="utf-8"?>
<!-- Generator: Adobe Illustrator 19.0.0, SVG Export Plug-In . SVG Version: 6.00 Build 0)  -->
<svg version="1.1" xmlns="http://www.w3.org/2000/svg" xmlns:xlink="http://www.w3.org/1999/xlink" x="0px" y="0px"
	 viewBox="0 0 750 80" style="enable-background:new 0 0 750 80;" xml:space="preserve">
<style type="text/css">
	.st0{display:none;}
	.st1{display:inline;fill:#152E47;stroke:#152E47;stroke-miterlimit:10;}
	.st2{fill:#F5F7FA;stroke:#F5F7FA;stroke-miterlimit:10;}
</style>
<g id="BACKGROUND" class="st0">
	<path class="st1" d="M0,64.4c0,0,109.4-77.2,367.8-33c0,0,252.2,56.4,382.2-26.3V80H0V64.4z"/>
</g>
<g id="DESIGNED_BY_FREEPIK" class="st0">
	<path class="st1" d="M750,72.2c0,0-109.4-77.2-367.8-33c0,0-252.2,56.4-382.2-26.3L0-2l750,0.4V72.2z"/>
</g>
<g id="Capa_3">
	<path id="XMLID_1005_" class="st2" d="M750,46.8c-18.3,4.9-46.3,11.3-81.1,15.5C555.6,75.8,513.9,47.6,405.5,40.7
		C243.8,30.5,189.2,83.8,81.8,45.4C43.2,31.6,16.5,12.7,1,0c0,29.1,0,50.9,0,80h749C750,66.7,750,60.1,750,46.8z"/>
</g>
</svg>
