<?xml version="1.0" encoding="utf-8"?>
<!-- Generator: Adobe Illustrator 19.0.0, SVG Export Plug-In . SVG Version: 6.00 Build 0)  -->
<svg version="1.1" id="Capa_1" xmlns="http://www.w3.org/2000/svg" xmlns:xlink="http://www.w3.org/1999/xlink" x="0px" y="0px"
	 viewBox="102 -94.5 284 269.5" style="enable-background:new 102 -94.5 284 269.5;" xml:space="preserve">
<style type="text/css">
	.st0{fill:#ECEEF2;}
	.st1{fill:#00C0F0;}
	.st2{fill:#152E47;}
	.st3{fill:#C3C3C0;}
	.st4{fill:#C4C4C1;}
	.st5{fill:#C3C3C1;}
	.st6{fill:#C0C0BD;}
	.st7{fill:#B9BAB9;}
	.st8{fill:#3A9FFF;}
</style>
<circle class="st0" cx="254.4" cy="39.6" r="121.1"/>
<path class="st1" d="M246.3-81.4c-7.4,0.7-14.8,2-22,4c-15.7,4.4-30,11.5-42.8,21.5c-12.2,9.5-22.4,20.8-30.4,34
	c-7.6,12.4-12.8,25.8-15.7,40c-0.9,4.3-1.6,8.7-1.9,13.1c0,0.3,0,0.7-0.2,1c-3.4,0-6.8,0-10.2,0c-1.6,0-1.6,0-1.6-1.6
	c0.3-13.9,2.7-27.4,7.3-40.5c12.8-36.1,42.3-64.6,79.1-76.6c8.4-2.5,16.8-4.3,25.4-5.2c3.8-0.4,7.6-0.6,11.3-0.7
	c1.7,0,1.7,0,1.7,1.6C246.3-87.6,246.3-84.5,246.3-81.4z"/>
<path class="st2" d="M344.5,136.3c0.8,0.7,1.2,1.5,1.3,2.5c0.2,0.5,0.4,1.1,0.6,1.6c1.5,4.2,1.9,8.5,1.1,12.9
	c-1.9,10.7-10.5,18.9-21.4,20.2c-11.9,1.4-21.4-5.4-25.4-14c-2.5-5.3-3.1-10.7-1.8-16.3c1.4-6.5,5.1-11.7,10.8-15.3
	c6.5-4.1,13.5-5,20.8-2.8c2.9,0.9,5.4,2.4,7.8,4C340.8,131.2,342.9,133.6,344.5,136.3z"/>
<path class="st3" d="M360.2,136.1c0.8,0,1.4,0.7,1.3,1.5c0,0.9-0.7,1.5-1.4,1.4c-0.7,0-1.3-0.8-1.3-1.5S359.6,136.1,360.2,136.1z"/>
<path class="st3" d="M376.6,84.5c0,0.8-0.6,1.5-1.3,1.5c-0.7,0-1.4-0.7-1.4-1.4c0-0.8,0.7-1.4,1.5-1.4
	C376.3,83.2,376.7,83.7,376.6,84.5z"/>
<path class="st3" d="M375.2,171.9c0.8,0,1.4,0.7,1.4,1.5c0.1,0.8-0.4,1.3-1.2,1.3c-0.8,0-1.5-0.6-1.5-1.3
	C373.9,172.6,374.6,171.9,375.2,171.9z"/>
<path class="st4" d="M375.5,136.1c0.8,0.1,1.3,0.8,1.2,1.6c-0.1,0.7-0.7,1.3-1.4,1.3c-0.6,0-1.3-0.8-1.3-1.5
	C374,136.8,374.8,136.1,375.5,136.1z"/>
<path class="st3" d="M360.2,153.7c0.8,0.1,1.4,0.8,1.3,1.6c0,0.7-0.6,1.3-1.3,1.3c-0.7,0-1.4-0.8-1.4-1.5S359.6,153.7,360.2,153.7z"
	/>
<path class="st3" d="M375.8,101c0.7,0,1.3,0.7,1.3,1.5s-0.5,1.2-1.3,1.2c-0.9,0-1.5-0.6-1.5-1.4C374.3,101.5,375,100.8,375.8,101z"
	/>
<path class="st4" d="M375.5,153.7c0.8,0.1,1.4,0.8,1.3,1.6c-0.1,0.7-0.7,1.3-1.4,1.3c-0.7,0-1.4-0.8-1.4-1.5
	S374.8,153.7,375.5,153.7z"/>
<path class="st4" d="M346.3,173.6c0,0.7-0.8,1.4-1.5,1.4c-0.7-0.1-1.3-0.8-1.3-1.6c0.1-0.8,0.5-1.2,1.4-1.2S346.3,172.8,346.3,173.6
	z"/>
<path class="st3" d="M360.7,101c0.7,0.1,1.3,0.8,1.2,1.6s-0.6,1.2-1.4,1.1s-1.4-0.8-1.4-1.5C359.2,101.4,359.9,100.8,360.7,101z"/>
<path class="st5" d="M376.7,49.3c0,0.8-0.5,1.4-1.2,1.4s-1.5-0.8-1.5-1.4c0-0.7,0.7-1.5,1.4-1.5C376.1,47.8,376.7,48.5,376.7,49.3z"
	/>
<path class="st3" d="M360.4,118.6c0.6,0,1.5,0.8,1.5,1.4c0,0.7-0.7,1.5-1.4,1.5s-1.4-0.7-1.4-1.5C359,119.3,359.6,118.6,360.4,118.6
	z"/>
<path class="st3" d="M360.3,171.9c0.7,0,1.3,0.7,1.3,1.5c0,0.9-0.5,1.3-1.3,1.3s-1.5-0.6-1.5-1.3
	C358.8,172.6,359.5,171.9,360.3,171.9z"/>
<path class="st3" d="M375.3,118.7c0.7-0.1,1.6,0.7,1.6,1.3c0.1,0.6-0.6,1.4-1.3,1.5c-0.7,0.1-1.4-0.6-1.4-1.4
	S374.7,118.7,375.3,118.7z"/>
<path class="st3" d="M373.9,66.8c0-0.6,0.8-1.4,1.5-1.4s1.3,0.7,1.3,1.4c0,0.8-0.4,1.3-1.2,1.3S374,67.5,373.9,66.8z"/>
<path class="st6" d="M344.2,121.6c-0.1,0-0.1,0-0.2,0c0.7-0.9,1.3-1.9,2-2.8C346.8,121,346.5,121.5,344.2,121.6z"/>
<path class="st7" d="M346,138.8c-0.4-0.8-0.9-1.7-1.3-2.5C346.4,136.8,346.5,137.1,346,138.8z"/>
<path class="st3" d="M129.6,119.8c0.8,0,1.4,0.7,1.3,1.5c0,0.9-0.7,1.5-1.4,1.4c-0.7,0-1.3-0.8-1.3-1.5
	C128.2,120.5,129,119.8,129.6,119.8z"/>
<path class="st3" d="M144.6,155.6c0.8,0,1.4,0.7,1.4,1.5c0.1,0.8-0.4,1.3-1.2,1.3s-1.5-0.6-1.5-1.3
	C143.3,156.3,144,155.6,144.6,155.6z"/>
<path class="st4" d="M144.9,119.8c0.8,0.1,1.3,0.8,1.2,1.6c-0.1,0.7-0.7,1.3-1.4,1.3c-0.6,0-1.3-0.8-1.3-1.5
	C143.4,120.5,144.2,119.8,144.9,119.8z"/>
<path class="st3" d="M129.6,137.4c0.8,0.1,1.4,0.8,1.3,1.6c0,0.7-0.6,1.3-1.3,1.3s-1.4-0.8-1.4-1.5S129,137.4,129.6,137.4z"/>
<path class="st4" d="M144.9,137.4c0.8,0.1,1.4,0.8,1.3,1.6c-0.1,0.7-0.7,1.3-1.4,1.3s-1.4-0.8-1.4-1.5S144.2,137.4,144.9,137.4z"/>
<path class="st3" d="M129.7,155.6c0.7,0,1.3,0.7,1.3,1.5c0,0.9-0.5,1.3-1.3,1.3s-1.5-0.6-1.5-1.3
	C128.2,156.3,128.9,155.6,129.7,155.6z"/>
<path class="st3" d="M113.7,117.6c0.8,0,1.4,0.7,1.3,1.5c0,0.9-0.7,1.5-1.4,1.4c-0.7,0-1.3-0.8-1.3-1.5
	C112.3,118.3,113.1,117.6,113.7,117.6z"/>
<path class="st3" d="M113.7,135.2c0.8,0.1,1.4,0.8,1.3,1.6c0,0.7-0.6,1.3-1.3,1.3c-0.7,0-1.4-0.8-1.4-1.5S113.1,135.2,113.7,135.2z"
	/>
<path class="st3" d="M113.8,153.4c0.7,0,1.3,0.7,1.3,1.5c0,0.9-0.5,1.3-1.3,1.3s-1.5-0.6-1.5-1.3C112.3,154.1,113,153.4,113.8,153.4
	z"/>
<path class="st3" d="M375.2-61.5c0.8,0,1.4,0.7,1.4,1.5c0.1,0.8-0.4,1.3-1.2,1.3c-0.8,0-1.5-0.6-1.5-1.3
	C373.9-60.8,374.6-61.5,375.2-61.5z"/>
<path class="st3" d="M360.2-79.7c0.8,0.1,1.4,0.8,1.3,1.6c0,0.7-0.6,1.3-1.3,1.3c-0.7,0-1.4-0.8-1.4-1.5S359.6-79.7,360.2-79.7z"/>
<path class="st4" d="M375.5-79.7c0.8,0.1,1.4,0.8,1.3,1.6c-0.1,0.7-0.7,1.3-1.4,1.3c-0.7,0-1.4-0.8-1.4-1.5S374.8-79.7,375.5-79.7z"
	/>
<path class="st3" d="M360.3-61.5c0.7,0,1.3,0.7,1.3,1.5c0,0.9-0.5,1.3-1.3,1.3s-1.5-0.6-1.5-1.3C358.8-60.8,359.5-61.5,360.3-61.5z"
	/>
<path class="st3" d="M160.8,119.7c0.8,0,1.4,0.7,1.3,1.5c0,0.9-0.7,1.5-1.4,1.4c-0.7,0-1.3-0.8-1.3-1.5S160.2,119.7,160.8,119.7z"/>
<path class="st3" d="M160.8,137.3c0.8,0.1,1.4,0.8,1.3,1.6c0,0.7-0.6,1.3-1.3,1.3s-1.4-0.8-1.4-1.5S160.2,137.3,160.8,137.3z"/>
<path class="st3" d="M160.9,155.5c0.7,0,1.3,0.7,1.3,1.5c0,0.9-0.5,1.3-1.3,1.3s-1.5-0.6-1.5-1.3
	C159.4,156.2,160.1,155.5,160.9,155.5z"/>
<path class="st3" d="M375.2-44.7c0.8,0,1.4,0.7,1.4,1.5c0.1,0.8-0.4,1.3-1.2,1.3c-0.8,0-1.5-0.6-1.5-1.3
	C373.9-44,374.6-44.7,375.2-44.7z"/>
<path class="st3" d="M342.2-79.7c0.8,0.1,1.4,0.8,1.3,1.6c0,0.7-0.6,1.3-1.3,1.3c-0.7,0-1.4-0.8-1.4-1.5S341.6-79.7,342.2-79.7z"/>
<g>
	<g>
		<path class="st8" d="M311.5,37.4c-1-1.1-25.7-28.1-56.6-28.1s-55.6,26.9-56.6,28.1c-1.1,1.3-1.1,3.2,0,4.5
			c1,1.1,25.7,28.1,56.6,28.1s55.6-26.9,56.6-28.1C312.6,40.6,312.6,38.6,311.5,37.4z M254.9,63.2c-13,0-23.6-10.6-23.6-23.6
			S241.9,16,254.9,16s23.6,10.6,23.6,23.6S267.9,63.2,254.9,63.2z"/>
	</g>
</g>
<g>
	<g>
		<path class="st8" d="M258.2,32.9c0-3.4,1.7-6.4,4.2-8.2c-2.3-1.2-4.9-1.9-7.6-1.9c-9.3,0-16.8,7.6-16.8,16.8s7.6,16.8,16.8,16.8
			c8.3,0,15.2-6.1,16.5-14C264.6,44.6,258.2,39.5,258.2,32.9z"/>
	</g>
</g>
</svg>
